<svg width="136" height="117" viewBox="0 0 136 117" fill="none" xmlns="http://www.w3.org/2000/svg">
<path d="M102.647 100.17C98.6965 95.9285 94.2048 91.5296 92.4922 85.8364C90.2765 78.4824 88.3686 71.0462 85.905 63.767C84.8759 60.7222 83.922 57.2734 82.202 54.5428C80.4819 51.8047 77.5451 50.9668 74.5481 50.1663C67.9608 48.4157 49.7238 38.8772 47.3728 50.8546" stroke="#EF4123" stroke-width="3.4859" stroke-miterlimit="10" stroke-linecap="round" stroke-linejoin="round"/>
<path d="M68.742 56.802C64.9113 54.4006 58.2865 52.4854 56.8819 52.1114C48.8074 49.9643 44.9317 51.049 37.5257 54.5427C35.0094 55.7322 27.611 60.7371 32.4932 63.5725C35.7981 65.4951 38.735 63.2732 41.8671 62.2408C46.141 60.8419 50.5049 60.5276 54.8539 61.8593C60.2469 63.5051 66.2708 68.3903 67.8256 74.1209C68.7345 77.4874 67.4125 79.5073 63.8447 79.6495C59.969 79.7991 56.3111 76.5224 52.9235 74.9812C49.3032 73.3279 45.1345 71.7569 41.116 72.505C38.1867 73.0511 32.5984 74.9363 32.8538 78.7891C33.1392 83.1282 37.5707 81.5572 40.2748 81.9611C44.5937 82.597 47.5606 85.4399 50.52 88.3426C55.5299 93.2502 62.6655 95.1953 68.2087 99.3548C72.7079 102.721 74.7509 109.148 76.5461 114.34" stroke="#EF4123" stroke-width="3.4859" stroke-miterlimit="10" stroke-linecap="round" stroke-linejoin="round"/>
<path d="M62.7481 45.8047C68.6519 39.3335 73.6843 45.3109 77.6277 51.0564" stroke="#EF4123" stroke-width="3.4859" stroke-miterlimit="10" stroke-linecap="round" stroke-linejoin="round"/>
<path d="M25.6656 72.9013L26.3115 74.8539L25.7933 75.026L25.5679 74.5322C25.4853 74.9362 25.1623 75.2953 24.6816 75.4599C23.4948 75.8638 22.6461 75.1905 22.3231 74.1955C22.0001 73.2006 22.263 72.1382 23.4573 71.7343C24.1709 71.4874 24.8619 71.6594 25.3726 72.2355L24.8769 72.6694C24.5464 72.2355 24.0957 72.1457 23.6376 72.3028C22.8714 72.5647 22.7437 73.2754 22.9616 73.9487C23.1944 74.6669 23.7202 75.1382 24.4938 74.8763C25.0572 74.6818 25.3576 74.233 25.1849 73.6419L24.3887 73.9113L24.2159 73.3876L25.6656 72.9013Z" fill="#EF4123"/>
<path d="M26.3115 70.8292L27.4833 70.4327C28.1593 70.2008 28.8578 70.3953 29.0831 71.0686C29.2334 71.5249 29.0531 71.9738 28.685 72.2506L30.2173 73.5149L29.4737 73.7693L28.0766 72.5274L27.8663 72.6022L27.641 72.677L28.1518 74.2256L27.4983 74.4501L26.3115 70.8292ZM28.0466 71.9514C28.3846 71.8167 28.5348 71.5698 28.4447 71.3005C28.347 71.0013 28.0466 70.889 27.6786 71.0162L27.1603 71.1958L27.4758 72.1533L28.0466 71.9514Z" fill="#EF4123"/>
<path d="M30.2699 71.4875C29.9469 70.5 30.2098 69.4377 31.4041 69.0337C32.5983 68.6222 33.4396 69.3105 33.7626 70.298C34.0855 71.2855 33.8227 72.3478 32.6284 72.7518C31.4341 73.1633 30.5929 72.475 30.2699 71.4875ZM33.0715 70.5374C32.8462 69.8566 32.3655 69.3554 31.5919 69.6172C30.8182 69.8791 30.7281 70.5823 30.9534 71.2631C31.1787 71.9439 31.6594 72.4526 32.4331 72.1832C33.2143 71.9139 33.2969 71.2182 33.0715 70.5374Z" fill="#EF4123"/>
<path d="M34.8818 70.3578L34.1607 68.1509L34.8067 67.9339L35.5052 70.066C35.7005 70.6496 35.9559 70.9189 36.5417 70.7244C37.1276 70.5224 37.1652 70.1483 36.9774 69.5648L36.2788 67.4327L36.9323 67.2083L37.6534 69.3927C37.9538 70.3054 37.7285 71.0236 36.7596 71.3528C35.7906 71.682 35.1747 71.2481 34.8818 70.3578Z" fill="#EF4123"/>
<path d="M38.1716 66.7818L39.3058 66.3928C40.0419 66.1384 40.7104 66.3404 40.9357 67.0287C41.1536 67.702 40.7404 68.2631 40.0043 68.51L39.5161 68.6746L40.0119 70.1783L39.3659 70.3952L38.1716 66.7818ZM39.8015 67.904C40.2447 67.7544 40.3799 67.5374 40.2898 67.2457C40.1921 66.9539 39.9443 66.8492 39.5086 66.9988L39.0204 67.1634L39.3208 68.0686L39.8015 67.904Z" fill="#EF4123"/>
<path d="M49.844 61.0212C49.844 61.0212 49.7463 67.5972 52.4128 66.8341C55.0792 66.071 56.7242 62.6372 56.7242 62.6372" stroke="#EF4123" stroke-width="3.4859" stroke-miterlimit="10" stroke-linecap="round" stroke-linejoin="round"/>
<path d="M18.4023 30.057C18.6802 30.2066 19.0107 30.2739 19.3787 30.2515C19.7468 30.229 19.9946 30.259 20.1073 30.3487L20.1524 30.3861C20.3251 30.5208 20.3176 30.7078 20.1298 30.9472L17.9215 33.7676C17.7338 34.007 17.5535 34.0594 17.3807 33.9247L17.3357 33.8873C17.2455 33.82 17.1629 33.5881 17.1028 33.2065C17.0427 32.825 16.8625 32.5557 16.562 32.406L9.58418 28.7552L14.7068 36.992C14.9096 37.2987 14.9171 37.5755 14.7293 37.8149C14.5265 38.0768 14.2411 38.1665 13.873 38.0842L4.11607 35.1741L9.72689 41.144C9.95222 41.3834 10.2602 41.4882 10.6433 41.4582C11.0338 41.4208 11.2742 41.4433 11.3643 41.5181L11.4094 41.5555C11.5821 41.6901 11.5821 41.8697 11.4019 42.1016L10.0198 43.8746C9.83956 44.1066 9.65929 44.1514 9.48653 44.0168L9.44147 43.9794C9.3288 43.8896 9.23867 43.6652 9.16356 43.3061C9.08844 42.947 8.94573 42.6477 8.73542 42.4158L1.81766 34.9571C1.60734 34.7402 1.3069 34.6504 0.916319 34.6878C0.52574 34.7252 0.285383 34.6953 0.180227 34.6205L0.13516 34.5831C-0.0375959 34.4484 -0.0375959 34.2688 0.127649 34.0519L1.47966 32.3237C1.7801 31.9347 2.14815 31.815 2.5913 31.9497L11.8375 35.0394L6.53465 26.8999C6.2943 26.5109 6.31683 26.1368 6.59474 25.7852L8.00684 23.9823C8.17959 23.7653 8.34484 23.7204 8.51009 23.8476L8.57017 23.8925C8.67533 23.9748 8.73542 24.1169 8.75044 24.3264C8.77297 24.5359 8.81804 24.7453 8.89315 24.9548C8.96827 25.1643 9.11849 25.3289 9.35133 25.4635L18.4023 30.057Z" fill="#EF4123"/>
<path d="M26.627 23.5557C26.8448 23.7577 27.0626 23.8999 27.2579 23.9672C27.4607 24.0345 27.626 24.0495 27.7461 24.0121C27.8663 23.9747 27.9865 23.9447 28.0992 23.9373C28.2118 23.9298 28.3095 23.9672 28.3846 24.057C28.6249 24.3487 28.2494 24.8948 27.2579 25.7028C26.8072 26.0694 26.4242 26.2863 26.1237 26.3387C25.8158 26.3986 25.5153 26.2863 25.2149 26.0095C25.29 26.9222 24.8468 27.7676 23.8779 28.5531C23.0141 29.2564 22.1503 29.6304 21.2941 29.6753C20.4378 29.7202 19.7092 29.3761 19.1083 28.6429C18.5074 27.9322 18.3046 27.1542 18.5149 26.3163C18.7252 25.4784 19.2285 24.7303 20.0247 24.0794C20.7082 23.5258 21.3917 23.2191 22.0827 23.1592L21.9175 22.9946C21.0312 22.1268 20.3326 21.5657 19.8294 21.3263C19.3186 21.0869 18.8454 21.1468 18.4023 21.5059C18.1244 21.7303 17.9816 22.0146 17.9666 22.3587C17.9591 22.7029 18.0117 23.0246 18.1394 23.3238C18.2671 23.6231 18.3272 23.9447 18.3272 24.2739C18.3272 24.6106 18.1995 24.8799 17.9441 25.0894C17.6662 25.3138 17.3808 25.4185 17.0803 25.4036C16.7799 25.3886 16.532 25.2539 16.3217 24.9996C15.8935 24.4759 15.841 23.825 16.1564 23.0545C16.4719 22.2764 17.0503 21.5508 17.884 20.87C18.883 20.0545 19.927 19.6655 21.0161 19.6955C22.1128 19.7254 23.1042 20.1742 23.9981 21.0346L26.627 23.5557ZM24.0131 27.3412C24.3511 27.0644 24.5163 26.7053 24.4938 26.2639C24.4713 25.8225 24.306 25.4335 23.9981 25.0968L23.5174 24.6106C23.1193 24.2141 22.7212 23.9896 22.3081 23.9373C21.895 23.8849 21.5269 23.9971 21.1964 24.2664C20.8659 24.5358 20.6932 24.8724 20.6706 25.2764C20.6481 25.6804 20.7908 26.0694 21.1063 26.4509C21.5494 26.997 22.0527 27.3561 22.6085 27.5432C23.1643 27.7152 23.63 27.6479 24.0131 27.3412Z" fill="#EF4123"/>
<path d="M35.7155 18.2739C35.9258 18.3487 36.1887 18.4161 36.4966 18.4834C36.8046 18.5433 37.0525 18.6031 37.2403 18.663C37.4205 18.7153 37.5482 18.8051 37.6233 18.9323L37.6609 18.9996C37.766 19.1866 37.6984 19.3512 37.4581 19.4934L33.9429 21.4609C33.725 21.5881 33.5523 21.5432 33.4396 21.3412L33.4096 21.2888C33.357 21.1991 33.372 21.042 33.4546 20.825C33.5373 20.608 33.5673 20.4285 33.5448 20.2938C33.5222 20.1592 33.3044 19.9871 32.8988 19.7851L30.8332 19.0071L30.3525 21.3562C30.2924 21.6255 30.2924 21.835 30.36 21.9771C30.4276 22.1192 30.5178 22.2015 30.638 22.224C30.7581 22.2464 30.8858 22.2763 31.021 22.3138C31.1562 22.3512 31.2464 22.411 31.2914 22.4858L31.3215 22.5382C31.4341 22.7402 31.3816 22.9122 31.1487 23.0394L28.7827 24.3636C28.5499 24.4908 28.3771 24.4608 28.2719 24.2738L28.2344 24.2065C28.1668 24.0943 28.1743 23.9446 28.2419 23.7726C28.3095 23.593 28.4147 23.3462 28.5649 23.0245C28.7151 22.7028 28.8203 22.396 28.9029 22.0968L29.7667 18.5956L26.274 17.2789C26.0036 17.1817 25.7407 17.0994 25.4928 17.047C25.245 16.9947 25.0497 16.9647 24.907 16.9498C24.7718 16.9348 24.6441 16.9124 24.5389 16.8675C24.4338 16.8226 24.3511 16.7553 24.291 16.6505L24.246 16.5682C24.1408 16.3887 24.2084 16.2316 24.4413 16.1044L27.9339 14.1443C28.1668 14.0172 28.3395 14.0471 28.4447 14.2341L28.4823 14.3014C28.5423 14.4062 28.5649 14.5708 28.5574 14.7952C28.5499 15.0271 28.5574 15.1992 28.5874 15.3264C28.6175 15.4535 28.7827 15.5957 29.0756 15.7603L31.1562 16.5607L31.682 14.3014C31.7421 14.077 31.7271 13.89 31.6445 13.7553C31.5618 13.6132 31.4567 13.5234 31.329 13.486C31.2013 13.4486 31.0586 13.3962 30.9084 13.3289C30.7581 13.2616 30.6605 13.1942 30.6154 13.1119L30.5779 13.0446C30.4727 12.8501 30.5253 12.693 30.7431 12.5733L32.7411 11.4511C32.9739 11.3239 33.1392 11.3464 33.2443 11.5259L33.2894 11.6082C33.357 11.7354 33.3795 11.8701 33.357 12.0272C33.3345 12.1843 33.2669 12.4162 33.1617 12.7304C33.0565 13.0446 32.9814 13.3139 32.9289 13.5533L32.2228 16.9647L35.7155 18.2739Z" fill="#EF4123"/>
<path d="M42.6257 17.5708C42.3478 17.6606 42.1751 17.6007 42.1075 17.3912L42.0924 17.3314C42.0549 17.2117 42.1525 16.9424 42.4004 16.5309C42.6483 16.1194 42.7159 15.7604 42.6182 15.4461L40.0419 7.38146C39.9593 7.11962 39.8241 6.94756 39.6363 6.84282C39.456 6.74556 39.2758 6.70816 39.1105 6.72312C38.9453 6.74556 38.7725 6.73808 38.6073 6.70068C38.442 6.66327 38.3369 6.58098 38.2918 6.43884L38.2618 6.34906C38.2017 6.16203 38.3219 5.94508 38.6148 5.68324L40.9132 3.70822C41.2737 3.43141 41.5817 3.31171 41.8521 3.34164C42.1225 3.37156 42.2952 3.51371 42.3704 3.76058C42.4154 3.89524 42.4079 4.12716 42.3478 4.44137C42.2877 4.75558 42.3328 5.10719 42.4455 5.48125L45.3523 14.5858C45.4124 14.7728 45.525 14.9299 45.6903 15.0571C45.8555 15.1843 46.0208 15.2816 46.186 15.3264C46.3513 15.3788 46.5015 15.4461 46.6592 15.521C46.8094 15.6032 46.8996 15.693 46.9371 15.7903L46.9521 15.8501C47.0197 16.0596 46.9221 16.2092 46.6517 16.2915L42.6257 17.5708Z" fill="#EF4123"/>
<path d="M54.0426 14.9749C52.2775 15.2367 50.7227 14.8103 49.3707 13.7031C48.0187 12.5959 47.185 10.9799 46.8695 8.84779C46.554 6.70818 46.8394 4.92019 47.7408 3.49129C48.6421 2.06239 50.0242 1.20954 51.9095 0.932735C53.6596 0.678376 55.2144 1.11976 56.5739 2.26438C57.9334 3.409 58.7671 5.02492 59.0751 7.11965C59.3906 9.22185 59.0601 10.9949 58.0911 12.4387C57.1147 13.8751 55.7702 14.7205 54.0426 14.9749ZM54.3356 13.7928C55.0717 13.6881 55.6125 13.2018 55.958 12.334C56.3035 11.4662 56.3636 10.3216 56.1533 8.8852C55.9805 7.70318 55.6725 6.58849 55.2369 5.54112C54.8013 4.49376 54.2604 3.64091 53.6145 2.99753C52.976 2.35415 52.3151 2.07735 51.6466 2.17461C50.8804 2.28682 50.3321 2.78806 49.9941 3.6858C49.6561 4.58354 49.6035 5.79548 49.8289 7.3366C50.0091 8.54107 50.3171 9.64828 50.7603 10.6582C51.1959 11.6682 51.7367 12.4687 52.3676 13.0597C52.9911 13.6507 53.652 13.8901 54.3356 13.7928Z" fill="#EF4123"/>
<path d="M71.8816 5.19708C73.1209 5.3467 74.1575 5.89283 74.9762 6.84293C75.8024 7.79304 76.1254 8.98254 75.9527 10.4264C75.7799 11.8852 75.179 13.0224 74.165 13.8453C73.1435 14.6682 72.0018 15.0049 70.7399 14.8552C69.816 14.743 69.0724 14.3989 68.5166 13.8228L68.1561 16.7031C68.1185 17.0098 68.2237 17.3165 68.4716 17.6233C68.7194 17.93 68.8321 18.147 68.8171 18.2741L68.8096 18.3489C68.7795 18.5659 68.6143 18.6557 68.3138 18.6257L64.731 18.1993C64.4306 18.1619 64.2878 18.0347 64.3179 17.8178L64.3254 17.743C64.3404 17.6158 64.4907 17.4288 64.7836 17.1894C65.0765 16.95 65.2343 16.6732 65.2718 16.3664L66.3234 7.67334C66.3534 7.38906 66.2332 7.11225 65.9628 6.83545C65.6849 6.55865 65.5572 6.35666 65.5723 6.21451L65.5798 6.11726C65.6023 5.93771 65.7525 5.79557 66.0304 5.69832L68.3739 4.89783C68.9072 4.7108 69.14 4.86043 69.0875 5.33174L68.9673 6.1397C69.6283 5.35418 70.5972 5.03997 71.8816 5.19708ZM70.5371 13.9874C71.1681 14.0622 71.6938 13.8603 72.1069 13.3889C72.5201 12.9176 72.7829 12.1994 72.9031 11.2269C73.0609 9.91769 72.9858 8.72818 72.6703 7.66586C72.3548 6.60354 71.829 6.02749 71.0929 5.93771C70.6873 5.89283 70.3118 5.99008 69.9663 6.24444C69.6283 6.4988 69.4029 6.85041 69.2978 7.30676L68.8546 10.995C68.7645 11.7431 68.8922 12.4089 69.2377 12.9999C69.5757 13.5984 70.0113 13.9276 70.5371 13.9874Z" fill="#EF4123"/>
<path d="M85.289 16.1793C85.2365 16.4786 85.244 16.7254 85.2965 16.9349C85.3491 17.1444 85.4318 17.2865 85.5294 17.3613C85.627 17.4362 85.7172 17.5259 85.7848 17.6082C85.8524 17.698 85.8749 17.7953 85.8373 17.9075C85.7247 18.2666 85.0637 18.2591 83.8394 17.8925C83.2761 17.7204 82.893 17.5259 82.6752 17.3015C82.4573 17.0771 82.3822 16.7703 82.4498 16.3664C81.7288 16.9349 80.7748 17.0397 79.5806 16.6731C78.514 16.3439 77.7178 15.8427 77.207 15.1544C76.6963 14.4661 76.5761 13.6731 76.854 12.7679C77.1169 11.8702 77.6502 11.2717 78.4689 10.9799C79.2801 10.6807 80.189 10.6882 81.1804 10.9874C82.0217 11.2418 82.6526 11.6383 83.0883 12.1769L83.1333 11.945C83.3662 10.733 83.4413 9.84279 83.3662 9.28918C83.2836 8.73558 82.9756 8.37648 82.4273 8.2119C82.0818 8.10716 81.7663 8.14457 81.4734 8.33159C81.1804 8.51862 80.9401 8.74306 80.7598 9.01238C80.5795 9.2817 80.3467 9.51362 80.0688 9.70065C79.7909 9.88767 79.4904 9.93256 79.175 9.83531C78.8295 9.73057 78.5816 9.55102 78.4314 9.29666C78.2811 9.0423 78.2511 8.75802 78.3487 8.45129C78.544 7.80791 79.0548 7.39645 79.881 7.23186C80.7072 7.0598 81.6311 7.13461 82.6676 7.44882C83.8995 7.82288 84.8083 8.47374 85.3867 9.39392C85.965 10.3141 86.1453 11.3839 85.92 12.6108L85.289 16.1793ZM80.6772 16.1195C81.0978 16.2467 81.4884 16.1793 81.8489 15.9175C82.2095 15.6556 82.4423 15.304 82.5475 14.8552L82.6902 14.1893C82.8028 13.6432 82.7653 13.1794 82.5775 12.8128C82.3897 12.4462 82.0968 12.1993 81.6912 12.0722C81.2856 11.945 80.91 11.9899 80.557 12.1993C80.2115 12.4013 79.9636 12.7455 79.8209 13.2168C79.6181 13.8901 79.5881 14.5035 79.7458 15.0646C79.896 15.6257 80.204 15.9773 80.6772 16.1195Z" fill="#EF4123"/>
<path d="M95.5417 12.6032C96.06 12.8501 96.3905 13.1942 96.5407 13.6356C96.6909 14.077 96.6534 14.5259 96.428 14.9972C95.9774 15.9174 95.3765 16.1942 94.6103 15.8276C94.2949 15.678 94.0921 15.4835 93.9944 15.2441C93.8968 15.0047 93.8742 14.7802 93.9343 14.5782C93.9869 14.3763 94.0019 14.1668 93.9719 13.9573C93.9418 13.7478 93.8142 13.5907 93.6038 13.486C93.2809 13.3289 92.9504 13.4037 92.6124 13.7029C92.2744 14.0022 91.9739 14.4211 91.7185 14.9598L90.021 18.461C89.9234 18.6704 89.9084 18.8874 89.976 19.1193C90.0511 19.3512 90.1337 19.5607 90.2238 19.7477C90.314 19.9347 90.3365 20.0919 90.2764 20.2041L90.2464 20.2714C90.1487 20.4734 89.9685 20.5033 89.7056 20.3761L86.3781 18.7752C86.1002 18.6405 86.0101 18.4759 86.1077 18.2739L86.1453 18.2066C86.2054 18.0869 86.4082 17.9672 86.7612 17.8325C87.1142 17.6979 87.3546 17.4959 87.4823 17.2341L89.4727 13.1344C89.6079 12.8501 89.5929 12.5359 89.4276 12.1843C89.2624 11.8327 89.2023 11.5933 89.2624 11.481L89.3 11.4137C89.3826 11.2491 89.5704 11.1743 89.8783 11.1743L92.5072 11.2342C92.9729 11.2416 93.1081 11.4511 92.9128 11.8626L92.2744 13.1793C93.2283 12.1992 94.3249 12.0197 95.5417 12.6032Z" fill="#EF4123"/>
<path d="M96.4656 24.5059C95.6845 23.9972 95.2338 23.3538 95.0986 22.5758C94.9634 21.7977 95.1962 20.9524 95.7971 20.0472L98.5687 15.8353L97.7876 15.3265C97.5698 15.1844 97.5247 14.9974 97.6674 14.7804L97.8477 14.5036C97.9979 14.2792 98.1857 14.2343 98.4035 14.3764L98.8166 14.6458C99.2748 14.945 99.7555 15.0497 100.266 14.9674C100.777 14.8777 101.235 14.6233 101.648 14.1969C101.874 13.9725 102.091 13.9276 102.287 14.0547L102.625 14.2717C102.873 14.4288 102.91 14.6383 102.737 14.9001L101.693 16.5235L103.609 17.7729C103.699 17.8327 103.751 17.915 103.774 18.0198C103.797 18.1245 103.781 18.2292 103.714 18.3265L103.534 18.6033C103.466 18.7005 103.383 18.7604 103.278 18.7754C103.173 18.7903 103.075 18.7679 102.985 18.7155L101.07 17.4587L98.2758 21.708C98.0655 22.0222 97.9829 22.3289 98.0204 22.6207C98.058 22.9124 98.2007 23.1443 98.4411 23.3015C99.0194 23.683 99.5602 23.683 100.056 23.3089C100.251 23.2341 100.409 23.2566 100.544 23.3837C100.679 23.5109 100.694 23.6456 100.589 23.8027C100.176 24.4311 99.5827 24.8351 98.8016 25.0072C98.043 25.1942 97.2543 25.0221 96.4656 24.5059Z" fill="#EF4123"/>
<path d="M99.8907 26.7052C99.6653 26.5182 99.6203 26.3461 99.763 26.1741L99.8155 26.1142C99.8982 26.017 100.124 25.9422 100.492 25.8898C100.86 25.8374 101.145 25.6953 101.34 25.4559L104.142 22.0594C104.352 21.8126 104.442 21.4909 104.435 21.1093C104.42 20.7278 104.45 20.4959 104.518 20.4211L104.555 20.3762C104.638 20.2789 104.833 20.2565 105.141 20.3238L107.837 20.9672C108.1 21.042 108.258 21.1617 108.318 21.3188C108.378 21.4759 108.348 21.633 108.221 21.7826L103.646 27.3262C103.443 27.5656 103.368 27.8798 103.413 28.2688C103.458 28.6578 103.436 28.8972 103.353 29.002L103.301 29.0618C103.158 29.2339 102.97 29.2189 102.737 29.0244L99.8907 26.7052ZM109.52 20.0919C109.047 20.1143 108.581 19.9423 108.13 19.5682C107.68 19.1942 107.409 18.7752 107.334 18.2964C107.252 17.8176 107.372 17.3837 107.695 16.9947C108.01 16.6132 108.408 16.4187 108.897 16.4037C109.385 16.3887 109.85 16.5683 110.301 16.9349C110.752 17.3089 111.015 17.7204 111.082 18.1917C111.15 18.663 111.03 19.0819 110.714 19.4635C110.391 19.86 109.993 20.0695 109.52 20.0919Z" fill="#EF4123"/>
<path d="M107.049 33.5056C106.035 32.4358 105.539 31.2164 105.569 29.8548C105.599 28.4858 106.102 27.3486 107.071 26.4284C108.13 25.4335 109.317 24.9846 110.632 25.0818C111.946 25.1791 113.088 25.7327 114.057 26.7352C114.853 27.5581 115.334 28.4409 115.499 29.3835C115.664 30.3261 115.469 31.0668 114.913 31.5904C114.703 31.7849 114.462 31.8747 114.192 31.8598C113.914 31.8448 113.636 31.6802 113.358 31.3585C113.148 31.1191 113.035 30.8423 113.02 30.5281C113.005 30.2139 113.05 29.9072 113.14 29.6079C113.23 29.3087 113.328 29.0094 113.411 28.7102C113.501 28.4109 113.531 28.1042 113.501 27.805C113.471 27.5057 113.351 27.2364 113.133 27.0045C112.75 26.6005 112.262 26.4434 111.668 26.5407C111.075 26.6304 110.511 26.9372 109.971 27.4384C109.024 28.3287 108.483 29.2638 108.341 30.2513C108.198 31.2313 108.476 32.0917 109.182 32.8398C109.903 33.6029 110.782 33.8647 111.818 33.6403C111.946 33.6253 112.059 33.6552 112.156 33.7226C112.247 33.7899 112.299 33.8797 112.307 33.9919C112.314 34.1041 112.269 34.2014 112.164 34.2762C111.488 34.8223 110.669 35.0542 109.73 34.9719C108.776 34.8821 107.89 34.3959 107.049 33.5056Z" fill="#EF4123"/>
<path d="M110.662 37.4033C110.489 37.1714 110.489 36.9844 110.669 36.8572L110.729 36.8123C110.834 36.7375 111.075 36.715 111.443 36.7599C111.811 36.8048 112.126 36.73 112.374 36.5505L115.934 33.9545C116.197 33.76 116.37 33.4832 116.453 33.1091C116.535 32.7351 116.618 32.5181 116.701 32.4583L116.746 32.4209C116.851 32.346 117.046 32.376 117.324 32.5181L119.773 33.8124C120.006 33.9545 120.133 34.1116 120.148 34.2762C120.171 34.4408 120.096 34.5829 119.938 34.7026L114.124 38.9444C113.869 39.1315 113.719 39.4157 113.659 39.7973C113.606 40.1788 113.523 40.4107 113.418 40.493L113.358 40.5379C113.178 40.6651 112.998 40.6127 112.817 40.3658L110.662 37.4033ZM121.635 33.3785C121.17 33.2812 120.764 32.9969 120.419 32.5331C120.073 32.0618 119.923 31.5905 119.96 31.1042C119.998 30.6254 120.231 30.2289 120.636 29.9371C121.035 29.6454 121.47 29.5556 121.943 29.6603C122.417 29.7651 122.822 30.0568 123.175 30.5281C123.528 30.9994 123.671 31.4708 123.618 31.9421C123.566 32.4134 123.348 32.7949 122.95 33.0867C122.537 33.371 122.101 33.4682 121.635 33.3785Z" fill="#EF4123"/>
<path d="M124.933 41.9519C125.526 43.0516 125.669 44.2037 125.369 45.4232C125.068 46.6426 124.272 47.5927 122.987 48.281C121.688 48.9767 120.411 49.1488 119.149 48.7897C117.887 48.4306 116.949 47.6974 116.348 46.5827C115.904 45.7673 115.762 44.9668 115.912 44.1738L113.351 45.5503C113.073 45.7 112.885 45.9618 112.772 46.3359C112.667 46.7099 112.554 46.9269 112.434 46.9867L112.367 47.0241C112.171 47.1289 112.006 47.0466 111.856 46.7772L110.143 43.6127C110.001 43.3434 110.023 43.1564 110.219 43.0516L110.286 43.0142C110.399 42.9544 110.639 42.9693 111.007 43.0666C111.375 43.1638 111.691 43.1414 111.969 42.9918L119.705 38.8397C119.953 38.7051 120.118 38.4432 120.186 38.0617C120.253 37.6802 120.351 37.4557 120.479 37.3884L120.561 37.3435C120.719 37.2537 120.922 37.2986 121.162 37.4707L123.168 38.922C123.626 39.2512 123.641 39.528 123.22 39.7524L122.492 40.1265C123.506 40.2088 124.317 40.8148 124.933 41.9519ZM116.941 45.9169C117.241 46.478 117.707 46.7922 118.331 46.8521C118.954 46.9119 119.698 46.7174 120.561 46.2536C121.733 45.6251 122.664 44.877 123.356 44.0092C124.047 43.1414 124.219 42.3783 123.866 41.7275C123.671 41.3684 123.371 41.1215 122.965 40.9868C122.559 40.8596 122.139 40.8821 121.703 41.0542L118.421 42.8197C117.752 43.1788 117.279 43.6651 116.994 44.286C116.701 44.907 116.686 45.4531 116.941 45.9169Z" fill="#EF4123"/>
<path d="M123.626 59.1959C123.355 59.3231 123.145 59.4727 123.01 59.6373C122.875 59.8019 122.8 59.944 122.792 60.0712C122.785 60.1984 122.762 60.3181 122.732 60.4228C122.702 60.535 122.627 60.6024 122.514 60.6398C122.154 60.7595 121.778 60.2133 121.38 59.0014C121.2 58.4478 121.14 58.0214 121.192 57.7146C121.252 57.4079 121.463 57.1685 121.831 56.9964C120.952 56.7421 120.313 56.0164 119.93 54.8344C119.585 53.7795 119.54 52.8444 119.81 52.029C120.081 51.2135 120.659 50.6599 121.568 50.3681C122.454 50.0689 123.25 50.1587 123.964 50.6524C124.677 51.1462 125.188 51.8868 125.511 52.8668C125.782 53.6972 125.827 54.4454 125.631 55.1112L125.849 55.0214C126.983 54.5127 127.757 54.0638 128.163 53.6823C128.568 53.3008 128.688 52.8369 128.508 52.2908C128.395 51.9541 128.178 51.7147 127.862 51.5801C127.547 51.4454 127.224 51.3856 126.893 51.3931C126.563 51.4005 126.247 51.3482 125.932 51.2285C125.616 51.1088 125.406 50.8918 125.308 50.5776C125.196 50.241 125.203 49.9342 125.323 49.6649C125.444 49.3956 125.661 49.2086 125.969 49.1113C126.615 48.9018 127.239 49.0814 127.855 49.6574C128.471 50.2335 128.944 51.0265 129.274 52.0514C129.672 53.2708 129.665 54.3855 129.244 55.388C128.816 56.3905 128.042 57.1535 126.908 57.6697L123.626 59.1959ZM121.02 55.403C121.155 55.8144 121.433 56.0987 121.861 56.2408C122.281 56.383 122.71 56.368 123.13 56.2034L123.761 55.9341C124.279 55.7097 124.632 55.4179 124.828 55.0513C125.023 54.6848 125.053 54.3032 124.925 53.8992C124.79 53.4953 124.542 53.211 124.174 53.0464C123.806 52.8818 123.386 52.8743 122.912 53.024C122.244 53.2409 121.726 53.5776 121.35 54.0264C120.982 54.4753 120.869 54.9391 121.02 55.403Z" fill="#EF4123"/>
<path d="M125.406 70.9189C125.098 70.9863 124.828 71.1509 124.587 71.4127C124.347 71.6745 124.152 71.8092 124.016 71.8316L123.941 71.8391C123.724 71.869 123.588 71.7344 123.551 71.4277L123.085 68.0237C123.048 67.7245 123.13 67.5599 123.355 67.5225L123.431 67.515C123.558 67.5001 123.776 67.5898 124.084 67.7993C124.392 68.0013 124.7 68.0836 125.023 68.0237L128.576 67.343C130.514 66.9839 131.407 66.2806 131.265 65.2333C131.19 64.7096 130.942 64.328 130.514 64.0812C130.085 63.8343 129.552 63.7595 128.906 63.8493L124.512 64.4477C124.204 64.4926 123.934 64.6722 123.701 64.9864C123.468 65.3006 123.288 65.4727 123.16 65.4876L123.085 65.4951C122.867 65.525 122.74 65.3904 122.695 65.0836L122.191 61.4179C122.146 61.1186 122.236 60.9466 122.462 60.9241L122.537 60.9166C122.664 60.9017 122.882 61.0139 123.198 61.2608C123.506 61.5077 123.814 61.6049 124.129 61.5675L128.636 60.954C128.831 60.9241 128.996 60.8568 129.139 60.7371C129.282 60.6174 129.379 60.4902 129.432 60.3556C129.485 60.2209 129.56 60.1012 129.65 59.9815C129.74 59.8618 129.838 59.8094 129.935 59.7945L130.01 59.787C130.153 59.7645 130.303 59.8768 130.469 60.1236L131.911 62.3156C132.046 62.5251 132.076 62.6897 132.008 62.8169C131.941 62.944 131.806 63.0114 131.595 63.0413L130.514 63.1909C131.64 63.6173 132.294 64.5151 132.482 65.8916C132.617 66.8866 132.406 67.7843 131.843 68.5773C131.28 69.3703 130.288 69.9165 128.876 70.2157L125.406 70.9189Z" fill="#EF4123"/>
<path d="M123.19 76.2678C123.205 75.3402 123.513 74.6145 124.107 74.0908C124.7 73.5671 125.541 73.3128 126.63 73.3352L131.693 73.44L131.708 72.5048C131.715 72.2355 131.851 72.1083 132.106 72.1158L132.436 72.1233C132.707 72.1308 132.842 72.2654 132.842 72.5273L132.835 73.0285C132.827 73.5746 132.992 74.0385 133.338 74.42C133.683 74.8015 134.149 75.0559 134.727 75.1756C135.043 75.2504 135.193 75.4 135.186 75.6394L135.178 76.0359C135.171 76.3277 135.013 76.4698 134.697 76.4623L132.759 76.4399L132.714 78.7291C132.714 78.8339 132.669 78.9236 132.594 79.0059C132.512 79.0808 132.414 79.1182 132.301 79.1182L131.971 79.1107C131.851 79.1107 131.76 79.0658 131.693 78.9835C131.625 78.9012 131.588 78.8114 131.595 78.7067L131.64 76.4249L126.54 76.3202C126.165 76.3127 125.857 76.4025 125.624 76.5895C125.391 76.7766 125.271 77.016 125.271 77.3077C125.256 77.996 125.541 78.4523 126.12 78.6768C126.285 78.7965 126.352 78.9536 126.315 79.1256C126.277 79.3052 126.172 79.3875 125.984 79.3875C125.226 79.3725 124.572 79.0808 124.009 78.5197C123.446 77.9586 123.175 77.203 123.19 76.2678Z" fill="#EF4123"/>
<path d="M122.492 83.8614C122.687 82.627 123.063 81.6545 123.626 80.9437C124.189 80.2256 124.775 79.9188 125.391 80.0161C125.737 80.0684 125.984 80.2181 126.135 80.465C126.277 80.7118 126.322 81.0111 126.27 81.3627C126.21 81.7442 126.029 82.0285 125.729 82.223C125.429 82.4175 125.106 82.5372 124.775 82.5896C124.437 82.6345 124.114 82.7766 123.806 83.0011C123.498 83.2255 123.31 83.5547 123.243 83.9886C123.175 84.4075 123.235 84.7666 123.408 85.0733C123.588 85.3726 123.881 85.5596 124.287 85.6269C124.753 85.7018 125.143 85.5671 125.474 85.2379C125.804 84.9088 126.075 84.4823 126.3 83.9661C126.518 83.4499 126.758 82.9412 127.013 82.425C127.276 81.9163 127.644 81.5123 128.133 81.2056C128.621 80.8989 129.214 80.8016 129.913 80.9138C130.731 81.041 131.355 81.5198 131.775 82.3427C132.189 83.1656 132.309 84.1681 132.121 85.3427C131.933 86.5322 131.55 87.4673 130.979 88.1481C130.401 88.8289 129.8 89.1206 129.169 89.0234C128.884 88.9785 128.666 88.8364 128.508 88.5895C128.35 88.3426 128.298 88.0658 128.343 87.7516C128.403 87.385 128.576 87.1082 128.876 86.9287C129.177 86.7491 129.492 86.6369 129.815 86.592C130.146 86.5471 130.461 86.4349 130.761 86.2404C131.062 86.0459 131.242 85.7616 131.302 85.3801C131.362 84.9985 131.287 84.6768 131.069 84.4C130.852 84.1232 130.566 83.9586 130.206 83.9063C129.845 83.8464 129.53 83.8988 129.252 84.0559C128.974 84.213 128.748 84.4374 128.568 84.7367C128.388 85.0285 128.215 85.3576 128.05 85.7242C127.877 86.0833 127.697 86.4499 127.502 86.8164C127.306 87.183 127.089 87.5047 126.841 87.789C126.6 88.0733 126.285 88.2828 125.902 88.4249C125.519 88.567 125.076 88.597 124.572 88.5147C123.776 88.3875 123.175 87.9087 122.777 87.0633C122.394 86.203 122.289 85.1407 122.492 83.8614Z" fill="#EF4123"/>
</svg>
