<svg width="89" height="130" viewBox="0 0 89 130" fill="none" xmlns="http://www.w3.org/2000/svg">
<path d="M44.4797 121.165C45.1181 119.953 45.9443 119.152 46.9659 118.748C47.9874 118.344 49.0164 118.397 50.0529 118.905C51.1496 119.444 51.8556 120.334 52.1711 121.584C52.4865 122.833 52.2912 124.172 51.5777 125.609C50.8641 127.06 50.0604 128.047 49.1816 128.579C48.2953 129.11 47.5367 129.214 46.9058 128.908C46.5077 128.713 46.2448 128.451 46.1096 128.122C45.9744 127.793 45.9969 127.441 46.1847 127.075C46.3274 126.791 46.5452 126.581 46.8382 126.454C47.1311 126.327 47.4466 126.252 47.7846 126.229C48.1226 126.207 48.4606 126.185 48.8061 126.162C49.1516 126.14 49.4821 126.042 49.7976 125.87C50.113 125.698 50.3534 125.444 50.5261 125.1C50.8266 124.494 50.8341 123.895 50.5637 123.304C50.2933 122.713 49.7975 122.242 49.084 121.898C48.2578 121.494 47.4991 121.382 46.8231 121.554C46.1471 121.733 45.6439 122.16 45.3059 122.841L45.1632 123.125C45.0355 123.387 44.8477 123.514 44.6074 123.506C44.367 123.499 44.1792 123.364 44.044 123.11L42.031 118.89L39.3946 124.239C39.2219 124.599 38.959 124.696 38.621 124.524L37.3441 123.895C37.0286 123.738 36.9535 123.491 37.1263 123.147L40.987 115.314C41.1297 115.03 41.3175 114.948 41.5654 115.068L41.7907 115.18C41.9935 115.277 42.1737 115.531 42.354 115.943L44.4797 121.165Z" fill="#EF4123"/>
<path d="M50.4886 112.688C50.4135 112.838 50.3158 112.89 50.2031 112.831L50.1731 112.816C50.1055 112.786 50.0304 112.629 49.9553 112.359C49.8801 112.09 49.76 111.918 49.5872 111.828L45.1406 109.651C44.9979 109.584 44.8702 109.569 44.75 109.606C44.6374 109.644 44.5472 109.703 44.4871 109.778C44.4271 109.861 44.3595 109.92 44.2768 109.98C44.1942 110.033 44.1191 110.048 44.044 110.01L43.9914 109.988C43.8862 109.935 43.8412 109.801 43.8562 109.569L43.9463 107.811C43.9764 107.549 44.044 107.369 44.1717 107.265C44.2994 107.16 44.4195 107.145 44.5623 107.212C44.6374 107.25 44.7275 107.347 44.8402 107.496C44.9528 107.646 45.1106 107.773 45.3134 107.878L50.3308 110.332C50.436 110.384 50.5486 110.399 50.6688 110.377C50.789 110.362 50.8941 110.324 50.9843 110.279C51.0744 110.235 51.1646 110.19 51.2622 110.16C51.3599 110.13 51.435 110.13 51.4875 110.152L51.5176 110.167C51.6303 110.227 51.6528 110.324 51.5852 110.474L50.4886 112.688Z" fill="#EF4123"/>
<path d="M59.7649 112.816C59.6447 113.063 59.4644 113.085 59.2391 112.868L46.4626 101.085C46.3199 100.973 46.2974 100.801 46.41 100.569L46.8382 99.6937C46.9584 99.4468 47.1386 99.4318 47.379 99.6488L60.163 111.364C60.2982 111.506 60.3132 111.679 60.208 111.895L59.7649 112.816Z" fill="#EF4123"/>
<path d="M62.0783 99.3272C62.1083 99.2599 62.1534 99.2225 62.2135 99.2075C62.2736 99.1925 62.3262 99.2075 62.3787 99.2524L63.603 100.217C63.7307 100.337 63.7608 100.457 63.7007 100.569L61.4323 105.17C61.4023 105.23 61.3572 105.275 61.2896 105.305C61.222 105.335 61.1619 105.335 61.1018 105.305L60.9892 105.245C60.6136 105.065 60.3057 104.759 60.0578 104.34C59.8099 103.921 59.6146 103.464 59.4869 102.978C59.3517 102.492 59.224 102.005 59.1039 101.519C58.9762 101.033 58.811 100.592 58.6082 100.195C58.3978 99.7985 58.1425 99.5217 57.827 99.3646C57.4815 99.1925 57.151 99.1477 56.8505 99.2225C56.5501 99.2973 56.3398 99.4544 56.2271 99.6938C56.1145 99.9182 56.1145 100.15 56.2271 100.397C56.3398 100.644 56.4825 100.853 56.6703 101.025C56.858 101.205 57.0083 101.414 57.1134 101.654C57.2261 101.901 57.2261 102.133 57.1134 102.357C57.0083 102.567 56.8656 102.709 56.6703 102.791C56.4825 102.866 56.2797 102.858 56.0694 102.754C55.6337 102.537 55.3633 102.11 55.2657 101.459C55.168 100.808 55.2882 100.128 55.6413 99.4245C56.0093 98.6763 56.46 98.1601 56.9857 97.8684C57.519 97.5766 58.0899 97.5841 58.7133 97.8908C58.9837 98.0255 59.209 98.2125 59.3893 98.4519C59.5696 98.6913 59.7048 98.9531 59.8024 99.2449C59.8926 99.5367 59.9677 99.8434 60.0277 100.173C60.0878 100.502 60.1329 100.831 60.1705 101.168C60.208 101.504 60.2531 101.826 60.3057 102.125C60.3582 102.424 60.4333 102.709 60.5385 102.963C60.6437 103.225 60.7789 103.427 60.9441 103.584L62.3036 100.823C62.3787 100.666 62.4088 100.509 62.3863 100.352C62.3637 100.195 62.3111 100.068 62.236 99.9706C62.1609 99.8733 62.1008 99.7761 62.0482 99.6713C61.9957 99.5666 61.9881 99.4918 62.0182 99.4319L62.0783 99.3272Z" fill="#EF4123"/>
<path d="M69.0261 85.4497C69.319 85.5619 69.6345 85.5769 69.98 85.4946C70.3255 85.4123 70.5658 85.4048 70.6935 85.4646L70.7611 85.502C70.9639 85.5993 70.994 85.7789 70.8663 86.0407L69.334 89.1454C69.2063 89.4072 69.0411 89.4895 68.8458 89.3922L68.7782 89.3548C68.6655 89.295 68.5303 89.1005 68.3951 88.7564C68.2599 88.4197 68.0496 88.1803 67.7567 88.0606L64.3015 86.5943C62.574 85.8537 61.4774 85.9584 61.0117 86.9085C60.7788 87.3873 60.7713 87.8436 60.9891 88.2776C61.207 88.7189 61.6126 89.078 62.1909 89.3623L66.1718 91.3074C66.4422 91.4421 66.7577 91.4346 67.1332 91.2999C67.5013 91.1653 67.7492 91.1279 67.8693 91.1802L67.9369 91.2102C68.1397 91.3074 68.1623 91.5019 68.0271 91.7862L66.3972 95.0854C66.262 95.3622 66.0967 95.4445 65.8939 95.3472L65.8263 95.3173C65.7136 95.2575 65.5935 95.048 65.4658 94.6739C65.3456 94.3074 65.1503 94.053 64.8799 93.9258L56.1519 89.6541C55.874 89.5194 55.5586 89.5269 55.198 89.684C54.845 89.8411 54.6047 89.8935 54.492 89.8336L54.4394 89.8112C54.2667 89.7214 54.1765 89.5344 54.1765 89.2426L54.3192 86.3923C54.3418 86.1529 54.4019 85.9883 54.5145 85.8985C54.6272 85.8163 54.7774 85.8163 54.9502 85.8985L60.2005 88.487C59.8249 87.6043 59.8775 86.6691 60.3732 85.6666C60.8164 84.7614 61.4849 84.1405 62.3712 83.7889C63.265 83.4447 64.3466 83.527 65.6235 84.0507L69.0261 85.4497Z" fill="#EF4123"/>
<path d="M74.0661 79.9883C73.3676 81.4023 72.3611 82.3598 71.0466 82.8611C69.7322 83.3623 68.4553 83.31 67.216 82.704C65.9616 82.0905 65.1504 81.1329 64.7823 79.8312C64.4068 78.5295 64.5345 77.2427 65.1654 75.9635C65.8414 74.5944 66.8254 73.6593 68.1248 73.158C69.4242 72.6568 70.7011 72.7092 71.948 73.3226C73.1948 73.9361 74.021 74.8712 74.4191 76.1355C74.8247 77.4073 74.7046 78.6866 74.0661 79.9883ZM73.4577 79.2851C73.6981 78.7988 73.6605 78.3125 73.3525 77.8263C73.0446 77.34 72.4813 76.8986 71.6776 76.5096C71.0091 76.1804 70.273 75.9485 69.4693 75.7989C68.6656 75.6493 67.907 75.6418 67.1934 75.7839C66.4799 75.9186 66.0066 76.2328 65.7738 76.7041C65.233 77.7963 65.8189 78.7614 67.5239 79.5993C68.1548 79.906 68.8684 80.1379 69.6646 80.2801C70.4608 80.4297 71.2344 80.4297 71.9705 80.2801C72.7066 80.1305 73.2023 79.8013 73.4577 79.2851Z" fill="#EF4123"/>
<path d="M79.1886 64.6445C79.5041 64.8016 79.7594 64.8689 79.9623 64.854C80.1651 64.839 80.3003 64.7866 80.3679 64.6894C80.4355 64.5921 80.5256 64.5098 80.6307 64.45C80.7359 64.3901 80.8561 64.3901 80.9913 64.465C81.3293 64.6295 81.2391 65.243 80.7134 66.2978C80.458 66.8215 80.1801 67.1731 79.8871 67.3452C79.5942 67.5173 79.2262 67.5173 78.7905 67.3302C79.3538 68.228 79.3313 69.2828 78.7229 70.5097C78.2497 71.4748 77.5362 72.1107 76.5898 72.4249C75.6433 72.7391 74.5918 72.6119 73.4351 72.0434L70.4757 70.592C70.1827 70.4499 69.8522 70.4349 69.4842 70.5397C69.1161 70.6519 68.8908 70.6818 68.7932 70.6369L68.7406 70.6145C68.5303 70.5097 68.4702 70.3302 68.5603 70.0609L69.334 67.6519C69.5143 67.1357 69.7396 66.9412 70.01 67.0759L74.9824 69.5746C76.5747 70.3526 77.6113 70.2479 78.0995 69.2604C78.3173 68.819 78.3098 68.3626 78.0694 67.8838C77.8291 67.4051 77.4085 67.016 76.8076 66.7243L73.2473 64.9812C72.9543 64.839 72.6239 64.8241 72.2558 64.9363C71.8878 65.0485 71.6549 65.0859 71.5648 65.041L71.5122 65.0186C71.3019 64.9138 71.2343 64.7343 71.3169 64.4799L72.1056 62.0336C72.2784 61.5623 72.4962 61.3827 72.7591 61.5099L79.1886 64.6445Z" fill="#EF4123"/>
<path d="M75.9739 54.0437C76.2218 53.535 76.5748 53.2059 77.0179 53.0562C77.4611 52.9066 77.9118 52.9515 78.3775 53.1834C79.3013 53.6323 79.5792 54.2383 79.2037 55.0013C79.0535 55.3081 78.8507 55.5101 78.6103 55.6073C78.3699 55.7046 78.1446 55.7195 77.9418 55.6672C77.739 55.6148 77.5287 55.5998 77.3184 55.6298C77.1081 55.6597 76.9504 55.7794 76.8452 55.9963C76.6875 56.318 76.7551 56.6472 77.0555 56.9838C77.356 57.3205 77.7691 57.6197 78.3099 57.8816L81.8176 59.5948C82.0279 59.6995 82.2457 59.7145 82.4785 59.6396C82.7114 59.5723 82.9217 59.49 83.1095 59.3928C83.2973 59.303 83.455 59.288 83.5676 59.3404L83.6352 59.3703C83.8305 59.4676 83.8681 59.6471 83.7404 59.909L82.1105 63.2082C81.9753 63.485 81.8101 63.5672 81.6073 63.47L81.5397 63.4326C81.4195 63.3727 81.2993 63.1708 81.1641 62.8191C81.0364 62.4675 80.8336 62.2281 80.5632 62.0935L76.4621 60.0885C76.1767 59.9539 75.8612 59.9613 75.5082 60.1334C75.1477 60.298 74.9148 60.3504 74.7947 60.298L74.7271 60.2606C74.5618 60.1783 74.4867 59.9838 74.4867 59.6771L74.5618 57.0586C74.5768 56.5948 74.7796 56.4602 75.1927 56.6621L76.5072 57.3055C75.5608 56.3479 75.3805 55.2557 75.9739 54.0437Z" fill="#EF4123"/>
<path d="M87.6688 52.3455C87.1205 53.4677 86.467 54.2831 85.7159 54.7993C84.9648 55.323 84.3113 55.4427 83.748 55.1659C83.4325 55.0088 83.2447 54.7993 83.1771 54.5225C83.1095 54.2457 83.1546 53.9465 83.3123 53.6248C83.4851 53.2807 83.7405 53.0562 84.086 52.959C84.4315 52.8617 84.7695 52.8393 85.1075 52.8916C85.4455 52.944 85.791 52.9066 86.1515 52.7794C86.5121 52.6523 86.79 52.3904 86.9853 52.0014C87.1731 51.6199 87.2257 51.2608 87.1505 50.9166C87.0754 50.5725 86.8426 50.3106 86.4745 50.1311C86.0539 49.9291 85.6333 49.9291 85.2277 50.1535C84.8146 50.3705 84.424 50.6922 84.0634 51.1261C83.7029 51.5525 83.3198 51.9715 82.9218 52.3829C82.5237 52.7944 82.0429 53.0712 81.4871 53.2208C80.9313 53.3704 80.3304 53.2881 79.6995 52.9814C78.9483 52.6148 78.4977 51.9789 78.3475 51.0662C78.1972 50.1535 78.3775 49.166 78.9108 48.0962C79.4441 47.0115 80.09 46.2334 80.8411 45.7546C81.5923 45.2758 82.2533 45.1711 82.8316 45.4554C83.087 45.5826 83.2597 45.7845 83.3349 46.0688C83.41 46.3531 83.3799 46.6374 83.2447 46.9217C83.0795 47.2583 82.8316 47.4603 82.4861 47.5501C82.1481 47.6399 81.8176 47.6474 81.4871 47.595C81.1566 47.5351 80.8261 47.5576 80.4806 47.6548C80.1351 47.7521 79.8797 47.969 79.707 48.3132C79.5342 48.6573 79.5117 48.994 79.6394 49.3157C79.7671 49.6373 79.9849 49.8842 80.3154 50.0413C80.6459 50.1984 80.9613 50.2433 81.2693 50.176C81.5772 50.1087 81.8627 49.959 82.1181 49.7271C82.3734 49.4952 82.6363 49.2334 82.9067 48.9416C83.1771 48.6423 83.455 48.3506 83.7555 48.0588C84.0484 47.7671 84.3564 47.5202 84.6718 47.3257C84.9873 47.1237 85.3479 47.0189 85.761 46.9965C86.1741 46.9741 86.6022 47.0788 87.0604 47.3032C87.7815 47.6548 88.2171 48.2982 88.3448 49.2184C88.465 50.1311 88.2472 51.1785 87.6688 52.3455Z" fill="#EF4123"/>
<path d="M37.021 64.3305L6.40564 54.5152C3.37114 53.5427 1.70365 50.3033 2.6801 47.2884L12.024 21.254C13.0004 18.2316 16.2527 16.5708 19.2797 17.5434L48.7835 27.9272C51.818 28.8998 53.4855 32.1391 52.509 35.154L44.2768 60.6198C43.3004 63.6422 40.0555 65.303 37.021 64.3305Z" stroke="#EF4123" stroke-width="3.5256" stroke-miterlimit="10" stroke-linecap="round" stroke-linejoin="round"/>
<path d="M49.2191 26.6778L50.6988 7.75792L27.7373 1.31665L19.813 17.2515" stroke="#EF4123" stroke-width="3.5256" stroke-miterlimit="10" stroke-linecap="round" stroke-linejoin="round"/>
<path d="M7.3671 55.7495L5.8949 74.6694L27.174 80.5645L36.7807 65.1758" stroke="#EF4123" stroke-width="3.5256" stroke-miterlimit="10" stroke-linecap="round" stroke-linejoin="round"/>
<path d="M25.7092 6.47852L50.188 14.3262" stroke="#EF4123" stroke-width="3.5256" stroke-miterlimit="10" stroke-linecap="round" stroke-linejoin="round"/>
<path d="M23.8164 12.3438L48.2952 20.184" stroke="#EF4123" stroke-width="3.5256" stroke-miterlimit="10" stroke-linecap="round" stroke-linejoin="round"/>
<path d="M30.4413 75.4248L6.81122 67.8464" stroke="#EF4123" stroke-width="3.5256" stroke-miterlimit="10" stroke-linecap="round" stroke-linejoin="round"/>
<path d="M32.3341 69.5672L7.86279 61.7195" stroke="#EF4123" stroke-width="3.5256" stroke-miterlimit="10" stroke-linecap="round" stroke-linejoin="round"/>
<path d="M17.9577 28.3909L18.6112 28.6003L17.4395 32.2212L16.786 32.0117L17.9577 28.3909Z" fill="#EF4123"/>
<path d="M20.4815 29.8422L19.3398 29.4756L19.5276 28.8921L22.457 29.8347L22.2692 30.4182L21.1275 30.0517L20.1435 33.0965L19.4901 32.887L20.4815 29.8422Z" fill="#EF4123"/>
<path d="M23.6963 30.2312L24.4173 30.4631L23.2907 31.705L22.8776 31.5703L23.6963 30.2312Z" fill="#EF4123"/>
<path d="M24.222 33.2686L24.9205 33.3135C24.8229 33.7774 25.0783 34.0841 25.4613 34.2113C25.8519 34.3384 26.1298 34.1963 26.2125 33.9419C26.4528 33.1938 24.6126 32.8796 24.9957 31.6976C25.206 31.0542 25.8444 30.8672 26.4528 31.0617C26.9035 31.2038 27.249 31.533 27.3541 32.0492L26.7007 32.2063C26.6556 31.922 26.4828 31.7051 26.2425 31.6303C25.9871 31.548 25.7317 31.6378 25.6566 31.8697C25.4388 32.5505 27.2715 32.8871 26.8809 34.0916C26.6631 34.7798 25.9571 35.0043 25.2661 34.7798C24.6276 34.5778 24.1094 34.0242 24.222 33.2686Z" fill="#EF4123"/>
<path d="M30.952 33.2013L29.8103 32.8347L29.9981 32.2512L32.9274 33.1938L32.7397 33.7774L31.6055 33.4108L30.6215 36.4556L29.9681 36.2462L30.952 33.2013Z" fill="#EF4123"/>
<path d="M33.8589 33.4929L34.5123 33.7024L33.3406 37.3233L32.6871 37.1138L33.8589 33.4929Z" fill="#EF4123"/>
<path d="M39.5448 35.3109L38.3731 38.9318L37.7422 38.7298L38.6134 36.0216L36.9385 38.1238L36.3075 37.9219L36.1798 35.2436L35.3085 37.9518L34.6776 37.7498L35.8493 34.1289L36.7282 34.4132L36.8633 37.3009L38.666 35.0341L39.5448 35.3109Z" fill="#EF4123"/>
<path d="M40.8817 35.7449L43.3003 36.5229L43.105 37.1214L41.3399 36.5528L41.047 37.4655L42.6919 37.9967L42.4966 38.5952L40.8517 38.064L40.5587 38.9618L42.3239 39.5303L42.1286 40.1438L39.71 39.3658L40.8817 35.7449Z" fill="#EF4123"/>
<path d="M15.6518 35.5354L18.2281 36.3658L18.0329 36.9643L16.11 36.3434L15.8171 37.2561L17.5146 37.8022L17.3193 38.4007L15.6218 37.8546L15.1336 39.3658L14.4801 39.1563L15.6518 35.5354Z" fill="#EF4123"/>
<path d="M18.3634 38.4006C18.6789 37.4131 19.5201 36.7173 20.7219 37.0989C21.9237 37.4879 22.1941 38.5353 21.8786 39.5302C21.5556 40.5178 20.7219 41.2135 19.5201 40.832C18.3108 40.4429 18.0404 39.3881 18.3634 38.4006ZM21.1876 39.3058C21.4054 38.625 21.3153 37.9293 20.5341 37.6824C19.753 37.4355 19.2723 37.9442 19.0544 38.625C18.8366 39.3133 18.9267 40.0016 19.7004 40.2559C20.4815 40.5028 20.9623 39.9941 21.1876 39.3058Z" fill="#EF4123"/>
<path d="M23.546 38.064L24.7253 38.438C25.4088 38.655 25.8595 39.231 25.6417 39.9118C25.4914 40.3682 25.0858 40.615 24.6276 40.63L25.1159 42.5676L24.3647 42.3282L23.9666 40.4879L23.7563 40.4205L23.531 40.3457L23.0277 41.8943L22.3743 41.6848L23.546 38.064ZM24.2821 40.0091C24.6352 40.1063 24.8981 39.9941 24.9882 39.7173C25.0858 39.4181 24.9131 39.1487 24.5375 39.029L24.0117 38.8644L23.7038 39.8295L24.2821 40.0091Z" fill="#EF4123"/>
<path d="M29.9005 40.1064L30.3887 40.2635L30.6666 44.3483L29.9605 44.1238L29.923 43.241L28.5259 42.7922L27.9776 43.4879L27.264 43.256L29.9005 40.1064ZM29.9005 42.6201L29.8404 41.1388L28.924 42.3059L29.9005 42.6201Z" fill="#EF4123"/>
<path d="M13.3384 42.6724L14.4801 43.0389C15.2237 43.2783 15.6368 43.8394 15.419 44.5202C15.2012 45.201 14.5402 45.3955 13.7966 45.1561L13.3084 44.999L12.8201 46.5027L12.1742 46.2932L13.3384 42.6724ZM13.9919 44.5576C14.4425 44.6998 14.6754 44.61 14.773 44.3182C14.8707 44.0265 14.728 43.7945 14.2848 43.6524L13.7891 43.4953L13.4962 44.4005L13.9919 44.5576Z" fill="#EF4123"/>
<path d="M15.9072 45.4929C16.2227 44.5054 17.0639 43.8096 18.2657 44.1912C19.4675 44.5727 19.7379 45.6275 19.4224 46.6151C19.107 47.6026 18.2657 48.2983 17.0639 47.9168C15.8546 47.5352 15.5842 46.4879 15.9072 45.4929ZM18.7314 46.3981C18.9492 45.7173 18.8591 45.0216 18.0779 44.7747C17.2968 44.5278 16.8161 45.0365 16.5982 45.7173C16.3804 46.4056 16.4706 47.0938 17.2442 47.3482C18.0178 47.6026 18.5061 47.0864 18.7314 46.3981Z" fill="#EF4123"/>
<path d="M21.09 45.156L21.7434 45.3655L20.7745 48.3729L22.3293 48.8741L22.1265 49.4876L19.9182 48.7769L21.09 45.156Z" fill="#EF4123"/>
<path d="M24.222 46.166L25.3637 46.5326C26.1073 46.772 26.5204 47.3331 26.3026 48.0139C26.0848 48.6946 25.4163 48.8892 24.6802 48.6498L24.1845 48.4927L23.6963 49.9964L23.0503 49.7869L24.222 46.166ZM24.8755 48.0438C25.3262 48.1859 25.559 48.0962 25.6567 47.8044C25.7543 47.5126 25.6116 47.2807 25.1684 47.1386L24.6727 46.9815L24.3798 47.8867L24.8755 48.0438Z" fill="#EF4123"/>
<path d="M27.6846 47.2732L30.1032 48.0512L29.9079 48.6497L28.1428 48.0812L27.8499 48.9939L29.4948 49.525L29.2995 50.1235L27.6546 49.5924L27.3616 50.4901L29.1267 51.0587L28.9239 51.6721L26.5054 50.8941L27.6846 47.2732Z" fill="#EF4123"/>
<path d="M31.891 49.2633L30.7493 48.8968L30.937 48.3132L33.8664 49.2559L33.6786 49.8394L32.5369 49.4728L31.553 52.5176L30.8995 52.3082L31.891 49.2633Z" fill="#EF4123"/>
<path d="M35.4361 50.4003L34.2944 50.0337L34.4822 49.4502L37.4116 50.3928L37.2238 50.9763L36.0896 50.6098L35.1056 53.6546L34.4522 53.4451L35.4361 50.4003Z" fill="#EF4123"/>
<path d="M39.019 50.9092L39.5072 51.0663L39.7852 55.151L39.0791 54.9266L39.0415 54.0438L37.6445 53.5949L37.0961 54.2907L36.3826 54.0587L39.019 50.9092ZM39.019 53.4229L38.9589 51.9416L38.0426 53.1086L39.019 53.4229Z" fill="#EF4123"/>
</svg>
