<svg width="69" height="118" viewBox="0 0 69 118" fill="none" xmlns="http://www.w3.org/2000/svg">
<path d="M6.4782 5.41112C7.78514 5.43357 8.90428 5.82259 9.83566 6.59314C10.767 7.3637 11.2252 8.3961 11.2102 9.67538C11.1877 11.0519 10.6769 12.1741 9.6554 13.0419C8.64139 13.9097 7.31942 14.3287 5.69701 14.3062C4.1422 14.2838 2.93294 13.9995 2.06916 13.4608C1.20537 12.9147 0.77723 12.2564 0.792252 11.4783C0.799763 11.0145 0.942488 10.6704 1.22791 10.4534C1.51334 10.2365 1.85133 10.1317 2.24942 10.1392C2.60995 10.1467 2.9179 10.3038 3.18079 10.6105C3.44368 10.9173 3.64647 11.2539 3.78168 11.6205C3.92439 11.9871 4.15724 12.3237 4.49524 12.6304C4.83324 12.9372 5.24638 13.0943 5.7346 13.1017C6.44065 13.1092 7.01901 12.8624 7.46968 12.3462C7.92034 11.8374 8.15318 11.0818 8.16821 10.1018C8.18323 8.97215 7.9654 8.11182 7.50722 7.50585C7.04904 6.89987 6.39558 6.59314 5.54682 6.58566C4.7882 6.57818 3.98449 6.86995 3.13573 7.46844C2.82777 7.71532 2.47473 7.75272 2.08415 7.58066C1.69357 7.41607 1.52834 7.16171 1.58843 6.82506L2.4372 0.630665C2.48226 0.383787 2.64002 0.264089 2.92544 0.27157L10.4441 0.376306C10.722 0.383787 10.8572 0.525929 10.8572 0.810213L10.8347 2.29148C10.8271 2.57577 10.6919 2.71791 10.4065 2.71043L3.68403 2.61317L2.99301 6.45848C3.94693 5.74029 5.11117 5.39616 6.4782 5.41112Z" fill="#EF4123"/>
<path d="M22.552 14.5531C20.7794 14.5306 19.3598 14.1416 18.2857 13.3935C17.2116 12.6454 16.6783 11.8374 16.6933 10.9696C16.7008 10.603 16.7985 10.3188 17.0013 10.1093C17.2041 9.89981 17.5045 9.79507 17.9026 9.80256C18.2631 9.81752 18.5711 9.95218 18.8265 10.2065C19.0819 10.4534 19.3072 10.7601 19.495 11.1118C19.6828 11.4634 19.8855 11.815 20.1109 12.1591C20.3287 12.5033 20.6592 12.81 21.0948 13.0569C21.5305 13.3112 22.0638 13.4384 22.6872 13.4459C23.3933 13.4534 23.9566 13.2888 24.3772 12.9372C24.8054 12.5855 25.0157 12.1142 25.0232 11.5157C25.0307 10.9547 24.888 10.4983 24.5951 10.1242C24.3021 9.75767 23.919 9.47339 23.4458 9.27888C22.9726 9.08437 22.4544 8.9123 21.8835 8.77016C21.3127 8.62802 20.7418 8.45595 20.171 8.26892C19.6001 8.08189 19.0819 7.84249 18.6012 7.55821C18.128 7.27393 17.7449 6.86246 17.4519 6.31634C17.159 5.77021 17.0163 5.11187 17.0313 4.33383C17.0463 3.14433 17.5346 2.17178 18.496 1.43863C19.4574 0.697993 20.7493 0.338898 22.3717 0.361342C23.9641 0.383785 25.2861 0.750362 26.3376 1.46107C27.3817 2.17178 27.8924 2.94982 27.8699 3.81015C27.8624 4.61812 27.4268 5.00714 26.578 4.99966C26.1799 4.99218 25.8494 4.87248 25.594 4.6256C25.3387 4.37872 25.1283 4.09444 24.9706 3.7503C24.8054 3.41365 24.6401 3.06952 24.4523 2.73287C24.2721 2.38873 24.0016 2.10445 23.6336 1.85757C23.2731 1.61069 22.8224 1.48351 22.2891 1.47603C21.5605 1.46855 20.9972 1.6481 20.6066 2.01468C20.2161 2.38873 20.0133 2.86005 20.0057 3.44358C19.9982 4.00466 20.141 4.46849 20.4339 4.85003C20.7268 5.23157 21.1099 5.52334 21.5756 5.72533C22.0412 5.92732 22.567 6.10687 23.1379 6.26397C23.7087 6.42107 24.2796 6.60062 24.8504 6.79513C25.4213 6.98964 25.9395 7.22904 26.4052 7.50584C26.8709 7.78264 27.254 8.19411 27.5469 8.72527C27.8399 9.26391 27.9826 9.90729 27.9676 10.6554C27.9525 11.8748 27.4192 12.8324 26.3677 13.5357C25.3161 14.2389 24.0692 14.568 22.552 14.5531Z" fill="#EF4123"/>
<path d="M33.0676 14.6952C32.1363 14.6802 31.4077 14.381 30.8744 13.7975C30.3411 13.2139 30.0858 12.376 30.1008 11.2838L30.1759 6.24898L29.237 6.23402C28.9666 6.22654 28.8389 6.09936 28.8464 5.83752L28.8539 5.50835C28.8539 5.23903 28.9891 5.10437 29.2595 5.10437L29.7552 5.11185C30.3036 5.11933 30.7617 4.95474 31.1523 4.60313C31.5354 4.259 31.7832 3.79516 31.9034 3.21163C31.971 2.89743 32.1288 2.7478 32.3691 2.7478L32.7672 2.75528C33.0602 2.75528 33.2029 2.91987 33.1954 3.2266L33.1878 5.15673L35.4863 5.18666C35.5914 5.18666 35.6891 5.23155 35.7642 5.30636C35.8393 5.38865 35.8844 5.48591 35.8769 5.59812L35.8693 5.92729C35.8693 6.04699 35.8242 6.13677 35.7491 6.21158C35.6665 6.27891 35.5764 6.31631 35.4637 6.31631L33.1728 6.28639L33.0977 11.3661C33.0902 11.7401 33.1878 12.0469 33.3756 12.2713C33.5634 12.5032 33.8038 12.6154 34.0967 12.6229C34.7877 12.6304 35.2459 12.3461 35.4637 11.7701C35.5839 11.6055 35.7341 11.5382 35.9144 11.5756C36.0947 11.613 36.1848 11.7177 36.1773 11.8973C36.1698 12.6454 35.8843 13.3037 35.321 13.8723C34.7652 14.4334 34.014 14.7102 33.0676 14.6952Z" fill="#EF4123"/>
<path d="M42.2913 14.83C40.7065 14.8075 39.407 14.3138 38.393 13.3412C37.379 12.3762 36.8758 11.2016 36.8983 9.82509C36.9208 8.44108 37.4391 7.29647 38.4606 6.40621C39.4822 5.51595 40.7064 5.07456 42.1336 5.09701C43.6658 5.11945 44.9352 5.60572 45.9417 6.56331C46.9482 7.5209 47.444 8.68796 47.429 10.0795C47.4064 11.4635 46.9107 12.6081 45.9342 13.5133C44.9502 14.411 43.741 14.8524 42.2913 14.83ZM42.6593 13.9771C43.2077 13.9846 43.6283 13.7452 43.9363 13.2589C44.2442 12.7727 44.402 12.0769 44.417 11.1867C44.4245 10.446 44.3268 9.68295 44.124 8.89743C43.9137 8.11191 43.5982 7.42364 43.1626 6.84011C42.7344 6.25658 42.2537 5.96482 41.7205 5.95734C40.4961 5.94238 39.8727 6.87752 39.8427 8.77025C39.8352 9.47348 39.9328 10.2141 40.1431 10.9922C40.3534 11.7702 40.6839 12.4659 41.1271 13.0719C41.5778 13.6629 42.0885 13.9697 42.6593 13.9771Z" fill="#EF4123"/>
<path d="M54.6622 5.27656C55.909 5.29152 56.9981 5.73291 57.9145 6.58576C58.8309 7.43861 59.2816 8.59819 59.259 10.0495C59.2365 11.5158 58.7633 12.7128 57.8394 13.6405C56.9155 14.5682 55.8114 15.0245 54.542 15.0021C53.6106 14.9871 52.837 14.7253 52.221 14.2091L52.176 17.1043C52.1685 17.4185 52.3037 17.7102 52.5816 17.987C52.8595 18.2638 52.9947 18.4658 52.9947 18.593V18.6678C52.9947 18.8848 52.837 18.997 52.529 18.9895L48.9162 18.9371C48.6082 18.9297 48.458 18.8174 48.458 18.6005V18.5257C48.458 18.3985 48.5932 18.1965 48.8561 17.9272C49.119 17.6579 49.2542 17.3661 49.2542 17.0594L49.3819 8.30643C49.3894 8.02214 49.2392 7.75282 48.9312 7.51342C48.6308 7.26655 48.4805 7.07952 48.4805 6.92989V6.83264C48.4805 6.65309 48.6157 6.49599 48.8861 6.36881L51.1394 5.32893C51.6502 5.08953 51.8981 5.20923 51.8906 5.68802L51.8605 6.50347C52.4389 5.67306 53.3703 5.25412 54.6622 5.27656ZM54.2566 14.1567C54.895 14.1642 55.3908 13.9098 55.7513 13.4011C56.1118 12.8924 56.2996 12.1443 56.3146 11.1717C56.3372 9.84754 56.1344 8.673 55.7062 7.64808C55.2781 6.62317 54.6997 6.10697 53.9561 6.092C53.543 6.08452 53.1825 6.22667 52.8746 6.51095C52.5666 6.79523 52.3788 7.17677 52.3187 7.6406L52.2661 11.3587C52.2586 12.1143 52.4539 12.7652 52.8595 13.3113C53.2501 13.8724 53.7233 14.1492 54.2566 14.1567Z" fill="#EF4123"/>
<path d="M64.652 15.1216C63.3976 15.1066 62.3836 14.8672 61.5874 14.4183C60.7913 13.9695 60.4007 13.4308 60.4157 12.8099C60.4232 12.4583 60.5359 12.1964 60.7612 12.0169C60.9791 11.8373 61.272 11.755 61.6325 11.755C62.0156 11.7625 62.331 11.8972 62.5639 12.1665C62.7967 12.4358 62.962 12.7351 63.0596 13.0568C63.1573 13.3785 63.3375 13.6777 63.6079 13.947C63.8783 14.2163 64.2313 14.351 64.667 14.3585C65.0951 14.366 65.4406 14.2612 65.7186 14.0443C65.9965 13.8273 66.1317 13.5131 66.1392 13.0942C66.1467 12.6303 65.9589 12.2563 65.5834 11.9795C65.2078 11.7027 64.7496 11.4932 64.2013 11.3511C63.6605 11.2089 63.1122 11.0443 62.5714 10.8573C62.0306 10.6703 61.5724 10.3636 61.1968 9.92217C60.8213 9.48078 60.641 8.91221 60.6561 8.20898C60.6711 7.37858 61.0541 6.69779 61.8128 6.17411C62.5714 5.64295 63.5479 5.38859 64.7496 5.41103C65.9589 5.426 66.9429 5.67287 67.7015 6.14419C68.4601 6.6155 68.8357 7.1691 68.8282 7.805C68.8282 8.08929 68.708 8.32868 68.4902 8.52319C68.2724 8.7177 67.9944 8.80748 67.679 8.80748C67.3034 8.79999 67.0105 8.66533 66.7851 8.39601C66.5598 8.12669 66.4096 7.83493 66.3194 7.51324C66.2293 7.19155 66.0716 6.89978 65.8312 6.63046C65.5984 6.36114 65.2829 6.22648 64.8998 6.219C64.5168 6.21152 64.2013 6.3387 63.9535 6.58557C63.7131 6.83245 63.5854 7.13918 63.5779 7.50575C63.5704 7.87233 63.668 8.17906 63.8633 8.42594C64.0586 8.67282 64.314 8.86732 64.637 9.00199C64.9524 9.13665 65.3055 9.26383 65.6885 9.37604C66.0716 9.48826 66.4622 9.62292 66.8528 9.76506C67.2433 9.90721 67.5963 10.0793 67.9118 10.2738C68.2273 10.4758 68.4827 10.7526 68.678 11.1117C68.8732 11.4708 68.9634 11.9047 68.9634 12.4134C68.9484 13.2214 68.5578 13.8797 67.7766 14.3884C66.9954 14.8971 65.9589 15.144 64.652 15.1216Z" fill="#EF4123"/>
<path d="M48.5481 31.3782H24.4148L6.47066 48.3754L5.58435 72.4123L23.536 89.4095L47.6693 90.2848L64.7271 73.2876V47.5001L48.5481 31.3782Z" stroke="#EF4123" stroke-width="3.5256" stroke-miterlimit="10"/>
<path d="M16.7834 56.2903H23.258V57.7865H18.4208V60.0832H22.6872V61.5869H18.4208V65.3874H16.7759V56.2903H16.7834Z" fill="#EF4123"/>
<path d="M25.0532 60.839C25.0532 58.3627 26.4428 56.1558 29.4622 56.1558C32.4817 56.1558 33.8713 58.3552 33.8713 60.839C33.8713 63.3152 32.4817 65.5222 29.4622 65.5222C26.4428 65.5147 25.0532 63.3152 25.0532 60.839ZM32.1362 60.839C32.1362 59.1258 31.4151 57.6146 29.4622 57.6146C27.5018 57.6146 26.7883 59.1258 26.7883 60.839C26.7883 62.5596 27.5094 64.0708 29.4622 64.0708C31.4227 64.0708 32.1362 62.5596 32.1362 60.839Z" fill="#EF4123"/>
<path d="M35.9219 60.839C35.9219 58.3627 37.3114 56.1558 40.3309 56.1558C43.3504 56.1558 44.7399 58.3552 44.7399 60.839C44.7399 63.3152 43.3504 65.5222 40.3309 65.5222C37.3189 65.5147 35.9219 63.3152 35.9219 60.839ZM43.0124 60.839C43.0124 59.1258 42.2913 57.6146 40.3384 57.6146C38.3855 57.6146 37.6645 59.1258 37.6645 60.839C37.6645 62.5596 38.3855 64.0708 40.3384 64.0708C42.2913 64.0708 43.0124 62.5596 43.0124 60.839Z" fill="#EF4123"/>
<path d="M47.4438 56.2903H50.0953C53.2049 56.2903 54.8498 57.9511 54.8498 60.9062C54.8498 63.7415 53.1598 65.3874 50.0878 65.3874H47.4514V56.2903H47.4438ZM49.9225 63.8911C51.943 63.8911 53.2049 63.1131 53.2049 60.8388C53.2049 58.6843 52.3186 57.794 50.0727 57.794H49.0888V63.8911H49.9225Z" fill="#EF4123"/>
<path d="M32.7221 89.6265L31.3701 117.127" stroke="#EF4123" stroke-width="10.0286" stroke-miterlimit="10"/>
</svg>
