<svg width="127" height="124" viewBox="0 0 127 124" fill="none" xmlns="http://www.w3.org/2000/svg">
<path d="M6.0499 113.085C7.41692 113.122 8.51353 113.511 9.32473 114.245C10.1359 114.978 10.5416 115.92 10.5416 117.072C10.5416 118.292 10.0458 119.317 9.06186 120.147C8.0779 120.978 6.77849 121.389 5.17111 121.389C3.54872 121.389 2.30185 121.112 1.43808 120.551C0.574301 119.99 0.138672 119.362 0.138672 118.666C0.138672 118.225 0.258835 117.873 0.49919 117.604C0.739545 117.334 1.06256 117.207 1.47567 117.207C1.79865 117.207 2.07656 117.312 2.32443 117.521C2.57229 117.731 2.77505 117.978 2.9403 118.269C3.10554 118.561 3.27833 118.86 3.45109 119.152C3.62385 119.451 3.85668 119.706 4.14962 119.908C4.44255 120.117 4.78054 120.222 5.17111 120.222C5.84711 120.222 6.39542 119.968 6.80853 119.466C7.22164 118.965 7.42444 118.314 7.42444 117.521C7.42444 116.601 7.19912 115.875 6.73343 115.352C6.26775 114.828 5.66686 114.566 4.90824 114.566H4.58523C4.29229 114.566 4.09703 114.454 3.99939 114.237C3.90174 114.02 3.93927 113.788 4.11202 113.556L7.02633 109.898H1.04001C0.641924 109.898 0.439134 109.711 0.439134 109.337V107.916C0.439134 107.564 0.634391 107.392 1.01746 107.392H9.77542C10.0984 107.392 10.2561 107.526 10.2561 107.803V108.058C10.2561 108.282 10.1134 108.559 9.82048 108.896L6.0499 113.085Z" fill="#EF4123"/>
<path d="M17.5044 112.479C18.8113 112.479 19.9304 112.86 20.8768 113.616C21.8232 114.372 22.2889 115.397 22.2889 116.683C22.2889 118.06 21.7857 119.19 20.7867 120.072C19.7802 120.955 18.4658 121.396 16.8434 121.396C15.2886 121.396 14.0718 121.135 13.2005 120.596C12.3292 120.065 11.8936 119.406 11.8936 118.628C11.8936 118.165 12.0363 117.82 12.3142 117.596C12.5921 117.379 12.9301 117.267 13.3357 117.267C13.6962 117.267 14.0042 117.417 14.2746 117.723C14.545 118.03 14.7478 118.359 14.8905 118.726C15.0332 119.092 15.281 119.421 15.619 119.728C15.957 120.035 16.3702 120.185 16.8659 120.185C17.572 120.185 18.1428 119.923 18.5935 119.406C19.0441 118.89 19.262 118.135 19.262 117.147C19.262 116.018 19.0291 115.157 18.5634 114.559C18.0978 113.96 17.4368 113.661 16.588 113.661C15.8294 113.661 15.0332 113.968 14.192 114.574C13.884 114.821 13.5385 114.865 13.1479 114.701C12.7573 114.536 12.5846 114.289 12.6371 113.953L13.3958 107.751C13.4333 107.504 13.5985 107.384 13.8765 107.384H21.4026C21.6805 107.384 21.8233 107.526 21.8233 107.811V109.292C21.8233 109.576 21.6805 109.718 21.4026 109.718H14.6802L14.0417 113.571C14.9806 112.846 16.1373 112.479 17.5044 112.479Z" fill="#EF4123"/>
<path d="M36.6879 120.155C36.703 120.327 36.7705 120.484 36.8982 120.634C37.0259 120.783 37.086 120.895 37.086 120.978V121.023C37.086 121.142 37.0034 121.202 36.8456 121.202H34.9453C34.7801 121.202 34.69 121.142 34.69 121.023V120.978C34.69 120.903 34.7576 120.798 34.8928 120.648C35.028 120.499 35.088 120.334 35.073 120.17L34.9679 118.21C34.9378 117.619 34.8477 117.192 34.69 116.938C34.5322 116.683 34.3069 116.556 34.0065 116.556C33.7511 116.556 33.5408 116.661 33.3755 116.87C33.2178 117.08 33.1277 117.349 33.1126 117.671C33.1427 117.813 33.1577 117.985 33.1577 118.187V120.17C33.1577 120.342 33.2178 120.499 33.353 120.648C33.4807 120.798 33.5482 120.91 33.5482 120.978V121.023C33.5482 121.142 33.4657 121.202 33.3079 121.202H31.4076C31.2424 121.202 31.1522 121.142 31.1522 121.023V120.978C31.1522 120.903 31.2198 120.798 31.3475 120.648C31.4827 120.499 31.5428 120.334 31.5428 120.17V118.082C31.5428 117.596 31.4527 117.222 31.2799 116.96C31.1072 116.698 30.8743 116.564 30.5889 116.564C30.2959 116.564 30.0631 116.676 29.8979 116.893C29.7326 117.117 29.6425 117.402 29.6425 117.753V120.177C29.6425 120.349 29.7251 120.506 29.8829 120.656C30.0406 120.806 30.1157 120.918 30.1157 120.985V121.03C30.1157 121.15 30.0331 121.21 29.8603 121.21H27.8173C27.6521 121.21 27.5619 121.15 27.5619 121.03V120.985C27.5619 120.91 27.6445 120.806 27.7948 120.656C27.9525 120.506 28.0276 120.342 28.0276 120.177V117.678C28.0276 117.544 27.9825 117.432 27.8924 117.334C27.8023 117.237 27.7121 117.162 27.622 117.095C27.5319 117.028 27.4868 116.96 27.4868 116.885V116.841C27.4868 116.766 27.5619 116.683 27.7197 116.616L29.1092 115.995C29.2369 115.935 29.327 115.935 29.3946 115.98C29.4622 116.025 29.4923 116.107 29.4923 116.22V116.721C29.8378 116.205 30.341 115.95 31.0095 115.95C31.8433 115.95 32.4517 116.272 32.8347 116.915C32.9849 116.616 33.2027 116.377 33.5032 116.205C33.7961 116.033 34.1341 115.95 34.5097 115.95C35.0655 115.95 35.5312 116.13 35.9067 116.489C36.2823 116.848 36.5001 117.439 36.5527 118.254L36.6879 120.155Z" fill="#EF4123"/>
<path d="M37.9347 121.194C37.777 121.194 37.6943 121.135 37.6943 121.015V120.97C37.6943 120.895 37.762 120.79 37.9047 120.641C38.0474 120.491 38.1149 120.327 38.1149 120.162V117.738C38.1149 117.559 38.0474 117.394 37.9047 117.237C37.762 117.08 37.6943 116.975 37.6943 116.915V116.885C37.6943 116.811 37.7694 116.736 37.9272 116.661L39.3017 115.995C39.4444 115.935 39.5496 115.935 39.6322 115.98C39.7148 116.025 39.7523 116.107 39.7523 116.212V120.17C39.7523 120.342 39.8274 120.499 39.9852 120.648C40.1429 120.798 40.218 120.91 40.218 120.978V121.022C40.218 121.142 40.1354 121.202 39.9627 121.202H37.9347V121.194ZM39.7073 115.03C39.512 115.202 39.2566 115.292 38.9337 115.292C38.6107 115.292 38.3478 115.202 38.145 115.03C37.9422 114.858 37.8446 114.626 37.8446 114.349C37.8446 114.08 37.9422 113.855 38.145 113.676C38.3478 113.504 38.6107 113.414 38.9337 113.414C39.2566 113.414 39.512 113.504 39.7073 113.676C39.9026 113.848 40.0002 114.072 40.0002 114.349C40.0002 114.626 39.9026 114.85 39.7073 115.03Z" fill="#EF4123"/>
<path d="M46.6026 120.155C46.6176 120.327 46.6852 120.484 46.8129 120.633C46.9406 120.783 47.0007 120.895 47.0007 120.978V121.022C47.0007 121.142 46.918 121.202 46.7453 121.202H44.845C44.6797 121.202 44.5896 121.142 44.5896 121.022V120.978C44.5896 120.903 44.6572 120.798 44.7924 120.648C44.9276 120.499 44.9952 120.334 44.9877 120.155L44.875 118.172C44.8224 117.095 44.5069 116.556 43.921 116.556C43.6281 116.556 43.3953 116.661 43.2375 116.878C43.0723 117.095 42.9897 117.379 42.9897 117.738V120.17C42.9897 120.342 43.0723 120.499 43.2225 120.648C43.3802 120.798 43.4553 120.91 43.4553 120.978V121.022C43.4553 121.142 43.3727 121.202 43.2 121.202H41.1569C40.9917 121.202 40.9016 121.142 40.9016 121.022V120.978C40.9016 120.903 40.9767 120.798 41.1344 120.648C41.2921 120.499 41.3672 120.334 41.3672 120.17V117.671C41.3672 117.566 41.3372 117.469 41.2846 117.379C41.2321 117.297 41.1645 117.23 41.0969 117.192C41.0293 117.155 40.9617 117.102 40.9091 117.05C40.8565 116.99 40.8264 116.938 40.8264 116.878V116.833C40.8264 116.758 40.9016 116.676 41.0443 116.609L42.3512 115.988C42.4789 115.928 42.569 115.928 42.6291 115.973C42.6892 116.018 42.7193 116.1 42.7193 116.212V116.811C43.0347 116.235 43.5755 115.943 44.3492 115.943C44.905 115.943 45.3782 116.122 45.7763 116.489C46.1669 116.855 46.3923 117.431 46.4524 118.225L46.6026 120.155Z" fill="#EF4123"/>
<path d="M65.5232 111.858C65.786 111.858 65.9213 111.963 65.9213 112.172V112.269C65.9213 112.426 65.7635 112.636 65.4556 112.89C65.1476 113.145 64.9298 113.436 64.8246 113.743L62.2483 120.731C62.1432 121.045 61.9329 121.194 61.6099 121.194H60.9489C60.6034 121.194 60.3856 121.037 60.2879 120.731L58.4552 114.97L56.5999 120.731C56.4948 121.045 56.2694 121.194 55.939 121.194H55.4808C55.1578 121.194 54.9475 121.037 54.8424 120.731L51.928 113.743C51.8229 113.474 51.6351 113.197 51.3722 112.92C51.1018 112.643 50.9741 112.426 50.9741 112.269V112.172C50.9741 111.963 51.1093 111.858 51.3722 111.858H54.925C55.1804 111.858 55.3081 111.97 55.3081 112.187V112.262C55.3081 112.367 55.263 112.464 55.1653 112.561C55.0752 112.658 54.9776 112.748 54.8799 112.823C54.7823 112.898 54.7072 113.025 54.6621 113.19C54.617 113.362 54.6321 113.556 54.7147 113.773L56.307 118.344L58.1623 112.292C58.2449 112.045 58.3951 111.925 58.6204 111.925L59.7171 111.903C59.9424 111.903 60.0926 112.023 60.1752 112.254L61.993 118.344L63.5327 114.027C63.6379 113.758 63.6529 113.519 63.5853 113.317C63.5177 113.115 63.4125 112.973 63.2849 112.883C63.1572 112.793 63.037 112.688 62.9168 112.584C62.7966 112.479 62.7366 112.367 62.7366 112.262V112.187C62.7366 111.97 62.8717 111.858 63.1346 111.858H65.5232Z" fill="#EF4123"/>
<path d="M75.4002 119.249C75.4377 119.549 75.5128 119.788 75.633 119.968C75.7457 120.147 75.8584 120.259 75.9785 120.312C76.0987 120.357 76.2039 120.409 76.294 120.476C76.3841 120.544 76.4367 120.633 76.4367 120.746C76.4367 121.12 75.7983 121.307 74.5214 121.307C73.9355 121.307 73.5074 121.232 73.237 121.082C72.9666 120.933 72.8013 120.656 72.7487 120.252C72.2305 121.008 71.3442 121.382 70.0974 121.382C68.9782 121.382 68.0769 121.127 67.3859 120.626C66.6949 120.117 66.3494 119.392 66.3494 118.449C66.3343 117.514 66.6723 116.788 67.3633 116.272C68.0543 115.756 68.9181 115.494 69.9622 115.494C70.841 115.494 71.562 115.688 72.1329 116.077L72.1103 115.846C71.9751 114.611 71.7874 113.743 71.5545 113.242C71.3217 112.741 70.9086 112.487 70.3377 112.487C69.9772 112.487 69.6842 112.614 69.4589 112.876C69.2336 113.137 69.0759 113.422 68.9782 113.728C68.8881 114.043 68.7303 114.327 68.52 114.581C68.3097 114.843 68.0318 114.97 67.7013 114.97C67.3408 114.97 67.0554 114.873 66.83 114.671C66.6122 114.469 66.4996 114.207 66.4996 113.885C66.4996 113.212 66.8676 112.674 67.6037 112.27C68.3398 111.866 69.2486 111.664 70.3302 111.664C71.6221 111.664 72.6811 112.023 73.4999 112.733C74.3186 113.444 74.8068 114.417 74.957 115.651L75.4002 119.249ZM70.9686 120.536C71.4118 120.536 71.7573 120.357 72.0277 119.998C72.2981 119.638 72.4108 119.235 72.3882 118.786L72.3281 118.105C72.2756 117.544 72.1028 117.117 71.8174 116.818C71.532 116.519 71.1714 116.369 70.7508 116.369C70.3227 116.369 69.9772 116.519 69.7068 116.818C69.4364 117.117 69.3012 117.514 69.3012 118.008C69.3012 118.711 69.4589 119.302 69.7669 119.796C70.0748 120.289 70.4804 120.536 70.9686 120.536Z" fill="#EF4123"/>
<path d="M77.5561 121.195C77.2481 121.195 77.0979 121.082 77.0979 120.865V120.791C77.0979 120.663 77.2256 120.461 77.4884 120.185C77.7438 119.915 77.879 119.623 77.879 119.332V109.763C77.879 109.427 77.7513 109.12 77.4884 108.851C77.2256 108.581 77.0979 108.387 77.0979 108.29V108.215C77.0979 108.058 77.2331 107.93 77.496 107.826L80.0122 106.621C80.2826 106.516 80.4779 106.502 80.6206 106.584C80.7633 106.659 80.8309 106.793 80.8309 106.973V119.347C80.8309 119.646 80.9736 119.93 81.2591 120.2C81.5445 120.469 81.6872 120.671 81.6872 120.805V120.88C81.6872 121.097 81.537 121.209 81.229 121.209H77.5561V121.195Z" fill="#EF4123"/>
<path d="M92.8787 119.736C92.9614 119.84 93.1566 119.998 93.4796 120.214C93.7951 120.431 93.9603 120.626 93.9603 120.805V120.865C93.9603 121.082 93.8251 121.195 93.5622 121.195H89.8517C89.5889 121.195 89.4537 121.075 89.4537 120.843V120.805C89.4537 120.678 89.5513 120.506 89.7391 120.297C89.9344 120.087 89.9719 119.9 89.8517 119.736L87.6961 116.781L86.5168 117.85V119.332C86.5168 119.631 86.6595 119.915 86.945 120.185C87.2304 120.454 87.3731 120.656 87.3731 120.791V120.865C87.3731 121.082 87.2229 121.195 86.9149 121.195H83.242C82.9491 121.195 82.7988 121.082 82.7988 120.865V120.791C82.7988 120.663 82.9265 120.461 83.1819 120.185C83.4373 119.915 83.5575 119.623 83.5575 119.332V109.763C83.5575 109.427 83.4073 109.12 83.1068 108.851C82.8064 108.581 82.6561 108.387 82.6561 108.29V108.215C82.6561 108.058 82.7913 107.93 83.0542 107.826L85.7056 106.621C85.946 106.516 86.1413 106.502 86.284 106.584C86.4267 106.659 86.5018 106.793 86.5018 106.973V116.392L89.6565 113.728C89.7992 113.624 89.8593 113.504 89.8217 113.362C89.7917 113.22 89.7241 113.1 89.6339 113.003C89.5438 112.905 89.4386 112.786 89.3335 112.651C89.2283 112.516 89.1757 112.397 89.1757 112.292V112.217C89.1757 112 89.311 111.888 89.5738 111.888H92.428C92.6984 111.888 92.8261 111.993 92.8261 112.202V112.277C92.8261 112.419 92.7435 112.561 92.5783 112.696C92.413 112.831 92.1727 112.995 91.8572 113.19C91.5417 113.384 91.2939 113.556 91.1061 113.713L89.4912 115.172L92.8787 119.736Z" fill="#EF4123"/>
<path d="M94.9517 121.194C94.6588 121.194 94.5161 121.082 94.5161 120.865V120.791C94.5161 120.663 94.6438 120.461 94.8917 120.185C95.1471 119.915 95.2747 119.623 95.2747 119.309V114.91C95.2747 114.589 95.1471 114.282 94.8917 113.998C94.6363 113.713 94.5161 113.519 94.5161 113.414V113.354C94.5161 113.227 94.6588 113.085 94.9367 112.943L97.4305 111.738C97.6858 111.634 97.8811 111.626 98.0313 111.708C98.174 111.791 98.2491 111.933 98.2491 112.127V119.309C98.2491 119.623 98.3919 119.915 98.6698 120.185C98.9477 120.454 99.0904 120.656 99.0904 120.791V120.865C99.0904 121.082 98.9327 121.194 98.6322 121.194H94.9517ZM98.1816 110.003C97.8285 110.317 97.3629 110.481 96.777 110.481C96.1911 110.481 95.7179 110.324 95.3498 110.003C94.9818 109.681 94.8015 109.27 94.8015 108.768C94.8015 108.275 94.9818 107.871 95.3498 107.549C95.7179 107.235 96.1911 107.07 96.777 107.07C97.3629 107.07 97.8285 107.227 98.1816 107.549C98.5346 107.871 98.7073 108.275 98.7073 108.768C98.7073 109.27 98.5271 109.681 98.1816 110.003Z" fill="#EF4123"/>
<path d="M110.695 119.309C110.725 119.624 110.845 119.915 111.071 120.185C111.296 120.454 111.409 120.663 111.409 120.806V120.88C111.409 121.097 111.251 121.21 110.951 121.21H107.495C107.187 121.21 107.037 121.097 107.037 120.88V120.806C107.037 120.678 107.157 120.476 107.405 120.2C107.653 119.93 107.766 119.631 107.751 119.302L107.548 115.703C107.458 113.743 106.88 112.763 105.813 112.763C105.28 112.763 104.867 112.958 104.566 113.347C104.266 113.736 104.115 114.252 104.115 114.903V119.317C104.115 119.631 104.258 119.923 104.544 120.192C104.829 120.461 104.972 120.663 104.972 120.798V120.873C104.972 121.09 104.814 121.202 104.514 121.202H100.803C100.495 121.202 100.345 121.09 100.345 120.873V120.798C100.345 120.671 100.487 120.469 100.773 120.192C101.058 119.915 101.201 119.631 101.201 119.317V114.783C101.201 114.589 101.149 114.417 101.051 114.26C100.953 114.102 100.841 113.99 100.713 113.915C100.585 113.848 100.472 113.758 100.375 113.654C100.277 113.549 100.225 113.444 100.225 113.339V113.265C100.225 113.122 100.36 112.988 100.623 112.853L102.996 111.723C103.222 111.619 103.394 111.611 103.507 111.694C103.62 111.776 103.68 111.925 103.68 112.127V113.22C104.251 112.172 105.235 111.641 106.632 111.641C107.646 111.641 108.502 111.97 109.216 112.636C109.929 113.295 110.335 114.349 110.44 115.786L110.695 119.309Z" fill="#EF4123"/>
<path d="M121.113 111.858C121.616 111.858 121.954 111.903 122.12 112C122.285 112.097 122.337 112.247 122.27 112.434C122.232 112.628 122.142 112.771 122.007 112.853C121.872 112.935 121.646 113.003 121.331 113.055C121.015 113.107 120.82 113.145 120.753 113.175C121.496 113.93 121.872 114.761 121.872 115.666C121.872 116.414 121.676 117.087 121.278 117.678C120.888 118.269 120.339 118.726 119.633 119.047C121.226 119.399 122.029 120.14 122.029 121.262C122.029 122.077 121.556 122.736 120.602 123.237C119.648 123.738 118.454 123.985 117.019 123.985C115.585 123.985 114.451 123.731 113.617 123.229C112.783 122.728 112.37 122.085 112.37 121.307C112.37 121.007 112.468 120.753 112.671 120.536C112.873 120.319 113.159 120.214 113.549 120.214C113.91 120.214 114.218 120.364 114.466 120.671C114.721 120.977 114.916 121.314 115.052 121.681C115.194 122.047 115.435 122.384 115.78 122.691C116.126 122.997 116.561 123.154 117.08 123.169C117.688 123.169 118.176 122.997 118.544 122.661C118.912 122.324 119.093 121.883 119.093 121.337C119.093 120.312 118.679 119.713 117.853 119.549C117.508 119.578 117.245 119.586 117.072 119.586C115.728 119.586 114.616 119.219 113.73 118.486C112.843 117.753 112.4 116.833 112.4 115.733C112.4 114.514 112.836 113.526 113.715 112.778C114.593 112.023 115.728 111.648 117.125 111.648C117.485 111.648 118.049 111.678 118.822 111.746C119.611 111.828 120.369 111.858 121.113 111.858ZM115.232 114.461C115.232 115.524 115.457 116.504 115.923 117.386C116.389 118.269 116.914 118.718 117.53 118.718C117.996 118.718 118.364 118.539 118.634 118.187C118.905 117.835 119.04 117.357 119.04 116.773C119.04 116.137 118.95 115.494 118.762 114.85C118.574 114.2 118.296 113.653 117.921 113.197C117.545 112.741 117.14 112.516 116.704 112.516C116.253 112.516 115.893 112.688 115.622 113.04C115.352 113.392 115.232 113.87 115.232 114.461Z" fill="#EF4123"/>
<path d="M43.3276 1.60083C43.3276 1.60083 56.5473 50.161 73.9055 63.3353L94.5687 48.5226C94.5687 48.5226 85.4802 32.0641 77.2179 4.07709" stroke="#EF4123" stroke-width="2.8653" stroke-miterlimit="10" stroke-linecap="round"/>
<path d="M91.6243 50.6248L98.6923 60.8665C98.6923 60.8665 100.345 70.7416 87.1251 70.7416L79.0957 59.6096" stroke="#EF4123" stroke-width="2.8653" stroke-miterlimit="10" stroke-linecap="round"/>
<path d="M110.643 56.0635C112.092 54.2531 113.985 52.8017 116.193 52.0611C118.582 51.2531 121.474 51.0512 123.487 53.4526C125.8 56.2132 125.507 60.3053 122.826 62.7143C119.649 65.5646 115.435 69.3276 111.92 72.3874C108.374 75.4771 102.463 78.5594 97.731 80.7663C93.9003 82.5468 89.3711 80.5419 88.1168 76.5245L86.2991 70.7416C86.2991 70.7416 99.5187 69.9186 98.6925 60.8664C98.6925 60.8664 105.092 62.9911 110.643 56.0635Z" fill="#EF4123"/>
<path d="M90.6479 79.2401C90.6479 79.2401 93.735 84.7313 97.04 83.9083C100.345 83.0854 123.84 71.34 125.139 58.3901C125.965 50.1609 115.224 55.0984 115.224 55.0984" stroke="#EF4123" stroke-width="2.8653" stroke-miterlimit="10" stroke-linecap="round"/>
<path d="M43.3277 1.60083C43.3277 1.60083 26.8032 23.0044 18.7212 41.827L40.6312 54.7395C40.6312 54.7395 42.5015 50.9839 54.8949 34.5254" stroke="#EF4123" stroke-width="2.8653" stroke-miterlimit="10" stroke-linecap="round"/>
<path d="M37.5142 52.9065L31.7156 60.2605C31.7156 60.2605 23.2956 65.7292 17.9927 53.6621L24.2269 45.0737" stroke="#EF4123" stroke-width="2.8653" stroke-miterlimit="10" stroke-linecap="round"/>
<path d="M39.9176 69.8439C42.2461 69.9262 44.259 71.587 45.8214 73.3002C47.5189 75.1555 48.8709 77.7141 47.4663 80.5195C45.8514 83.7364 41.9757 85.1055 38.6858 83.6242C34.7875 81.8661 30.2508 80.527 26.022 78.5445C21.7632 76.547 16.941 70.794 13.0277 67.3602C9.8505 64.5772 9.88054 59.6471 13.0728 56.8866L17.6621 52.9141C17.6621 52.9141 23.716 64.652 31.7154 60.268C31.7154 60.2606 29.387 69.4699 39.9176 69.8439Z" fill="#EF4123"/>
<path d="M11.5856 60.2905C11.5856 60.2905 7.77 65.3104 9.85058 67.9961C14.3648 73.8239 27.667 89.1379 43.5831 84.0058C51.4848 81.4622 42.6367 73.6369 42.6367 73.6369" stroke="#EF4123" stroke-width="2.8653" stroke-miterlimit="10" stroke-linecap="round"/>
</svg>
