<svg width="128" height="113" viewBox="0 0 128 113" fill="none" xmlns="http://www.w3.org/2000/svg">
<path d="M52.941 56.9765C48.5846 64.0985 46.7744 69.4476 48.6221 71.0859C52.0096 74.1008 67.5578 64.8691 81.9191 48.837C96.2804 32.8049 104.017 16.0321 100.629 13.0172C98.4811 11.1095 91.9088 14.6556 83.7292 21.5906" stroke="#EF4123" stroke-width="3.4334" stroke-miterlimit="10" stroke-linecap="round" stroke-linejoin="round"/>
<path d="M44.2656 49.2112L54.8864 58.024" stroke="#EF4123" stroke-width="3.4334" stroke-miterlimit="10" stroke-linecap="round" stroke-linejoin="round"/>
<path d="M54.8865 58.0238C57.0347 59.9315 66.1682 53.2358 75.2792 43.0615C84.3902 32.8871 90.0386 23.0868 87.8829 21.1791L77.2621 12.3738" stroke="#EF4123" stroke-width="3.4334" stroke-miterlimit="10" stroke-linecap="round" stroke-linejoin="round"/>
<path d="M49.8088 53.5351C51.957 55.4428 61.0905 48.7472 70.2016 38.5728C79.3126 28.3984 84.961 18.5981 82.8053 16.6904L87.8828 21.1716C87.8828 21.1716 88.7616 29.0717 75.2791 43.054C75.2791 43.054 64.5457 55.9216 55.1943 58.338L49.8088 53.5351Z" fill="#EF4123"/>
<path d="M64.666 34.2719C73.7791 24.0977 79.4226 14.3002 77.2713 12.3886C75.1199 10.4771 65.9884 17.1752 56.8753 27.3494C47.7623 37.5237 42.1188 47.3211 44.2701 49.2327C46.4215 51.1443 55.553 44.4461 64.666 34.2719Z" stroke="#EF4123" stroke-width="3.4334" stroke-miterlimit="10" stroke-linecap="round" stroke-linejoin="round"/>
<path d="M110.905 34.6377C110.026 32.8422 109.921 31.0168 110.589 29.1764C111.258 27.3361 112.459 25.997 114.179 25.1591C116.087 24.2314 117.92 24.0743 119.678 24.6803C121.435 25.2862 122.72 26.4159 123.531 28.0692C124.252 29.5355 124.515 30.9196 124.342 32.2213C124.169 33.523 123.658 34.3758 122.817 34.7873C122.457 34.9669 122.104 34.9968 121.781 34.8846C121.458 34.7723 121.195 34.5329 121.015 34.1589C120.842 33.7998 120.797 33.4183 120.879 32.9993C120.962 32.5804 121.112 32.1839 121.338 31.7948C121.555 31.4133 121.766 31.0168 121.976 30.6128C122.186 30.2088 122.322 29.7675 122.374 29.2961C122.434 28.8173 122.351 28.3535 122.126 27.9046C121.751 27.1266 121.09 26.6553 120.151 26.4757C119.212 26.2962 118.22 26.4608 117.176 26.9695C115.419 27.8224 114.142 28.9745 113.331 30.4333C112.519 31.8921 112.414 33.2163 112.993 34.4058C113.293 35.0267 113.676 35.5055 114.127 35.8422L116.711 34.5928C116.883 34.5105 117.019 34.3758 117.109 34.1888C117.199 34.0018 117.251 33.8297 117.259 33.6651C117.266 33.5005 117.289 33.336 117.327 33.1789C117.364 33.0218 117.432 32.917 117.522 32.8721L117.59 32.8347C117.8 32.73 117.98 32.8272 118.123 33.1265L119.895 36.7997C120.031 37.0765 119.993 37.2561 119.798 37.3533L119.73 37.3907C119.61 37.4431 119.46 37.4282 119.272 37.3234C119.084 37.2262 118.874 37.1364 118.634 37.0616C118.393 36.9868 118.16 37.0017 117.92 37.1214L115.674 38.2137C115.238 38.4231 114.75 38.3932 114.194 38.1164C112.805 37.4506 111.716 36.2985 110.905 34.6377Z" fill="#EF4123"/>
<path d="M114.653 45.7548C114.322 44.2137 114.517 42.8371 115.239 41.6402C115.96 40.4357 116.996 39.695 118.348 39.4033C119.708 39.1115 120.947 39.3659 122.044 40.1664C123.148 40.9594 123.846 42.0516 124.139 43.4431C124.462 44.9319 124.259 46.2785 123.553 47.468C122.84 48.665 121.803 49.4056 120.444 49.6899C119.084 49.9742 117.852 49.7497 116.748 49.0016C115.652 48.246 114.953 47.1687 114.653 45.7548ZM115.569 45.9269C115.682 46.458 116.012 46.8171 116.56 47.0041C117.109 47.1912 117.822 47.1912 118.694 47.0041C119.422 46.847 120.143 46.5852 120.872 46.2037C121.6 45.8221 122.194 45.3658 122.675 44.8196C123.155 44.2735 123.336 43.7349 123.223 43.2187C122.968 42.0292 121.908 41.6252 120.053 42.0217C119.362 42.1713 118.664 42.4257 117.943 42.8072C117.221 43.1813 116.621 43.6601 116.132 44.2286C115.637 44.8047 115.449 45.3658 115.569 45.9269Z" fill="#EF4123"/>
<path d="M117.762 61.57C117.447 61.5924 117.154 61.7196 116.883 61.9365C116.606 62.161 116.395 62.2732 116.253 62.2657H116.177C115.96 62.2657 115.847 62.1086 115.847 61.8094L115.877 58.368C115.877 58.0613 115.99 57.9117 116.215 57.9117H116.29C116.418 57.9117 116.621 58.0389 116.891 58.2857C117.161 58.5326 117.462 58.6523 117.785 58.6448L121.398 58.4803C123.366 58.4054 124.357 57.8369 124.365 56.782C124.372 56.2509 124.177 55.8394 123.794 55.5327C123.403 55.2334 122.885 55.0763 122.239 55.0688L117.807 55.024C117.492 55.024 117.199 55.1586 116.921 55.4429C116.643 55.7272 116.44 55.8618 116.313 55.8618H116.23C116.012 55.8618 115.9 55.7047 115.9 55.398L115.937 51.7023C115.937 51.3956 116.05 51.246 116.275 51.246H116.35C116.478 51.246 116.681 51.3881 116.951 51.6799C117.222 51.9642 117.514 52.1138 117.822 52.1138L122.374 52.1587C122.569 52.1587 122.742 52.1138 122.9 52.0165C123.058 51.9193 123.17 51.8071 123.245 51.6799C123.321 51.5527 123.403 51.4405 123.516 51.3432C123.621 51.246 123.726 51.1936 123.831 51.1936H123.906C124.049 51.1936 124.184 51.3283 124.312 51.5976L125.424 53.9691C125.529 54.1936 125.536 54.3656 125.446 54.4778C125.364 54.59 125.213 54.6424 125.003 54.6424L123.906 54.6349C124.958 55.211 125.476 56.1985 125.461 57.59C125.454 58.6 125.108 59.4528 124.44 60.156C123.771 60.8593 122.712 61.2558 121.263 61.3455L117.762 61.57Z" fill="#EF4123"/>
<path d="M115.359 72.4999C115.066 72.4325 114.758 72.4924 114.42 72.6869C114.082 72.8814 113.856 72.9637 113.729 72.9338L113.676 72.9188C113.458 72.8664 113.383 72.7168 113.443 72.455L114.014 70.0535C114.082 69.7543 114.254 69.642 114.54 69.7094L114.968 69.7692C114.427 69.0136 114.277 68.0934 114.532 67.0162C114.825 65.7668 115.509 64.7943 116.575 64.106C117.642 63.4177 118.911 63.2457 120.376 63.5898C121.758 63.9115 122.787 64.6222 123.463 65.7219C124.139 66.8217 124.327 68.0037 124.034 69.268C123.816 70.1732 123.396 70.869 122.757 71.3552L125.799 72.0659C126.054 72.1258 126.28 72.0959 126.483 71.9687C126.685 71.8415 126.866 71.7143 127.016 71.5797C127.166 71.445 127.309 71.3926 127.437 71.4226L127.497 71.4375C127.714 71.4899 127.827 71.6545 127.835 71.9462L127.992 74.6544C128.037 75.1931 127.85 75.4175 127.437 75.3202L115.359 72.4999ZM115.193 67.8466C115.088 68.288 115.178 68.7144 115.464 69.1258C115.749 69.5373 116.207 69.8216 116.838 69.9712L120.188 70.7567C120.812 70.8989 121.428 70.8241 122.051 70.5173C122.667 70.2106 123.05 69.7842 123.178 69.2306C123.32 68.6396 123.185 68.1084 122.78 67.6446C122.374 67.1808 121.728 66.8366 120.842 66.6197C120.128 66.4252 119.37 66.3279 118.566 66.3204C117.762 66.3204 117.034 66.4476 116.38 66.7094C115.719 66.9638 115.329 67.3453 115.193 67.8466Z" fill="#EF4123"/>
<path d="M110.657 78.0359C111.348 76.6144 112.347 75.6494 113.654 75.1406C114.961 74.6319 116.245 74.6768 117.484 75.2753C118.739 75.8813 119.557 76.8314 119.94 78.1331C120.324 79.4348 120.203 80.7216 119.58 82.0009C118.911 83.3699 117.935 84.3125 116.636 84.8213C115.344 85.33 114.067 85.2851 112.812 84.6791C111.558 84.0731 110.724 83.1455 110.319 81.8812C109.913 80.6169 110.026 79.3301 110.657 78.0359ZM111.273 78.7316C111.04 79.2179 111.077 79.7041 111.393 80.1904C111.708 80.6767 112.272 81.1106 113.083 81.4996C113.751 81.8213 114.487 82.0532 115.291 82.2029C116.095 82.345 116.853 82.345 117.567 82.2029C118.28 82.0607 118.754 81.7465 118.987 81.2752C119.52 80.1755 118.926 79.2179 117.214 78.3949C116.583 78.0882 115.869 77.8638 115.066 77.7291C114.27 77.587 113.496 77.5945 112.76 77.7441C112.016 77.8787 111.52 78.2154 111.273 78.7316Z" fill="#EF4123"/>
<path d="M107.818 83.4821C107.99 83.2352 108.171 83.1679 108.351 83.2951L108.418 83.34C108.524 83.4148 108.614 83.6392 108.689 84.0058C108.764 84.3724 108.922 84.6417 109.169 84.8137L117.034 90.3124C117.312 90.5069 117.635 90.5742 118.01 90.5219C118.378 90.4695 118.611 90.4695 118.694 90.5293L118.754 90.5742C118.881 90.664 118.911 90.8436 118.844 91.1204L118.393 93.8659C118.326 94.1427 118.22 94.3148 118.078 94.3821C117.935 94.4495 117.785 94.4345 117.635 94.3298L107.465 87.2227C107.217 87.0506 106.901 87.0057 106.518 87.0805C106.135 87.1553 105.88 87.1553 105.775 87.088L105.707 87.0431C105.527 86.916 105.527 86.7289 105.699 86.482L107.818 83.4821Z" fill="#EF4123"/>
<path d="M100.299 95.3547C100.058 95.1751 99.8331 95.0629 99.6153 95.018C99.405 94.9731 99.2397 94.9806 99.127 95.033C99.0144 95.0854 98.9017 95.1228 98.7891 95.1452C98.6764 95.1676 98.5788 95.1377 98.4961 95.0554C98.2257 94.7936 98.5262 94.2101 99.4125 93.2899C99.8181 92.8709 100.171 92.6091 100.464 92.5193C100.757 92.4295 101.072 92.4969 101.403 92.7363C101.215 91.8385 101.561 90.9483 102.424 90.0505C103.198 89.2501 104.009 88.7713 104.851 88.6216C105.692 88.472 106.458 88.7264 107.149 89.3847C107.832 90.0206 108.125 90.7687 108.02 91.6216C107.915 92.4744 107.509 93.2824 106.788 94.023C106.18 94.6514 105.534 95.0405 104.858 95.1826L105.038 95.3322C106.022 96.0878 106.781 96.5591 107.314 96.7387C107.847 96.9182 108.313 96.7985 108.704 96.3871C108.952 96.1327 109.057 95.826 109.027 95.4893C108.997 95.1452 108.899 94.831 108.741 94.5542C108.584 94.2699 108.478 93.9632 108.441 93.634C108.403 93.2974 108.493 93.0131 108.726 92.7737C108.974 92.5193 109.252 92.3772 109.545 92.3547C109.838 92.3398 110.108 92.437 110.341 92.6615C110.829 93.1253 110.965 93.7687 110.747 94.5766C110.529 95.3846 110.048 96.1776 109.297 96.9556C108.403 97.8833 107.412 98.392 106.323 98.4968C105.234 98.594 104.197 98.2723 103.198 97.5242L100.299 95.3547ZM102.432 91.2849C102.132 91.5991 102.011 91.9732 102.086 92.4146C102.162 92.856 102.372 93.2226 102.717 93.5143L103.251 93.9407C103.694 94.2924 104.122 94.4644 104.535 94.4644C104.948 94.4644 105.301 94.3148 105.602 94.0081C105.895 93.7013 106.03 93.3497 106 92.9457C105.97 92.5418 105.782 92.1677 105.421 91.8311C104.918 91.3448 104.377 91.0455 103.799 90.9258C103.236 90.8136 102.777 90.9258 102.432 91.2849Z" fill="#EF4123"/>
<path d="M93.5538 97.7562C93.9819 97.4644 94.4025 97.3672 94.8306 97.4644C95.2588 97.5617 95.6419 97.8535 95.9799 98.3472L97.5572 100.644L97.9854 100.352C98.1055 100.27 98.2106 100.285 98.2933 100.405L98.3984 100.554C98.481 100.681 98.4661 100.779 98.3459 100.868L98.1205 101.025C97.8726 101.198 97.7149 101.422 97.6548 101.691C97.5947 101.968 97.6248 102.26 97.76 102.559C97.8276 102.724 97.8051 102.843 97.6999 102.911L97.5197 103.038C97.3845 103.128 97.2717 103.105 97.1741 102.963L96.5657 102.088L95.5217 102.799C95.4766 102.828 95.4166 102.843 95.3565 102.828C95.2964 102.821 95.2513 102.784 95.2137 102.731L95.1085 102.582C95.071 102.529 95.0635 102.469 95.0786 102.417C95.0936 102.357 95.1236 102.312 95.1687 102.282L96.2127 101.572L94.6203 99.2599C94.5001 99.0879 94.365 98.9831 94.2072 98.9382C94.0495 98.8934 93.8992 98.9158 93.7715 99.0056C93.4561 99.2225 93.3434 99.4919 93.426 99.8285C93.426 99.9407 93.381 100.016 93.2834 100.06C93.1932 100.098 93.1181 100.083 93.058 100.001C92.8252 99.6564 92.7426 99.2749 92.8102 98.841C92.8778 98.4146 93.1256 98.048 93.5538 97.7562Z" fill="#EF4123"/>
<path d="M89.4903 100.217C90.2564 99.7985 91.0151 99.6863 91.7662 99.8733C92.5174 100.06 93.0807 100.487 93.4412 101.153C93.8093 101.826 93.8694 102.514 93.6215 103.217C93.3736 103.921 92.9004 104.467 92.2169 104.841C91.4733 105.245 90.7372 105.357 89.9861 105.17C89.2424 104.983 88.6791 104.557 88.3111 103.883C87.943 103.21 87.8679 102.529 88.0932 101.833C88.3261 101.145 88.7842 100.599 89.4903 100.217ZM89.5428 100.726C89.2799 100.868 89.1373 101.1 89.1298 101.422C89.1147 101.736 89.2274 102.118 89.4677 102.544C89.663 102.903 89.9184 103.24 90.2339 103.562C90.5494 103.883 90.8874 104.123 91.2554 104.287C91.6235 104.452 91.9314 104.459 92.1943 104.325C92.7877 104.003 92.8328 103.382 92.3296 102.462C92.1418 102.125 91.8939 101.796 91.5784 101.474C91.263 101.153 90.9174 100.913 90.5344 100.741C90.1513 100.569 89.8207 100.577 89.5428 100.726Z" fill="#EF4123"/>
<path d="M82.167 103.472C82.9331 103.195 83.6617 103.217 84.3452 103.532C85.0287 103.846 85.5019 104.355 85.7498 105.05C86.0202 105.806 85.9901 106.502 85.6446 107.145C85.2991 107.788 84.7658 108.237 84.0448 108.507C83.4514 108.724 82.8956 108.776 82.3848 108.649C81.8666 108.522 81.536 108.26 81.3933 107.863C81.3408 107.714 81.3483 107.572 81.4159 107.437C81.4835 107.302 81.6337 107.197 81.8515 107.123C82.0167 107.07 82.1895 107.078 82.3473 107.138C82.5125 107.197 82.6552 107.287 82.7904 107.399C82.9181 107.512 83.0533 107.624 83.1885 107.736C83.3237 107.848 83.4739 107.931 83.6316 107.983C83.7894 108.035 83.9546 108.035 84.1199 107.975C84.4128 107.871 84.6006 107.661 84.6832 107.34C84.7658 107.018 84.7358 106.674 84.6006 106.285C84.3602 105.611 84.0072 105.133 83.534 104.841C83.0683 104.549 82.565 104.504 82.0318 104.691C81.4834 104.886 81.153 105.267 81.0403 105.843C81.0178 105.911 80.9802 105.963 80.9276 105.993C80.8751 106.023 80.815 106.03 80.7549 106.008C80.6948 105.985 80.6572 105.941 80.6422 105.873C80.5145 105.409 80.5746 104.953 80.83 104.497C81.0854 104.04 81.5286 103.696 82.167 103.472Z" fill="#EF4123"/>
<path d="M77.8031 110.317C77.4951 110.392 77.2322 110.369 77.0144 110.235C76.7966 110.1 76.6464 109.898 76.5788 109.621C76.4436 109.075 76.6013 108.738 77.052 108.626C77.2398 108.581 77.3975 108.589 77.5177 108.656C77.6453 108.724 77.7355 108.813 77.7805 108.918C77.8256 109.023 77.9007 109.113 77.9833 109.195C78.0735 109.27 78.1786 109.292 78.3063 109.262C78.5015 109.217 78.6142 109.068 78.6517 108.821C78.6893 108.574 78.6668 108.297 78.5842 107.975L78.0584 105.896C78.0284 105.768 77.9532 105.671 77.8406 105.604C77.7279 105.537 77.6228 105.477 77.5101 105.424C77.3975 105.372 77.3449 105.32 77.3224 105.252L77.3148 105.207C77.2848 105.088 77.3449 105.013 77.5026 104.968L79.478 104.474C79.6433 104.429 79.7409 104.474 79.771 104.586L79.7784 104.631C79.7934 104.699 79.7559 104.826 79.6508 105.005C79.5531 105.185 79.5231 105.357 79.5606 105.514L80.1765 107.945C80.2216 108.11 80.3342 108.245 80.537 108.335C80.7323 108.424 80.845 108.507 80.86 108.574L80.8675 108.619C80.8901 108.716 80.8375 108.821 80.7098 108.926L79.5757 109.831C79.3729 109.995 79.2452 109.95 79.1851 109.711L78.9898 108.933C78.9297 109.666 78.5317 110.137 77.8031 110.317Z" fill="#EF4123"/>
<path d="M72.5902 105.806C73.454 105.679 74.2051 105.836 74.8435 106.277C75.482 106.719 75.8575 107.31 75.9702 108.065C76.0829 108.821 75.8951 109.487 75.4144 110.063C74.9337 110.639 74.3027 110.983 73.5291 111.095C72.6954 111.215 71.9592 111.058 71.3283 110.624C70.6898 110.19 70.3218 109.599 70.2091 108.836C70.0965 108.08 70.2693 107.407 70.7274 106.838C71.1781 106.262 71.8015 105.918 72.5902 105.806ZM72.4625 106.3C72.162 106.345 71.9517 106.509 71.8316 106.801C71.7039 107.093 71.6814 107.482 71.749 107.975C71.809 108.379 71.9292 108.783 72.1095 109.195C72.2897 109.606 72.5226 109.95 72.8081 110.235C73.0935 110.512 73.3789 110.631 73.6719 110.594C74.3403 110.497 74.6032 109.935 74.4529 108.896C74.4004 108.514 74.2802 108.118 74.0999 107.714C73.9197 107.31 73.6794 106.958 73.3789 106.666C73.086 106.374 72.7779 106.255 72.4625 106.3Z" fill="#EF4123"/>
<path d="M67.2123 106.292C67.9033 106.262 68.4741 106.359 68.9248 106.576C69.3755 106.801 69.6084 107.085 69.6234 107.422C69.6309 107.616 69.5783 107.766 69.4656 107.871C69.3454 107.975 69.1877 108.035 68.9924 108.043C68.7746 108.05 68.6018 107.99 68.4666 107.848C68.3314 107.706 68.2263 107.549 68.1662 107.377C68.1061 107.197 67.9935 107.04 67.8357 106.906C67.678 106.763 67.4827 106.704 67.2348 106.711C67.002 106.719 66.8067 106.793 66.664 106.921C66.5213 107.048 66.4536 107.227 66.4611 107.459C66.4762 107.714 66.5889 107.916 66.8067 108.058C67.0245 108.2 67.2799 108.297 67.5878 108.357C67.8883 108.417 68.1963 108.492 68.4967 108.574C68.8047 108.656 69.0675 108.813 69.2853 109.045C69.5031 109.277 69.6233 109.584 69.6383 109.973C69.6609 110.429 69.4732 110.818 69.0676 111.132C68.6695 111.447 68.1362 111.619 67.4752 111.649C66.8067 111.679 66.2584 111.574 65.8227 111.342C65.3871 111.11 65.1617 110.818 65.1467 110.467C65.1392 110.31 65.1918 110.175 65.312 110.063C65.4322 109.95 65.5749 109.891 65.7476 109.883C65.9504 109.876 66.1232 109.943 66.2509 110.078C66.3786 110.22 66.4762 110.377 66.5363 110.549C66.5964 110.721 66.694 110.878 66.8367 111.02C66.9719 111.162 67.1522 111.222 67.3625 111.215C67.5728 111.207 67.7455 111.125 67.8732 110.983C68.0009 110.841 68.0535 110.661 68.046 110.467C68.0385 110.265 67.9709 110.1 67.8582 109.973C67.7455 109.846 67.5953 109.748 67.4151 109.681C67.2348 109.621 67.0395 109.561 66.8217 109.509C66.6038 109.457 66.386 109.397 66.1682 109.337C65.9504 109.277 65.7476 109.187 65.5674 109.09C65.3871 108.993 65.2369 108.843 65.1167 108.656C64.9965 108.462 64.9289 108.23 64.9214 107.953C64.8989 107.512 65.0941 107.138 65.5072 106.823C65.9278 106.502 66.4912 106.33 67.2123 106.292Z" fill="#EF4123"/>
<path d="M62.1649 106.232C62.8559 106.277 63.4117 106.434 63.8323 106.704C64.2529 106.973 64.4558 107.28 64.4332 107.624C64.4182 107.818 64.3506 107.961 64.2229 108.05C64.0952 108.14 63.93 108.185 63.7347 108.17C63.5244 108.155 63.3517 108.073 63.2315 107.916C63.1113 107.759 63.0211 107.594 62.9836 107.414C62.9385 107.235 62.8484 107.063 62.7056 106.906C62.5629 106.749 62.3751 106.666 62.1273 106.651C61.8944 106.636 61.6992 106.689 61.5415 106.801C61.3837 106.913 61.301 107.085 61.286 107.31C61.271 107.564 61.3611 107.774 61.5639 107.938C61.7667 108.103 62.0072 108.23 62.3076 108.32C62.6006 108.417 62.901 108.522 63.1939 108.634C63.4868 108.746 63.7272 108.933 63.9224 109.187C64.1177 109.442 64.2004 109.756 64.1779 110.145C64.1478 110.601 63.915 110.968 63.4868 111.237C63.0512 111.507 62.5103 111.626 61.8494 111.581C61.1809 111.537 60.6477 111.379 60.242 111.095C59.8364 110.818 59.6487 110.504 59.6637 110.153C59.6712 109.995 59.7462 109.868 59.8739 109.771C60.0016 109.674 60.1519 109.629 60.3322 109.636C60.535 109.651 60.7001 109.734 60.8128 109.883C60.9255 110.04 61.0081 110.205 61.0457 110.384C61.0833 110.564 61.1658 110.729 61.2935 110.886C61.4137 111.043 61.5865 111.125 61.7968 111.14C62.0071 111.155 62.1874 111.095 62.3301 110.961C62.4728 110.833 62.5479 110.661 62.5555 110.467C62.5705 110.265 62.5254 110.093 62.4202 109.951C62.3151 109.808 62.1799 109.696 62.0147 109.614C61.8419 109.532 61.6541 109.457 61.4438 109.382C61.2335 109.307 61.0231 109.225 60.8128 109.135C60.6025 109.045 60.4073 108.948 60.242 108.828C60.0768 108.709 59.9416 108.552 59.8439 108.35C59.7463 108.148 59.7087 107.908 59.7237 107.624C59.7538 107.183 59.9867 106.831 60.4298 106.569C60.8655 106.292 61.4438 106.188 62.1649 106.232Z" fill="#EF4123"/>
<path d="M55.2245 105.305C55.7278 105.402 56.0958 105.641 56.3287 106.008C56.5615 106.375 56.6141 106.861 56.5014 107.444L55.9606 110.175L56.4714 110.272C56.6142 110.302 56.6742 110.384 56.6442 110.527L56.6066 110.706C56.5765 110.856 56.4939 110.916 56.3437 110.886L56.0733 110.833C55.7804 110.773 55.51 110.818 55.2696 110.968C55.0293 111.118 54.8489 111.342 54.7288 111.649C54.6612 111.813 54.5635 111.881 54.4283 111.851L54.2105 111.806C54.0528 111.776 53.9927 111.679 54.0227 111.507L54.218 110.459L52.9786 110.212C52.9186 110.197 52.8734 110.167 52.8434 110.123C52.8058 110.07 52.7984 110.018 52.8134 109.951L52.8509 109.771C52.8659 109.711 52.896 109.659 52.9486 109.629C53.0012 109.599 53.0537 109.591 53.1138 109.599L54.3532 109.846L54.8941 107.1C54.9316 106.898 54.9166 106.726 54.8339 106.577C54.7513 106.434 54.6311 106.345 54.4734 106.315C54.0978 106.24 53.8199 106.352 53.6397 106.644C53.557 106.726 53.4669 106.741 53.3768 106.704C53.2791 106.666 53.2415 106.599 53.2641 106.502C53.3467 106.098 53.5645 105.769 53.9251 105.514C54.2781 105.275 54.7138 105.2 55.2245 105.305Z" fill="#EF4123"/>
<path d="M47.6982 104.452C47.7358 104.28 47.7133 104.108 47.6382 103.928C47.5631 103.748 47.5405 103.621 47.5556 103.546L47.5706 103.509C47.6082 103.389 47.6982 103.359 47.8559 103.404L49.6887 103.965C49.8464 104.01 49.9065 104.093 49.869 104.212L49.8539 104.257C49.8314 104.325 49.7337 104.414 49.561 104.512C49.3882 104.616 49.2756 104.751 49.238 104.916L48.7348 106.92C48.4794 107.923 48.6371 108.506 49.2005 108.679C49.4859 108.768 49.7337 108.731 49.9516 108.574C50.1694 108.417 50.3347 108.17 50.4398 107.826L51.1609 105.499C51.2059 105.342 51.1834 105.17 51.0707 104.975C50.9581 104.781 50.9206 104.654 50.9431 104.586L50.958 104.541C50.9956 104.429 51.0933 104.392 51.266 104.444L53.2114 105.035C53.3691 105.088 53.4367 105.17 53.3992 105.282L53.3842 105.32C53.3617 105.387 53.2565 105.469 53.0612 105.574C52.8734 105.671 52.7532 105.798 52.7007 105.955L51.1309 111.065C51.0783 111.23 51.1158 111.402 51.2285 111.581C51.3487 111.761 51.3937 111.88 51.3712 111.948L51.3637 111.978C51.3336 112.082 51.236 112.142 51.0782 112.172L49.5084 112.344C49.3732 112.359 49.2831 112.337 49.223 112.277C49.1704 112.225 49.1554 112.142 49.1854 112.038L50.1469 108.963C49.6962 109.247 49.178 109.299 48.5921 109.12C48.0588 108.955 47.6606 108.649 47.3902 108.2C47.1198 107.751 47.0748 107.152 47.2476 106.412L47.6982 104.452Z" fill="#EF4123"/>
<path d="M42.6809 102.941C42.5832 102.993 42.5005 102.986 42.4254 102.926C42.3503 102.866 42.3353 102.784 42.3879 102.686C42.5682 102.357 42.9212 102.11 43.432 101.946C43.9427 101.781 44.4985 101.826 45.0918 102.08C45.8054 102.387 46.2935 102.873 46.5489 103.532C46.8043 104.19 46.7743 104.893 46.4438 105.641C46.1359 106.345 45.6476 106.816 44.9716 107.07C44.2957 107.317 43.6197 107.295 42.9437 107.003C42.3278 106.741 41.9222 106.389 41.7119 105.97C41.5016 105.544 41.4791 105.148 41.6443 104.781C41.7795 104.482 42.0199 104.325 42.3729 104.325L45.0467 104.302C45.0167 103.614 44.7013 103.135 44.0854 102.866C43.83 102.754 43.5746 102.709 43.3268 102.731C43.0639 102.754 42.8536 102.821 42.6809 102.941ZM43.3042 106.651C43.5671 106.763 43.83 106.734 44.0929 106.554C44.3558 106.374 44.5661 106.098 44.7388 105.716C44.8816 105.394 44.9717 105.095 45.0092 104.826L43.4244 104.901C43.2141 104.908 43.0564 105.028 42.9588 105.252C42.8611 105.477 42.8311 105.739 42.8762 106.045C42.9212 106.345 43.0639 106.547 43.3042 106.651Z" fill="#EF4123"/>
<path d="M38.5421 98.6239C39.2332 99.0504 39.6688 99.6339 39.8491 100.367C40.0294 101.1 39.9242 101.781 39.5261 102.409C39.098 103.09 38.5346 103.494 37.8136 103.621C37.0925 103.749 36.409 103.614 35.748 103.217C35.2072 102.888 34.8316 102.484 34.6062 102.005C34.3884 101.527 34.3884 101.1 34.6062 100.741C34.6889 100.606 34.8091 100.524 34.9518 100.494C35.0945 100.464 35.2748 100.517 35.4701 100.644C35.6128 100.741 35.7104 100.876 35.763 101.04C35.8156 101.205 35.8381 101.377 35.8306 101.549C35.8231 101.721 35.8156 101.893 35.8081 102.065C35.8081 102.237 35.8306 102.409 35.8907 102.566C35.9508 102.724 36.0484 102.851 36.1986 102.941C36.4615 103.105 36.7394 103.12 37.0474 102.985C37.3478 102.851 37.6108 102.611 37.8286 102.267C38.2117 101.661 38.3618 101.085 38.3018 100.539C38.2417 99.993 37.9713 99.574 37.4906 99.2748C37.0023 98.9681 36.4916 98.9531 35.9733 99.215C35.9057 99.2374 35.8456 99.2449 35.7855 99.215C35.7254 99.1925 35.6879 99.1476 35.6654 99.0878C35.6428 99.0279 35.6578 98.9756 35.7029 98.9157C35.9883 98.5267 36.3939 98.2948 36.9047 98.205C37.423 98.1377 37.9713 98.2723 38.5421 98.6239Z" fill="#EF4123"/>
<path d="M31.7371 95.1526C31.8197 95.0105 31.8723 94.8758 31.8798 94.7636C31.8948 94.6439 31.8798 94.5542 31.8498 94.4943C31.8122 94.4345 31.7822 94.3746 31.7672 94.3148C31.7521 94.2549 31.7596 94.2025 31.7972 94.1502C31.9249 93.9856 32.2629 94.1202 32.8262 94.5542C33.0816 94.7561 33.2393 94.9282 33.3069 95.0853C33.3745 95.2424 33.352 95.4145 33.2393 95.609C33.72 95.4594 34.2308 95.594 34.7791 96.013C35.2673 96.3945 35.5677 96.806 35.6954 97.2623C35.8231 97.7187 35.7255 98.1526 35.4025 98.564C35.087 98.9755 34.6965 99.1775 34.2158 99.17C33.7426 99.1625 33.2768 98.983 32.8187 98.6314C32.4356 98.3321 32.1878 98.003 32.0751 97.6439L32.0075 97.7561C31.647 98.3396 31.4291 98.7735 31.3615 99.0803C31.2939 99.3795 31.3841 99.6264 31.632 99.8209C31.7897 99.9406 31.9624 99.9855 32.1427 99.9481C32.3305 99.9106 32.4957 99.8433 32.6459 99.7386C32.7962 99.6338 32.9539 99.559 33.1416 99.5216C33.3219 99.4767 33.4872 99.5142 33.6299 99.6264C33.7876 99.7461 33.8777 99.8882 33.9003 100.053C33.9303 100.21 33.8853 100.367 33.7726 100.509C33.5398 100.801 33.1942 100.913 32.7361 100.838C32.2779 100.764 31.8122 100.547 31.3465 100.18C30.7832 99.7461 30.4452 99.2299 30.3325 98.6389C30.2198 98.0478 30.3401 97.4643 30.6931 96.8808L31.7371 95.1526ZM34.1031 96.0953C33.9153 95.9456 33.6975 95.9082 33.4647 95.9681C33.2318 96.0279 33.0365 96.1701 32.8938 96.3721L32.691 96.6863C32.5258 96.9481 32.4507 97.1875 32.4732 97.4194C32.4957 97.6439 32.6009 97.8309 32.7886 97.973C32.9764 98.1152 33.1792 98.1675 33.397 98.1301C33.6149 98.0927 33.8101 97.9656 33.9829 97.7561C34.2232 97.4494 34.3585 97.1426 34.3885 96.8209C34.4035 96.4993 34.3134 96.2599 34.1031 96.0953Z" fill="#EF4123"/>
<path d="M27.1178 90.6565C27.2304 90.5218 27.2905 90.3573 27.3131 90.1627C27.3356 89.9682 27.3656 89.8411 27.4257 89.7887L27.4558 89.7588C27.5384 89.669 27.6435 89.6914 27.7637 89.8036L29.1157 91.1428C29.2359 91.2625 29.2509 91.3597 29.1683 91.4495L29.1383 91.4794C29.0857 91.5318 28.958 91.5617 28.7552 91.5767C28.5524 91.5842 28.3871 91.659 28.2669 91.7936L26.945 93.2824C26.2164 94.0829 26.0587 94.6963 26.4793 95.1078C26.6896 95.3173 26.93 95.3996 27.1929 95.3622C27.4633 95.3247 27.7261 95.1826 27.974 94.9282L29.6941 93.2001C29.8142 93.0804 29.8743 92.9083 29.8668 92.6914C29.8593 92.4744 29.8818 92.3398 29.9344 92.2874L29.9644 92.2575C30.0546 92.1677 30.1523 92.1901 30.2724 92.3098L31.7295 93.7462C31.8497 93.8659 31.8647 93.9632 31.7821 94.053L31.7521 94.0829C31.6995 94.1352 31.5643 94.1577 31.3465 94.1502C31.1287 94.1502 30.9559 94.2026 30.8358 94.3298L29.0706 96.1103C28.9955 96.1851 28.9429 96.2748 28.9204 96.3721C28.8979 96.4694 28.8979 96.5591 28.9204 96.6339C28.9429 96.7088 28.9505 96.7911 28.9505 96.8659C28.9505 96.9482 28.9279 97.008 28.8904 97.0454L28.8603 97.0753C28.8078 97.1352 28.7026 97.1352 28.5448 97.0828L27.1704 96.604C27.0427 96.5591 26.9675 96.4918 26.96 96.417C26.945 96.3422 26.9826 96.2599 27.0652 96.1776L27.4858 95.7512C26.8549 95.9457 26.2615 95.7661 25.7132 95.2275C25.3151 94.8385 25.1123 94.3746 25.0898 93.836C25.0673 93.3048 25.3151 92.7288 25.8409 92.1228L27.1178 90.6565Z" fill="#EF4123"/>
<path d="M23.5124 86.2577C23.6251 86.138 23.7077 86.0258 23.7453 85.9136C23.7828 85.8013 23.7978 85.7116 23.7753 85.6442C23.7528 85.5769 23.7453 85.5096 23.7377 85.4497C23.7302 85.3899 23.7603 85.3375 23.8053 85.2926C23.9706 85.1654 24.271 85.3749 24.7067 85.921C24.9095 86.1754 25.0222 86.3849 25.0522 86.5495C25.0822 86.714 25.0222 86.8861 24.8644 87.0432C25.3677 87.0058 25.8334 87.2602 26.269 87.7913C26.6521 88.2701 26.8549 88.7489 26.8699 89.2202C26.8924 89.6915 26.6971 90.0881 26.284 90.4172C25.8859 90.7389 25.4503 90.8437 24.9921 90.7314C24.5264 90.6117 24.1208 90.3274 23.7603 89.8861C23.4598 89.512 23.2946 89.1305 23.2645 88.7489L23.1744 88.8387C22.6862 89.3175 22.3707 89.699 22.2355 89.9758C22.1003 90.2526 22.1303 90.5145 22.3256 90.7614C22.4458 90.9185 22.6111 91.0008 22.7988 91.0082C22.9866 91.0157 23.1669 90.9858 23.3321 90.9185C23.4974 90.8511 23.6776 90.8212 23.8579 90.8212C24.0457 90.8212 24.1959 90.896 24.3086 91.0382C24.4288 91.1953 24.4888 91.3524 24.4738 91.517C24.4588 91.6815 24.3837 91.8162 24.2485 91.9284C23.9556 92.1603 23.595 92.1828 23.1669 92.0107C22.7387 91.8312 22.3406 91.5095 21.9651 91.0456C21.5219 90.492 21.3116 89.916 21.3342 89.31C21.3567 88.7115 21.6121 88.1654 22.1003 87.6791L23.5124 86.2577ZM25.593 87.7165C25.4428 87.5295 25.2475 87.4397 24.9996 87.4472C24.7517 87.4547 24.5339 87.5445 24.3461 87.709L24.0682 87.9709C23.8429 88.1878 23.7152 88.4048 23.6852 88.6292C23.6551 88.8537 23.7152 89.0556 23.8579 89.2427C24.0081 89.4222 24.1884 89.527 24.4137 89.5419C24.6391 89.5569 24.8569 89.4821 25.0672 89.31C25.3676 89.0706 25.578 88.7938 25.6831 88.4946C25.7883 88.1953 25.7582 87.9335 25.593 87.7165Z" fill="#EF4123"/>
<path d="M23.873 84.8363C23.9632 84.9785 23.9631 85.0832 23.858 85.1505L23.8204 85.173C23.7603 85.2104 23.6326 85.2104 23.4223 85.1805C23.2195 85.1431 23.0468 85.173 22.9116 85.2628L18.5026 88.1954C18.3448 88.3001 18.2472 88.4497 18.2021 88.6517C18.1571 88.8537 18.112 88.9734 18.0594 89.0033L18.0218 89.0258C17.9542 89.0707 17.8491 89.0557 17.7214 88.9659L16.3919 88.1879C16.2643 88.0981 16.1967 88.0083 16.1892 87.9186C16.1817 87.8288 16.2192 87.7615 16.3018 87.7016L22.0028 83.9087C22.138 83.8189 22.2281 83.6618 22.2656 83.4523C22.3032 83.2354 22.3558 83.1082 22.4159 83.0708L22.4534 83.0483C22.5586 82.981 22.6562 83.0184 22.7464 83.1531L23.873 84.8363Z" fill="#EF4123"/>
<path d="M8.83557 80.961C9.27122 81.1405 9.61674 81.4996 9.87212 82.0233C10.12 82.5545 10.1801 83.0482 10.0449 83.512C9.90966 83.9759 9.61673 84.32 9.15855 84.537C8.70788 84.7464 8.26474 84.7539 7.82159 84.5594C7.37843 84.3649 7.03291 84.0058 6.78504 83.4746C6.53718 82.9435 6.48457 82.4572 6.61977 82.0009C6.76249 81.5445 7.05545 81.2153 7.49861 81.0059C7.94928 80.7964 8.39993 80.7739 8.83557 80.961ZM20.3802 79.0982C20.5079 79.36 20.4704 79.5396 20.2676 79.6368L20.2 79.6667C20.0798 79.7191 19.8469 79.6967 19.4864 79.5844C19.1334 79.4722 18.8104 79.4872 18.5325 79.6144L14.5366 81.4847C14.2436 81.6193 14.0183 81.8662 13.8681 82.2178C13.7178 82.5694 13.5901 82.7639 13.5 82.8088L13.4474 82.8313C13.3273 82.8836 13.147 82.8163 12.8991 82.6293L10.7434 80.8936C10.5406 80.7066 10.4505 80.5346 10.458 80.3625C10.473 80.1979 10.5707 80.0707 10.7434 79.9884L17.2631 76.9361C17.5485 76.8015 17.7513 76.5546 17.879 76.188C18.0067 75.8214 18.1344 75.612 18.2471 75.5521L18.3222 75.5222C18.525 75.4249 18.6827 75.5222 18.8179 75.7915L20.3802 79.0982Z" fill="#EF4123"/>
<path d="M13.53 65.3553C13.823 65.2431 14.0708 65.0485 14.2736 64.7568C14.4764 64.465 14.6492 64.3004 14.7844 64.263L14.8595 64.2406C15.0698 64.1807 15.22 64.3004 15.3026 64.5922L16.2265 67.9063C16.3092 68.1981 16.2416 68.3777 16.0312 68.4375L15.9561 68.46C15.8284 68.4974 15.6031 68.43 15.2726 68.2654C14.9421 68.1009 14.6267 68.0709 14.3112 68.1682L10.8861 69.3278C9.01582 69.9412 8.22718 70.7567 8.5126 71.7816C8.65531 72.2903 8.95576 72.6419 9.41394 72.8215C9.87212 73.001 10.4129 73.0085 11.0438 72.8364L15.3177 71.6544C15.6181 71.5721 15.866 71.3552 16.0463 71.011C16.2341 70.6669 16.3918 70.4724 16.512 70.435L16.5871 70.4125C16.7974 70.3527 16.9476 70.4724 17.0302 70.7641L18.0292 74.3252C18.1118 74.6169 18.0442 74.7965 17.8339 74.8563L17.7588 74.8788C17.6311 74.9162 17.3983 74.8339 17.0603 74.6319C16.7223 74.4299 16.3993 74.3701 16.0988 74.4524L11.7123 75.6643C11.5246 75.7167 11.3668 75.8139 11.2467 75.9486C11.119 76.0832 11.0439 76.2254 11.0063 76.3675C10.9687 76.5097 10.9161 76.6368 10.841 76.764C10.7659 76.8912 10.6833 76.966 10.5782 76.9885L10.5031 77.0109C10.3679 77.0483 10.1951 76.9585 9.99979 76.7341L8.27224 74.7591C8.1145 74.5721 8.05444 74.4075 8.10701 74.2803C8.15959 74.1531 8.28728 74.0559 8.48257 74.0035L9.5341 73.7117C8.36236 73.4424 7.58875 72.6419 7.22071 71.3028C6.95031 70.3302 7.04043 69.4175 7.4911 68.5572C7.94176 67.6969 8.84309 67.0236 10.2101 66.5373L13.53 65.3553Z" fill="#EF4123"/>
<path d="M15.1075 58.8093C15.1976 60.2756 14.7995 61.5249 13.8981 62.5648C12.9968 63.5972 11.8777 64.1583 10.5407 64.2406C9.0835 64.3304 7.88172 63.9189 6.93531 63.0062C5.98891 62.0935 5.46311 60.9414 5.36546 59.5499C5.27533 58.4128 5.47811 57.4252 5.95883 56.5948C6.43954 55.7569 7.06301 55.3156 7.82914 55.2707C8.11457 55.2557 8.36242 55.338 8.55771 55.525C8.76051 55.7121 8.86566 56.0188 8.88068 56.4377C8.88819 56.7519 8.79806 57.0362 8.60277 57.2906C8.40748 57.5449 8.18217 57.7544 7.91928 57.919C7.65638 58.0836 7.39346 58.2631 7.13057 58.4352C6.86768 58.6147 6.64986 58.8242 6.4771 59.0711C6.30434 59.318 6.22924 59.6023 6.25177 59.924C6.28933 60.4776 6.55976 60.9115 7.07803 61.2182C7.5963 61.5249 8.21969 61.6521 8.96329 61.6072C10.2627 61.5249 11.2842 61.1509 12.0203 60.485C12.7639 59.8192 13.0945 58.9813 13.0344 57.9639C12.9668 56.9165 12.4635 56.1534 11.5171 55.6672C11.412 55.5924 11.3368 55.5026 11.3143 55.3904C11.2918 55.2781 11.3068 55.1809 11.3744 55.0911C11.442 55.0013 11.5396 54.9565 11.6673 54.9639C12.5461 54.9789 13.3123 55.3156 13.9883 55.9814C14.6568 56.6547 15.0248 57.5973 15.1075 58.8093Z" fill="#EF4123"/>
<path d="M14.8595 53.6921C14.837 53.9988 14.7093 54.141 14.4915 54.1185L14.4164 54.111C14.2887 54.1035 14.0934 53.9539 13.8455 53.6771C13.5901 53.4003 13.3198 53.2432 13.0193 53.2208L3.44265 52.4352C3.10465 52.4053 2.78918 52.5101 2.49624 52.7495C2.20331 52.9814 2.00053 53.1011 1.90288 53.0861L1.82774 53.0786C1.67001 53.0637 1.54985 52.9215 1.47474 52.6522L0.475754 50.0562C0.393132 49.7869 0.400657 49.5849 0.490791 49.4503C0.580924 49.3156 0.716107 49.2632 0.896374 49.2707L13.2747 50.2882C13.5752 50.3106 13.8681 50.1984 14.1685 49.9365C14.4615 49.6747 14.6793 49.5475 14.807 49.5625L14.882 49.57C15.0999 49.5849 15.1975 49.7495 15.175 50.0488L14.8595 53.6921Z" fill="#EF4123"/>
<path d="M15.5131 38.9917C15.8511 39.074 16.1215 39.089 16.3168 39.0366C16.5121 38.9842 16.6323 38.902 16.6848 38.7897C16.7299 38.6775 16.7975 38.5803 16.8877 38.5055C16.9778 38.4232 17.098 38.4007 17.2482 38.4381C17.6162 38.5279 17.6538 39.1488 17.3683 40.2934C17.2256 40.8545 17.0304 41.2585 16.775 41.4904C16.5196 41.7223 16.1666 41.7972 15.7009 41.7074C16.437 42.463 16.6398 43.5029 16.3093 44.827C16.0464 45.8669 15.4906 46.6375 14.6268 47.1462C13.7705 47.6474 12.7114 47.7447 11.4646 47.4305L8.26483 46.63C7.94936 46.5477 7.62639 46.6001 7.28838 46.7871C6.95038 46.9666 6.74007 47.0489 6.63492 47.0265L6.57481 47.0115C6.34948 46.9517 6.25187 46.7871 6.28191 46.5103L6.52975 43.9891C6.59735 43.443 6.77764 43.2111 7.07058 43.2859L12.4561 44.6924C14.1761 45.1188 15.1676 44.8046 15.438 43.7348C15.5582 43.256 15.453 42.8146 15.115 42.3957C14.7845 41.9767 14.2888 41.6849 13.6353 41.5278L9.78961 40.5703C9.47414 40.4954 9.15117 40.5478 8.81317 40.7348C8.47517 40.9219 8.25735 41.0042 8.1597 40.9817L8.09208 40.9518C7.86675 40.8919 7.76157 40.7348 7.79162 40.4655L8.05454 37.907C8.12965 37.4057 8.30241 37.1888 8.58033 37.2561L15.5131 38.9917Z" fill="#EF4123"/>
<path d="M20.553 28.6378C20.8234 28.7724 21.1389 28.7799 21.5069 28.6677C21.875 28.5555 22.1153 28.5256 22.2355 28.5854L22.2881 28.6153C22.4834 28.7126 22.5209 28.8847 22.4083 29.1166L21.2966 31.3235C21.1614 31.6003 20.9586 31.6677 20.7032 31.5405L20.2976 31.3834C20.6507 32.2437 20.5756 33.1714 20.0798 34.1664C19.5015 35.3185 18.6151 36.104 17.4133 36.5229C16.2191 36.9493 14.9422 36.8222 13.5902 36.1489C12.3208 35.513 11.487 34.5853 11.0814 33.3584C10.6758 32.1315 10.766 30.942 11.3519 29.7824C11.7725 28.952 12.3433 28.3759 13.0794 28.0468L10.2853 26.6478C10.0524 26.5281 9.81958 26.5131 9.59425 26.5805C9.36892 26.6553 9.16612 26.7376 8.98585 26.8348C8.80558 26.9321 8.66285 26.947 8.54267 26.8947L8.49013 26.8648C8.29484 26.7675 8.2197 26.573 8.27228 26.2887L8.74549 23.6105C8.82811 23.0718 9.06095 22.8997 9.44402 23.0943L20.553 28.6378ZM19.6291 33.2013C19.8319 32.7973 19.8469 32.3634 19.6667 31.8921C19.4864 31.4208 19.1034 31.0467 18.525 30.755L15.4529 29.2213C14.8821 28.937 14.2587 28.8697 13.5902 29.0193C12.9142 29.169 12.4485 29.4981 12.1931 30.0143C11.9152 30.5604 11.9227 31.1066 12.2081 31.6452C12.4935 32.1913 13.0419 32.6701 13.8531 33.0891C14.5065 33.4482 15.2201 33.7175 16.0013 33.9045C16.7824 34.0915 17.5185 34.1364 18.217 34.0317C18.9156 33.9344 19.3888 33.6576 19.6291 33.2013Z" fill="#EF4123"/>
<path d="M25.6456 20.1915C25.6005 20.0045 25.6456 19.8549 25.7958 19.7501C25.946 19.6454 26.0887 19.6603 26.239 19.7875C26.7272 20.2588 27.0051 20.977 27.0577 21.9421C27.1103 22.9146 26.7798 23.8573 26.0587 24.77C25.1874 25.8772 24.1133 26.4981 22.8364 26.6477C21.5595 26.7974 20.3352 26.4158 19.171 25.5031C18.0743 24.6428 17.4659 23.5655 17.3382 22.2713C17.2105 20.977 17.556 19.8025 18.3748 18.7626C19.1259 17.8125 19.9221 17.2589 20.7633 17.0943C21.6046 16.9297 22.3106 17.0719 22.889 17.5207C23.3622 17.8873 23.5199 18.3811 23.3622 19.002L22.1754 23.6852C23.3998 23.9545 24.3912 23.6179 25.1424 22.6678C25.4578 22.2713 25.6531 21.8523 25.7357 21.396C25.8033 20.9546 25.7808 20.5506 25.6456 20.1915ZM18.8254 19.5781C18.5024 19.982 18.4423 20.4608 18.6376 20.9995C18.8329 21.5381 19.231 22.0394 19.8244 22.5107C20.3277 22.8997 20.8084 23.1989 21.2666 23.386L21.86 20.588C21.9426 20.214 21.8074 19.8923 21.4543 19.6155C21.1013 19.3387 20.6582 19.1741 20.1023 19.1142C19.5465 19.0469 19.1259 19.204 18.8254 19.5781Z" fill="#EF4123"/>
<path d="M34.9218 13.3538C35.1171 13.5783 35.4025 13.7129 35.7856 13.7578C36.1687 13.7952 36.4015 13.87 36.4916 13.9673L36.5292 14.0122C36.6719 14.1768 36.6419 14.3488 36.4391 14.5209L34.5538 16.1144C34.3209 16.3089 34.1106 16.3014 33.9229 16.0845L33.6149 15.7852C33.6074 16.7129 33.1718 17.5358 32.323 18.2615C31.3391 19.0919 30.2124 19.4734 28.943 19.3986C27.6736 19.3238 26.547 18.7103 25.5706 17.5657C24.6542 16.4884 24.2486 15.3064 24.3538 14.0271C24.4664 12.7404 25.0147 11.6781 26.0062 10.8402C26.7122 10.2417 27.4708 9.92747 28.2745 9.91251L26.2465 7.54098C26.0813 7.34647 25.8785 7.23426 25.6381 7.21181C25.3978 7.18937 25.1799 7.18937 24.9771 7.20433C24.7743 7.21929 24.6316 7.18189 24.549 7.08463L24.5115 7.03975C24.3688 6.86768 24.3763 6.66569 24.5415 6.42629L26.0287 4.14454C26.3141 3.68071 26.5996 3.61338 26.8775 3.93507L34.9218 13.3538ZM32.2855 17.1992C32.631 16.9074 32.8112 16.5109 32.8262 16.0096C32.8413 15.5084 32.646 15.0147 32.2178 14.5209L29.9945 11.91C29.5814 11.4237 29.0331 11.1245 28.3571 10.9973C27.6736 10.8776 27.1178 10.9973 26.6822 11.3713C26.2165 11.7678 26.0062 12.2691 26.0587 12.8825C26.1113 13.496 26.4268 14.1543 27.0051 14.8501C27.4633 15.4336 28.0192 15.9573 28.6576 16.4361C29.3035 16.9149 29.9645 17.244 30.6481 17.4161C31.3391 17.5956 31.8799 17.5208 32.2855 17.1992Z" fill="#EF4123"/>
<path d="M36.4166 9.60575C35.4852 8.58831 34.5087 7.39133 33.4721 5.99984C32.4356 4.60834 31.6695 3.50861 31.1512 2.68568C31.016 2.46125 30.9934 2.22185 31.0761 1.95253C31.1662 1.69069 31.3239 1.45878 31.5493 1.27175C31.7746 1.08472 32.03 0.927614 32.3079 0.807916C32.5858 0.688217 32.8563 0.64333 33.1342 0.688216C33.4046 0.725622 33.6149 0.867764 33.7576 1.09968C34.2984 2.01986 34.9368 3.23181 35.6804 4.75048C36.4165 6.26916 37.01 7.68309 37.4456 8.9923C37.5057 9.19429 37.393 9.3888 37.1001 9.56086C36.8071 9.73293 36.5818 9.74789 36.4166 9.60575ZM39.361 13.2191C38.9028 13.4959 38.4596 13.6007 38.0165 13.5408C37.5733 13.481 37.2202 13.2266 36.9498 12.7852C36.6719 12.3289 36.6118 11.895 36.7621 11.476C36.9123 11.0571 37.2127 10.713 37.6709 10.4362C38.1141 10.1668 38.5573 10.0621 39.0004 10.1219C39.4436 10.1818 39.7966 10.4362 40.0745 10.8925C40.3449 11.3339 40.405 11.7678 40.2548 12.1867C40.1046 12.6057 39.8041 12.9498 39.361 13.2191Z" fill="#EF4123"/>
</svg>
