<svg width="51" height="61" viewBox="0 0 51 61" fill="none" xmlns="http://www.w3.org/2000/svg">
<path d="M35.0991 33.6164L35.116 33.8586C35.1893 34.9742 35.2681 36.2362 36.0794 36.8785C36.2992 37.0531 36.6485 37.2334 37.1443 37.2334C37.2569 37.2334 37.3809 37.2221 37.5105 37.1996C38.7612 36.9911 39.9275 35.6052 39.7246 32.9854C39.6289 31.7177 39.2176 30.2754 38.5021 28.7035C38.1471 27.9204 37.3978 27.3964 36.5865 27.3626C36.1921 27.3457 34.8681 27.4359 34.6597 29.2726C34.4906 30.7374 34.6991 31.6276 34.885 32.4163C34.9808 32.8163 35.0709 33.1938 35.0991 33.6164ZM36.1132 29.4472C36.1808 28.8838 36.3442 28.8331 36.4851 28.8331C36.502 28.8331 36.5132 28.8331 36.5302 28.8331C36.7893 28.8444 37.0428 29.0359 37.1668 29.312C37.6119 30.2923 37.9161 31.1994 38.0908 32.0332C37.4767 31.8698 36.7893 32.3036 36.7273 32.822C36.671 33.391 36.6203 34.1967 36.6823 34.9066C36.6203 34.5234 36.5921 34.0896 36.5696 33.7629L36.5527 33.515C36.5132 32.9741 36.4118 32.5177 36.3048 32.0839C36.1414 31.3515 35.978 30.6585 36.1132 29.4472Z" fill="#EE4023"/>
<path d="M26.3269 28.8725C25.9325 28.8556 24.6142 28.9514 24.4001 30.7825C24.1522 32.9177 24.3719 34.0558 24.7325 35.5545C24.7888 35.7911 24.8339 36.0333 24.8733 36.2756C25.0423 37.2221 25.3184 38.7489 26.817 38.7489C26.9523 38.7489 27.0931 38.7377 27.2452 38.7095C28.496 38.501 29.6622 37.1151 29.4594 34.4953C29.3636 33.2276 28.9523 31.7853 28.2425 30.2134C27.8931 29.4303 27.1382 28.9063 26.3269 28.8725ZM25.8593 30.9515C25.9269 30.3881 26.0903 30.3374 26.2311 30.3374C26.248 30.3374 26.2593 30.3374 26.2762 30.3374C26.5354 30.3486 26.7889 30.5346 26.9185 30.8163C27.3635 31.7909 27.6621 32.698 27.8424 33.5318C27.2847 33.4079 26.6593 33.7459 26.5523 34.2136C26.4339 34.6925 26.3156 35.3291 26.3044 35.9094C26.2649 35.6784 26.2198 35.4418 26.1635 35.2164C25.8255 33.8248 25.6395 32.8501 25.8593 30.9515ZM26.5861 37.0813C26.6368 37.1432 26.6875 37.2108 26.7607 37.2559C26.7776 37.2672 26.7945 37.2728 26.8114 37.2841C26.7213 37.2728 26.6537 37.2221 26.5861 37.0813Z" fill="#EE4023"/>
<path d="M36.609 23.7906C36.2033 23.8019 35.8878 24.1399 35.8991 24.5456C35.9104 24.9456 36.2371 25.2555 36.6315 25.2555C36.6371 25.2555 36.6484 25.2555 36.6541 25.2555C36.6766 25.2555 37.3696 25.2442 38.2597 25.6217L39.8485 26.6978C40.2542 27.0978 40.6429 27.5992 40.9866 28.2471C41.1162 28.495 41.3697 28.6415 41.6345 28.6415C41.7472 28.6415 41.8655 28.6133 41.9725 28.557C42.3331 28.3711 42.4683 27.926 42.2824 27.5711C40.2654 23.7343 36.7555 23.785 36.609 23.7906Z" fill="#EE4023"/>
<path d="M21.2282 31.1655C21.3014 31.1881 21.3803 31.1993 21.4535 31.1993C21.7634 31.1993 22.0508 31.0021 22.1522 30.6923C23.4367 26.7203 26.9749 26.4161 27.1383 26.4048C27.5383 26.3766 27.8481 26.033 27.82 25.6273C27.7974 25.2217 27.4481 24.9174 27.0425 24.94C26.8509 24.9512 22.355 25.2836 20.7549 30.2359C20.631 30.6247 20.8451 31.0416 21.2282 31.1655Z" fill="#EE4023"/>
<path d="M41.0881 44.6646C40.7106 44.5068 40.288 44.6759 40.1246 45.0533C40.012 45.3181 37.5161 50.9747 30.3835 50.169C27.2397 49.2225 26.5749 46.2027 26.0453 43.7688C25.8594 42.9293 25.7016 42.2025 25.4537 41.656C24.8903 40.4278 24.0227 39.6841 23.0085 39.5658C21.9719 39.4419 20.9183 39.994 20.0282 41.1208C19.3521 41.9772 18.9239 43.6054 19.4929 45.3069C20.107 47.1436 22.0677 49.6507 27.9214 51.1888C29.3017 51.5494 30.5581 51.7071 31.6962 51.7071C38.7781 51.7071 41.443 45.7013 41.4712 45.628C41.6346 45.2562 41.4599 44.8224 41.0881 44.6646ZM20.8845 44.8393C20.4338 43.4871 20.8789 42.4054 21.1831 42.0279C21.7015 41.3687 22.248 41.0138 22.7268 41.0138C22.7663 41.0138 22.8001 41.0138 22.8395 41.0194C23.3184 41.0757 23.7917 41.5321 24.1241 42.2645C24.31 42.6702 24.4509 43.3237 24.6199 44.0843C24.879 45.2618 25.2002 46.721 25.8763 48.0563L24.4903 46.552C23.8818 45.5379 23.6339 44.6928 23.6227 44.659C23.5156 44.2702 23.1156 44.0392 22.7268 44.1406C22.3381 44.2477 22.1071 44.6477 22.2085 45.0364C22.2367 45.1379 22.6085 46.4506 23.5945 47.876C21.9156 46.8393 21.1831 45.7351 20.8845 44.8393Z" fill="#EE4023"/>
<path d="M32.2933 41.8645C32.3497 41.8983 33.2286 42.4561 34.5131 42.4561C35.1948 42.4561 35.9949 42.2984 36.84 41.8251C38.5696 40.8561 38.2766 39.6053 38.1471 39.2504C37.8147 38.3264 36.7555 37.7179 35.7921 37.8926L33.5779 38.2982C33.1779 38.3715 32.9187 38.7546 32.992 39.1489C33.0652 39.549 33.4483 39.8081 33.8427 39.7349L36.0569 39.3292C36.316 39.2842 36.6822 39.4926 36.7724 39.7405C36.8963 40.0786 36.3047 40.4391 36.1245 40.5405C34.4737 41.4702 33.1384 40.6589 33.0877 40.6307C32.7497 40.411 32.2933 40.5067 32.0736 40.8504C31.8595 41.1941 31.9553 41.6448 32.2933 41.8645Z" fill="#EE4023"/>
<path d="M50.8405 6.7816C51.2856 4.80406 50.7898 2.96174 49.4714 1.72226C47.5221 -0.108786 44.0572 -0.424291 39.7077 0.84336C37.2175 1.57015 34.13 3.39556 31.1328 5.71114C29.6848 4.51109 24.1804 0.888432 14.1575 4.76462C4.87267 8.35348 1.14297 15.1988 3.05853 25.1203C-0.907811 28.3824 -0.597941 35.0643 1.61622 39.4701C2.90077 42.0166 5.90933 44.8336 8.87282 45.3294C9.12634 47.7464 10.0954 50.0338 11.7856 52.1691C18.2591 60.344 27.4763 59.3017 29.7806 58.8905C30.6088 59.8877 31.9046 60.4849 33.2004 60.4849C33.454 60.4849 33.7075 60.4623 33.961 60.4173C35.4484 60.1356 36.5358 59.0877 36.9752 57.5158C48.2601 55.6678 49.5785 43.9604 49.5954 43.8195C50.0405 37.4362 46.3727 34.5065 44.953 33.6163C45.8037 28.219 44.4008 23.7963 43.2402 21.2497C43.9726 20.9962 44.536 20.6356 44.8628 20.1285C47.0206 16.7763 44.9417 15.7002 43.8487 15.3791C45.4093 14.134 50.0686 10.2014 50.8405 6.7816ZM14.7209 6.2351C23.4761 2.84906 28.3439 5.57592 29.8595 6.71962C25.6452 10.2014 21.8085 14.5058 20.338 17.8975C20.3098 17.9595 20.2929 18.0158 20.2817 18.0778C15.1716 19.4637 9.92074 21.3568 5.37973 23.9202C5.06986 24.0442 4.7769 24.1625 4.50646 24.2808C2.96275 15.4016 6.31498 9.48592 14.7209 6.2351ZM43.3078 33.8868L43.2008 34.484L43.7416 34.7431C43.9332 34.8389 48.4798 37.0982 48.0179 43.6843C48.0066 43.7913 46.7896 54.5861 36.3048 56.0171L35.9273 56.0678L35.5329 56.7214L35.5047 56.851C35.2681 57.9665 34.6089 58.682 33.6568 58.8623C32.6032 59.0595 31.4145 58.5581 30.8172 57.6566L30.4792 57.0989L29.9102 57.2453C29.8088 57.2735 19.7915 59.7525 13.0082 51.1832C11.6278 49.4366 10.7884 47.583 10.4898 45.6337C10.6306 45.4139 10.794 45.1322 10.9856 44.7717C11.5771 43.6674 11.8532 42.3997 11.9715 41.3237C12.118 40.0504 11.3011 38.8841 10.0785 38.4897C8.50661 37.9827 6.63048 36.946 7.08684 34.9009C7.85306 31.4867 11.2729 33.8135 11.5433 34.1121C12.8673 35.5601 11.8476 37.1996 14.4054 39.0532C15.1942 39.6278 15.8702 39.3743 16.3998 38.8616C17.6112 37.6897 17.5773 35.7404 16.4674 34.4727C15.2449 33.0755 13.5321 31.5937 13.6673 30.0218C14.242 23.385 16.4055 21.7737 16.7322 20.7934C18.9351 20.0835 21.1549 19.475 23.324 18.951C27.0256 19.9539 36.4513 22.2807 41.6289 21.6046C42.7726 23.9709 44.3107 28.4556 43.3078 33.8868ZM42.5754 14.365C40.919 14.472 32.0624 15.1199 22.2592 17.5651C25.3354 11.9085 34.5301 3.98713 40.1472 2.35891C41.781 1.88565 43.2571 1.64902 44.5304 1.64902C46.2037 1.64902 47.5277 2.0603 48.3897 2.87723C49.3024 3.73924 49.6292 5.00125 49.3024 6.44356C48.5982 9.55916 43.6008 13.5706 42.5754 14.365Z" fill="#EE4023"/>
</svg>
