<svg width="46" height="252" viewBox="0 0 46 252" fill="none" xmlns="http://www.w3.org/2000/svg">
<path d="M27.402 33.2899L26.0291 6.30806C25.9253 3.5876 23.6265 1.4717 20.9047 1.58306C18.1908 1.68647 16.0676 3.96147 16.1554 6.66601L17.0494 31.4046L18.5979 144.51V160.117C18.5979 167.006 15.2455 173.354 9.84169 177.665C4.78912 181.698 1.57239 187.982 1.57239 194.879V203.454L4.94875 248.309C5.03656 249.479 5.99439 250.385 7.16774 250.417H7.17572C8.44485 250.449 9.49847 249.431 9.49847 248.166L9.50645 205.339C9.50645 204.519 10.0253 203.74 10.8155 203.525C11.9968 203.207 13.0824 204.05 13.1382 205.18L15.3013 248.269C15.3572 249.455 16.331 250.401 17.5283 250.417H17.5443C18.7895 250.441 19.8271 249.455 19.859 248.214L20.9606 205.227C20.9845 204.241 21.7907 203.461 22.7804 203.461H23.0279C24.0176 203.461 24.8238 204.249 24.8478 205.227L25.9253 248.222C25.9573 249.431 26.9311 250.401 28.1523 250.425H28.1683C29.3975 250.449 30.4272 249.494 30.483 248.269L32.6541 205.18C32.702 204.217 33.5002 203.454 34.474 203.454H34.6735C35.6793 203.454 36.4934 204.265 36.4934 205.267L36.4855 248.039C36.4855 249.136 37.2198 250.163 38.2974 250.377C39.6862 250.648 40.9314 249.654 41.0272 248.309L44.4275 194.369C44.4275 187.513 41.1868 181.427 36.1422 177.53C30.491 173.163 27.418 166.258 27.418 159.131L28.5674 139.268L27.402 33.2899Z" stroke="#EE4023" stroke-width="3" stroke-miterlimit="10" stroke-linecap="round" stroke-linejoin="round"/>
</svg>
