<svg width="20" height="21" viewBox="0 0 20 21" fill="none" xmlns="http://www.w3.org/2000/svg">
<path d="M4.12496 5.3916C4.70829 4.68327 5.54162 4.3291 6.60412 4.2666C7.70829 4.2666 8.52079 4.74577 9.08329 5.3916C9.66662 6.03743 9.95829 6.43327 9.97912 6.5166C9.99996 6.43327 10.2916 6.03743 10.875 5.3916C11.4583 4.74577 12.1875 4.2666 13.3541 4.2666C14.4166 4.3291 15.2708 4.7041 15.8333 5.3916C16.4166 6.0791 16.7083 6.8291 16.7291 7.6416C16.7291 8.22493 16.625 9.34993 15.9791 10.6624C15.3333 11.9541 13.3333 13.9749 9.95829 16.6833C6.60412 13.9958 4.58329 11.9749 3.93746 10.6624C3.29162 9.34993 3.18746 8.2041 3.18746 7.6416C3.20829 6.8291 3.49996 6.0791 4.08329 5.37077V5.3916H4.12496Z" fill="#EF4123"/>
</svg>
