<svg width="56" height="56" viewBox="0 0 56 56" fill="none" xmlns="http://www.w3.org/2000/svg">
<path d="M27.7999 33.1C30.5061 33.1 32.6999 30.9062 32.6999 28.2C32.6999 25.4938 30.5061 23.3 27.7999 23.3C25.0937 23.3 22.8999 25.4938 22.8999 28.2C22.8999 30.9062 25.0937 33.1 27.7999 33.1Z" fill="white"/>
<path d="M33.9001 16.2H21.6001C19.8001 16.2 18.2001 16.8 17.2001 17.8C16.2001 18.8 15.6001 20.4 15.6001 22.2V34.5C15.6001 36.3 16.2001 37.9 17.3001 39C18.4001 40 19.9001 40.6 21.7001 40.6H33.9001C35.7001 40.6 37.3001 40 38.3001 39C39.4001 38 40.0001 36.4 40.0001 34.6V22.2C40.0001 20.4 39.4001 19 38.4001 17.8C37.3001 16.7 35.8001 16.2 33.9001 16.2ZM27.8001 35.8C23.6001 35.8 20.2001 32.3 20.2001 28.2C20.2001 24 23.7001 20.6 27.8001 20.6C31.9001 20.6 35.5001 24 35.5001 28.2C35.5001 32.4 32.0001 35.8 27.8001 35.8ZM35.7001 22.1C34.7001 22.1 33.9001 21.3 33.9001 20.3C33.9001 19.3 34.7001 18.5 35.7001 18.5C36.7001 18.5 37.5001 19.3 37.5001 20.3C37.5001 21.3 36.7001 22.1 35.7001 22.1Z" fill="white"/>
<path d="M28 0.5C12.8 0.5 0.5 12.8 0.5 28C0.5 43.2 12.8 55.5 28 55.5C43.2 55.5 55.5 43.2 55.5 28C55.6 12.8 43.2 0.5 28 0.5ZM42.6 34.5C42.6 37.1 41.7 39.3 40.1 40.9C38.5 42.5 36.3 43.2 33.8 43.2H21.7C19.2 43.2 17 42.4 15.4 40.9C13.7 39.3 12.9 37.1 12.9 34.5V22.2C12.9 17.1 16.4 13.5 21.6 13.5H34C36.6 13.5 38.7 14.4 40.3 16C41.9 17.6 42.6 19.7 42.6 22.3V34.5Z" fill="white"/>
</svg>
