<svg width="52" height="51" viewBox="0 0 52 51" fill="none" xmlns="http://www.w3.org/2000/svg">
<path d="M26.0001 13.5469C29.9542 13.5469 30.4417 13.5469 32.0126 13.6531C33.475 13.7063 34.2334 13.9719 34.775 14.1313C35.4792 14.3969 35.9667 14.7156 36.5084 15.2469C37.0501 15.7781 37.3751 16.2562 37.6459 16.9469C37.8626 17.4781 38.0792 18.2219 38.1334 19.6562C38.1876 21.1969 38.2417 21.675 38.2417 25.5531C38.2417 29.4312 38.2417 29.9094 38.1334 31.45C38.0792 32.8844 37.8084 33.6281 37.6459 34.1594C37.3751 34.85 37.0501 35.3281 36.5084 35.8594C35.9667 36.3906 35.4792 36.7094 34.775 36.975C34.2334 37.1875 33.475 37.4 32.0126 37.4531C30.4417 37.5063 29.9542 37.5594 26.0001 37.5594C22.0459 37.5594 21.5584 37.5594 19.9876 37.4531C18.5251 37.4 17.7667 37.1344 17.225 36.975C16.5209 36.7094 16.0334 36.3906 15.4917 35.8594C14.95 35.3281 14.625 34.85 14.3542 34.1594C14.1375 33.6281 13.9209 32.8844 13.8667 31.45C13.8125 29.9094 13.7584 29.4312 13.7584 25.5531C13.7584 21.675 13.7584 21.1969 13.8667 19.6562C13.9209 18.2219 14.1917 17.4781 14.3542 16.9469C14.625 16.2562 14.95 15.7781 15.4917 15.2469C16.0334 14.7156 16.5209 14.3969 17.225 14.1313C17.7667 13.9188 18.5251 13.7063 19.9876 13.6531C21.5584 13.5469 22.0459 13.5469 26.0001 13.5469ZM26.0001 10.8906C21.9376 10.8906 21.4501 10.8906 19.8792 10.9969C18.3084 11.05 17.225 11.3156 16.25 11.6875C15.275 12.0594 14.4625 12.5375 13.5959 13.3875C12.7834 14.1844 12.2417 15.0344 11.8625 15.9906C11.4834 16.8938 11.2667 17.9562 11.1584 19.55C11.1042 21.0906 11.05 21.6219 11.05 25.5531C11.05 29.5375 11.05 30.0156 11.1584 31.5563C11.2125 33.0969 11.4834 34.1594 11.8625 35.1156C12.2417 36.0719 12.7292 36.8687 13.5959 37.7188C14.4084 38.5156 15.275 39.0469 16.25 39.4187C17.1709 39.7906 18.2542 40.0031 19.8792 40.1094C21.4501 40.1625 21.9917 40.2156 26.0001 40.2156C30.0084 40.2156 30.5501 40.2156 32.1209 40.1094C33.6917 40.0562 34.7751 39.7906 35.7501 39.4187C36.7251 39.0469 37.5376 38.5688 38.4042 37.7188C39.2167 36.9219 39.7584 36.0719 40.1376 35.1156C40.5167 34.2125 40.7334 33.15 40.8417 31.5563C40.8959 30.0156 40.9501 29.4844 40.9501 25.5531C40.9501 21.6219 40.9501 21.0906 40.8417 19.55C40.7876 18.0094 40.5167 16.9469 40.1376 15.9906C39.7584 15.0344 39.2709 14.2375 38.4042 13.3875C37.5917 12.5906 36.7251 12.0594 35.7501 11.6875C34.8292 11.3156 33.7459 11.1031 32.1209 10.9969C30.5501 10.8906 30.0626 10.8906 26.0001 10.8906Z" fill="#EF4123"/>
<path d="M26.0001 18.0094C21.775 18.0094 18.3625 21.3562 18.3625 25.5C18.3625 29.6437 21.775 32.9906 26.0001 32.9906C30.2251 32.9906 33.6376 29.6437 33.6376 25.5C33.6376 21.3562 30.2251 18.0094 26.0001 18.0094ZM26.0001 30.3875C23.2375 30.3875 21.0167 28.2094 21.0167 25.5C21.0167 22.7906 23.2375 20.6125 26.0001 20.6125C28.7626 20.6125 30.9834 22.7906 30.9834 25.5C30.9834 28.2094 28.7626 30.3875 26.0001 30.3875Z" fill="#EF4123"/>
<path d="M33.9625 19.4438C34.9498 19.4438 35.75 18.6588 35.75 17.6906C35.75 16.7224 34.9498 15.9375 33.9625 15.9375C32.9753 15.9375 32.175 16.7224 32.175 17.6906C32.175 18.6588 32.9753 19.4438 33.9625 19.4438Z" fill="#EF4123"/>
</svg>
