<svg width="160" height="59" viewBox="0 0 160 59" fill="none" xmlns="http://www.w3.org/2000/svg">
<path d="M28.0065 25.0339C25.0403 25.0339 22.5494 24.4313 20.5419 23.218C18.5344 22.0047 17.5348 20.5826 17.5348 18.9354C17.5348 17.1597 18.4443 16.2679 20.2551 16.2679C20.9762 16.2679 21.6071 16.4848 22.1233 16.9187C22.6477 17.3526 23.0902 17.8829 23.4507 18.5015C23.8112 19.1283 24.18 19.7469 24.5569 20.3656C24.9338 20.9924 25.4254 21.5146 26.0563 21.9485C26.6791 22.3824 27.4247 22.5993 28.285 22.5993C29.1208 22.5993 29.7763 22.3984 30.2434 21.9967C30.7104 21.595 30.9398 21.0406 30.9398 20.3335C30.9398 19.53 30.7022 18.847 30.227 18.2846C29.7517 17.7141 29.129 17.2722 28.3588 16.9508C27.5886 16.6294 26.7364 16.3321 25.8105 16.0509C24.8846 15.7697 23.9587 15.4483 23.041 15.0867C22.1233 14.7252 21.2794 14.2752 20.5091 13.7529C19.7389 13.2307 19.108 12.4915 18.6246 11.5353C18.1411 10.5792 17.8953 9.44626 17.8953 8.13658C17.8953 5.91093 18.7639 4.12719 20.4927 2.7693C22.2134 1.41141 24.4831 0.736481 27.2936 0.736481C30.0385 0.736481 32.3901 1.34713 34.3648 2.56843C36.3395 3.78973 37.3064 5.21189 37.29 6.83494C37.29 7.6786 37.0442 8.34549 36.5608 8.83561C36.0691 9.32574 35.3563 9.56679 34.4058 9.56679C33.57 9.56679 32.8572 9.34181 32.2836 8.89989C31.7019 8.45798 31.2594 7.91964 30.9398 7.30096C30.6203 6.68227 30.3089 6.04752 30.0057 5.4208C29.7026 4.78605 29.3175 4.24771 28.8504 3.8058C28.3834 3.36388 27.8262 3.1389 27.1707 3.1389C26.3103 3.1389 25.663 3.36388 25.237 3.82187C24.8027 4.27985 24.5896 4.88247 24.5896 5.63774C24.5896 6.59389 24.8273 7.40541 25.3025 8.0723C25.7777 8.7392 26.3923 9.25343 27.1543 9.62303C27.9163 9.99263 28.7603 10.3221 29.6862 10.6033C30.6121 10.8925 31.538 11.2139 32.4557 11.5675C33.3734 11.921 34.2091 12.3388 34.9712 12.8209C35.7332 13.303 36.3477 13.9779 36.823 14.8537C37.2982 15.7295 37.5358 16.7901 37.5358 18.0355C37.5358 20.213 36.6263 21.9244 34.7991 23.1698C32.9637 24.4152 30.7104 25.0339 28.0065 25.0339Z" fill="#EF4123"/>
<path d="M53.7758 25.0347C50.5556 25.0347 47.991 24.2553 46.0736 22.6885C44.1563 21.1217 43.1976 18.8398 43.1976 15.8348V5.03596C43.1976 4.43335 42.9682 3.83074 42.5012 3.22009C42.0341 2.60944 41.8047 2.15949 41.8047 1.87023V1.73364C41.8047 1.26762 42.0915 1.03461 42.6568 1.03461H50.9817C51.5471 1.03461 51.8339 1.26762 51.8339 1.73364V1.87023C51.8339 2.15949 51.5717 2.60944 51.0555 3.22009C50.5311 3.83074 50.2771 4.43335 50.2771 5.03596V15.8348C50.2771 18.0364 50.7031 19.6514 51.5553 20.6879C52.4074 21.7244 53.6775 22.2386 55.3818 22.2386C55.8816 22.2386 56.365 22.1582 56.8239 21.9895C57.2909 21.8208 57.7662 21.5315 58.266 21.1057C58.7658 20.6798 59.1673 20.021 59.4705 19.1211C59.7737 18.2212 59.9293 17.1284 59.9293 15.8348V5.03596C59.9293 4.43335 59.6999 3.83074 59.2329 3.22009C58.7658 2.60944 58.5364 2.15949 58.5364 1.87023V1.73364C58.5364 1.26762 58.8232 1.03461 59.3886 1.03461H64.0426C64.608 1.03461 64.8948 1.26762 64.8948 1.73364V1.87023C64.8948 2.15949 64.6326 2.60944 64.1164 3.22009C63.592 3.83074 63.3298 4.43335 63.3298 5.03596V15.8991C63.3298 18.88 62.4694 21.1458 60.7487 22.6966C59.0198 24.2634 56.701 25.0347 53.7758 25.0347Z" fill="#EF4123"/>
<path d="M70.1961 24.7053C69.6308 24.7053 69.344 24.4723 69.344 24.0063V23.8697C69.344 23.5804 69.5734 23.1305 70.0405 22.5198C70.5075 21.9092 70.7369 21.3065 70.7369 20.7039V5.03596C70.7369 4.43335 70.5075 3.83074 70.0405 3.22009C69.5734 2.60944 69.344 2.15949 69.344 1.87023V1.73364C69.344 1.26762 69.6308 1.03461 70.1961 1.03461H79.2339C82.5688 1.03461 85.2072 1.69346 87.1737 3.00315C89.132 4.31283 90.1152 6.31351 90.1152 9.00518C90.1152 11.496 89.2303 13.5047 87.4441 15.0394C85.666 16.574 83.3226 17.3373 80.422 17.3373H77.8082V20.7039C77.8082 21.3065 78.0704 21.9092 78.5866 22.5198C79.111 23.1305 79.365 23.5804 79.365 23.8697V24.0063C79.365 24.4723 79.0782 24.7053 78.5128 24.7053H70.1961ZM79.4715 14.7742H80.422C81.2414 14.7742 81.8395 14.3725 82.241 13.5609C82.6343 12.7494 82.8392 11.7692 82.8392 10.6122C82.8392 8.61147 82.4622 6.94826 81.7002 5.61447C80.9382 4.28069 80.1188 3.61379 79.2339 3.61379H79.1356C78.2506 3.61379 77.8082 4.1923 77.8082 5.34932V13.0467C77.8082 14.1957 78.3653 14.7742 79.4715 14.7742Z" fill="#EF4123"/>
<path d="M95.0724 24.7053C94.507 24.7053 94.2202 24.4723 94.2202 24.0063V23.8697C94.2202 23.5804 94.4496 23.1305 94.9167 22.5198C95.3837 21.9092 95.6132 21.3065 95.6132 20.7039V5.03596C95.6132 4.43335 95.3837 3.83074 94.9167 3.22009C94.4578 2.60944 94.2284 2.15949 94.2284 1.87023V1.73364C94.2284 1.26762 94.5152 1.03461 95.0806 1.03461H110.919C111.329 1.03461 111.624 1.11496 111.804 1.28369C111.984 1.45242 112.107 1.73364 112.181 2.13538L113 6.60276C113.041 6.91612 112.976 7.1652 112.796 7.35C112.615 7.54284 112.361 7.63122 112.05 7.63122H111.845C111.37 7.63122 110.895 7.42232 110.419 6.99647C109.944 6.57866 109.534 6.11263 109.182 5.61447C108.83 5.11631 108.387 4.65029 107.838 4.23248C107.297 3.81467 106.74 3.59773 106.175 3.59773H104.274C103.143 3.59773 102.578 4.17623 102.578 5.33325V11.3996H105.47C105.921 11.3996 106.322 11.2469 106.658 10.9496C107.003 10.6523 107.257 10.3229 107.42 9.96936C107.592 9.61583 107.789 9.2864 108.019 8.98911C108.248 8.69182 108.469 8.53916 108.699 8.53916H109.043C109.518 8.53916 109.756 8.82038 109.756 9.37478V15.875C109.756 16.4294 109.518 16.7106 109.043 16.7106H108.699C108.469 16.7106 108.248 16.574 108.019 16.2928C107.789 16.0196 107.592 15.7062 107.42 15.3608C107.248 15.0153 106.994 14.7019 106.658 14.4287C106.314 14.1555 105.921 14.0109 105.47 14.0109H102.578V19.4746C102.578 20.1897 102.75 20.8084 103.102 21.3387C103.455 21.869 104.028 22.1422 104.815 22.1422H107.265C107.83 22.1422 108.363 21.9172 108.862 21.4753C109.362 21.0334 109.764 20.5352 110.067 19.9888C110.37 19.4425 110.755 18.9523 111.206 18.5024C111.657 18.0605 112.132 17.8355 112.632 17.8355H112.976C113.271 17.8355 113.492 17.956 113.639 18.189C113.787 18.422 113.836 18.6711 113.795 18.9363L113.05 23.5322C112.984 23.958 112.853 24.2553 112.673 24.4321C112.492 24.6089 112.197 24.6972 111.788 24.6972H95.0724V24.7053Z" fill="#EF4123"/>
<path d="M138.827 20.7039C139.163 21.2342 139.581 21.7083 140.065 22.1181C140.548 22.5278 140.925 22.8492 141.187 23.0822C141.449 23.3153 141.58 23.5804 141.58 23.8616V23.9982C141.58 24.4642 141.294 24.6973 140.728 24.6973H131.486C130.92 24.6973 130.633 24.4642 130.633 23.9982V23.8616C130.633 23.6206 130.773 23.3233 131.06 22.9778C131.338 22.6323 131.543 22.327 131.674 22.0618C131.797 21.7967 131.748 21.3387 131.518 20.6959L129.208 15.8991L126.594 15.9634V20.6959C126.594 21.2985 126.856 21.9011 127.372 22.5118C127.897 23.1224 128.151 23.5724 128.151 23.8616V23.9982C128.151 24.4642 127.864 24.6973 127.299 24.6973H118.974C118.408 24.6973 118.122 24.4642 118.122 23.9982V23.8616C118.122 23.5724 118.351 23.1224 118.818 22.5118C119.285 21.9011 119.515 21.2985 119.515 20.6959V5.03596C119.515 4.43335 119.285 3.83074 118.818 3.22009C118.351 2.60944 118.122 2.15949 118.122 1.87023V1.73364C118.122 1.26762 118.408 1.03461 118.974 1.03461H128.7C131.92 1.03461 134.435 1.68543 136.263 2.98708C138.09 4.28872 138.999 6.16888 138.999 8.63558C138.999 9.83277 138.663 11.0059 138 12.1388C137.328 13.2717 136.353 14.1636 135.058 14.8063L138.827 20.7039ZM126.586 10.5077C126.586 11.5522 126.774 12.2834 127.143 12.7092C127.512 13.1351 128.102 13.344 128.896 13.344H129.576C130.191 13.344 130.699 13.0146 131.109 12.3638C131.518 11.7129 131.723 10.6925 131.723 9.31051C131.723 7.71157 131.346 6.36172 130.584 5.27701C129.822 4.1923 129.011 3.64593 128.151 3.64593H127.979C127.569 3.64593 127.233 3.8227 126.979 4.17624C126.717 4.52977 126.586 4.97972 126.586 5.51002V10.5077Z" fill="#EF4123"/>
<path d="M0.852153 58.033C0.286782 58.033 0 57.8 0 57.334V57.1974C0 56.9082 0.229426 56.4582 0.696471 55.8476C1.16352 55.2369 1.39294 54.6343 1.39294 54.0317V38.3637C1.39294 37.7611 1.16352 37.1585 0.696471 36.5478C0.229426 35.9372 0 35.4953 0 35.206V35.0694C0 34.6034 0.286782 34.3704 0.852153 34.3704H9.11148C9.67685 34.3704 9.96363 34.6034 9.96363 35.0694V35.206C9.96363 35.4953 9.70963 35.9452 9.20161 36.5559C8.6936 37.1665 8.43959 37.7691 8.43959 38.3717V44.7032H16.1909L16.2237 38.3717C16.2237 37.7691 15.9943 37.1665 15.5436 36.5559C15.0929 35.9452 14.8635 35.4953 14.8635 35.206V35.0694C14.8635 34.6034 15.1339 34.3704 15.6829 34.3704H23.9422C24.5076 34.3704 24.7944 34.6034 24.7944 35.0694V35.206C24.7944 35.4953 24.5322 35.9452 24.016 36.5559C23.4998 37.1665 23.2376 37.7691 23.2376 38.3717V54.0397C23.2376 54.6423 23.4998 55.2449 24.016 55.8556C24.5404 56.4662 24.7944 56.9162 24.7944 57.2055V57.342C24.7944 57.8081 24.5076 58.0411 23.9422 58.0411H15.6665C15.1257 58.0411 14.8471 57.8081 14.8471 57.342V57.2055C14.8471 56.9162 15.0766 56.4662 15.5272 55.8556C15.9779 55.2449 16.2073 54.6423 16.2073 54.0397L16.1745 47.5717H8.4232L8.39043 54.0397C8.39043 54.6423 8.65263 55.2449 9.16884 55.8556C9.69324 56.4662 9.94725 56.9162 9.94725 57.2055V57.342C9.94725 57.8081 9.66046 58.0411 9.09509 58.0411H0.852153V58.033Z" fill="#EF4123"/>
<path d="M41.2966 58.3705C38.0764 58.3705 35.5117 57.5911 33.5944 56.0243C31.6771 54.4575 30.7184 52.1756 30.7184 49.1706V38.3718C30.7184 37.7691 30.489 37.1665 30.0219 36.5559C29.5549 35.9452 29.3254 35.4953 29.3254 35.206V35.0694C29.3254 34.6034 29.6122 34.3704 30.1776 34.3704H38.5107C39.076 34.3704 39.3628 34.6034 39.3628 35.0694V35.206C39.3628 35.4953 39.1006 35.9452 38.5844 36.5559C38.06 37.1665 37.806 37.7691 37.806 38.3718V49.1706C37.806 51.3721 38.2321 52.9872 39.0842 54.0237C39.9364 55.0601 41.2064 55.5744 42.9107 55.5744C43.4105 55.5744 43.894 55.494 44.3528 55.3253C44.8199 55.1566 45.2951 54.8673 45.7949 54.4415C46.2948 54.0156 46.6963 53.3568 46.9994 52.4569C47.3026 51.557 47.4583 50.4642 47.4583 49.1706V38.3718C47.4583 37.7691 47.2288 37.1665 46.7618 36.5559C46.2948 35.9452 46.0653 35.4953 46.0653 35.206V35.0694C46.0653 34.6034 46.3521 34.3704 46.9175 34.3704H51.5716C52.1369 34.3704 52.4237 34.6034 52.4237 35.0694V35.206C52.4237 35.4953 52.1615 35.9452 51.6453 36.5559C51.1209 37.1665 50.8669 37.7691 50.8669 38.3718V49.2349C50.8669 52.2158 50.0065 54.4816 48.2858 56.0324C46.5488 57.5911 44.2217 58.3705 41.2966 58.3705Z" fill="#EF4123"/>
<path d="M79.8155 34.3704C80.3809 34.3704 80.6677 34.6034 80.6677 35.0694V35.206C80.6677 35.4953 80.4055 35.9452 79.8893 36.5559C79.3649 37.1665 79.1027 37.7691 79.1027 38.3718V56.3056C79.1027 57.4626 78.5127 58.0411 77.3328 58.0411H75.1205C74.4158 58.0411 73.7603 57.6554 73.1458 56.876L61.6581 42.0678V54.0317C61.6581 54.6343 61.9285 55.2369 62.4775 55.8476C63.0183 56.4582 63.2887 56.9082 63.2887 57.1974V57.334C63.2887 57.8 63.0019 58.033 62.4365 58.033H57.7087C57.1434 58.033 56.8566 57.8 56.8566 57.334V57.1974C56.8566 56.9082 57.086 56.4582 57.553 55.8476C58.0201 55.2369 58.2495 54.6343 58.2495 54.0317V38.3637C58.2495 37.7611 58.0201 37.1585 57.553 36.5478C57.086 35.9372 56.8566 35.4872 56.8566 35.198V35.0614C56.8566 34.5954 57.1434 34.3624 57.7087 34.3624H63.4853C64.2064 34.3624 64.8701 34.748 65.46 35.5274L75.694 49.4599V38.3718C75.694 37.7691 75.44 37.1665 74.932 36.5559C74.424 35.9452 74.17 35.4953 74.17 35.206V35.0694C74.17 34.6034 74.4568 34.3704 75.0222 34.3704H79.8155Z" fill="#EF4123"/>
<path d="M97.1455 58.3705C93.4993 58.3705 90.5085 57.1572 88.1733 54.7227C85.8381 52.2881 84.6746 49.4518 84.6746 46.2057C84.6746 43.7631 85.2563 41.5937 86.4116 39.7055C87.567 37.8173 89.0091 36.4032 90.7298 35.4712C92.4505 34.5391 94.2613 34.0731 96.1704 34.0731C99.0956 34.0731 101.521 34.6436 103.446 35.7925C105.372 36.9415 106.339 38.4199 106.339 40.2439C106.339 41.1518 106.06 41.891 105.503 42.4454C104.946 42.9998 104.209 43.281 103.274 43.281C102.185 43.281 101.201 42.9355 100.316 42.2445C99.4316 41.5535 98.7433 40.8063 98.2598 39.9948C97.7764 39.1833 97.1947 38.436 96.5228 37.745C95.8509 37.054 95.1708 36.7085 94.4661 36.7085C93.5156 36.7085 92.77 37.1665 92.221 38.0905C91.6802 39.0145 91.4017 40.2037 91.4017 41.6741C91.4017 44.9443 92.1063 47.7645 93.5238 50.1428C94.9414 52.5211 96.6539 53.7103 98.6777 53.7103C99.0874 53.7103 99.4234 53.6781 99.6937 53.6139V49.717C99.6937 49.1143 99.3906 48.5117 98.7924 47.9011C98.1943 47.2904 97.8911 46.8405 97.8911 46.5512V46.4146C97.8911 46.2138 97.9813 46.045 98.1615 45.9165C98.3418 45.7799 98.5712 45.7156 98.8416 45.7156L106.896 45.7477C107.461 45.7477 107.748 45.9807 107.748 46.4468V46.5834C107.748 46.8726 107.486 47.3226 106.97 47.9332C106.445 48.5439 106.191 49.1465 106.191 49.7491V53.2523C106.191 53.8067 106.085 54.2888 105.872 54.6825C105.659 55.0842 105.241 55.5181 104.635 55.9841C102.545 57.567 100.046 58.3705 97.1455 58.3705Z" fill="#EF4123"/>
<path d="M132.641 54.0317C132.977 54.562 133.395 55.036 133.878 55.4458C134.362 55.8556 134.739 56.177 135.001 56.41C135.263 56.643 135.394 56.9081 135.394 57.1894V57.326C135.394 57.792 135.107 58.025 134.542 58.025H125.299C124.734 58.025 124.447 57.792 124.447 57.326V57.1894C124.447 56.9483 124.586 56.651 124.873 56.3055C125.152 55.96 125.357 55.6547 125.488 55.3896C125.611 55.1244 125.562 54.6664 125.332 54.0236L123.021 49.2268L120.408 49.2911V54.0236C120.408 54.6262 120.67 55.2289 121.186 55.8395C121.71 56.4502 121.964 56.9001 121.964 57.1894V57.326C121.964 57.792 121.678 58.025 121.112 58.025H112.787C112.222 58.025 111.935 57.792 111.935 57.326V57.1894C111.935 56.9001 112.165 56.4502 112.632 55.8395C113.099 55.2289 113.328 54.6262 113.328 54.0236V38.3557C113.328 37.7531 113.099 37.1504 112.632 36.5398C112.165 35.9291 111.935 35.4792 111.935 35.1899V35.0533C111.935 34.5873 112.222 34.3543 112.787 34.3543H122.513C125.734 34.3543 128.249 35.0051 130.076 36.3068C131.904 37.6084 132.813 39.4886 132.813 41.9553C132.813 43.1525 132.477 44.3256 131.813 45.4585C131.142 46.5914 130.166 47.4833 128.872 48.126L132.641 54.0317ZM120.399 43.8354C120.399 44.88 120.588 45.6111 120.957 46.037C121.325 46.4628 121.915 46.6717 122.71 46.6717H123.39C124.005 46.6717 124.513 46.3423 124.922 45.6915C125.332 45.0407 125.537 44.0202 125.537 42.6382C125.537 41.0393 125.16 39.6895 124.398 38.6047C123.636 37.52 122.825 36.9737 121.964 36.9737H121.792C121.383 36.9737 121.047 37.1504 120.793 37.504C120.531 37.8575 120.399 38.3075 120.399 38.8378V43.8354Z" fill="#EF4123"/>
<path d="M159.148 34.3704C159.713 34.3704 160 34.6034 160 35.0694V35.206C160 35.5595 159.689 36.0256 159.066 36.588C158.443 37.1504 157.96 37.7531 157.624 38.3717L152.118 48.2385V54.0397C152.118 54.6423 152.38 55.2449 152.896 55.8556C153.42 56.4662 153.674 56.9162 153.674 57.2054V57.342C153.674 57.808 153.388 58.0411 152.822 58.0411H144.497C143.932 58.0411 143.645 57.808 143.645 57.342V57.2054C143.645 56.9162 143.875 56.4662 144.342 55.8556C144.809 55.2449 145.038 54.6423 145.038 54.0397V48.9054L138.409 38.3717C138.114 37.9057 137.754 37.4638 137.32 37.054C136.885 36.6442 136.558 36.3068 136.32 36.0336C136.082 35.7684 135.959 35.4872 135.959 35.198V35.0614C135.959 34.5954 136.246 34.3623 136.812 34.3623H147.177C147.742 34.3623 148.029 34.5954 148.029 35.0614V35.198C148.029 35.4631 147.832 35.7684 147.447 36.0979C147.062 36.4353 146.734 36.7808 146.48 37.1504C146.218 37.52 146.21 37.9218 146.464 38.3637L150.405 45.5308L154.314 38.3637C154.559 37.8977 154.559 37.4718 154.314 37.0942C154.068 36.7166 153.748 36.3711 153.363 36.0577C152.978 35.7443 152.781 35.4551 152.781 35.1899V35.0533C152.781 34.5873 153.068 34.3543 153.633 34.3543H159.148V34.3704Z" fill="#EF4123"/>
</svg>
