<svg width="234" height="242" viewBox="0 0 234 242" fill="none" xmlns="http://www.w3.org/2000/svg">
<path d="M148.156 58.4464L148.184 58.8614C148.312 60.7838 148.454 62.9552 149.889 64.0616C150.272 64.3521 150.897 64.6702 151.764 64.6702C151.963 64.6702 152.176 64.6563 152.417 64.6149C154.619 64.2553 156.693 61.8764 156.323 57.3677C156.153 55.1824 155.428 52.7068 154.164 49.996C153.539 48.6544 152.218 47.7416 150.784 47.6863C150.074 47.6586 147.758 47.8108 147.375 50.9641C147.076 53.4813 147.446 55.0165 147.772 56.3719C147.957 57.0634 148.113 57.7134 148.156 58.4464ZM149.96 51.2684C150.074 50.3003 150.372 50.2173 150.613 50.2173C150.642 50.2173 150.67 50.2173 150.699 50.2173C151.153 50.2311 151.608 50.563 151.821 51.0471C152.602 52.7344 153.142 54.2973 153.454 55.7357C152.375 55.4452 151.153 56.2059 151.054 57.0911C150.954 58.073 150.869 59.4561 150.968 60.687C150.855 60.0231 150.812 59.2763 150.77 58.7092L150.741 58.2805C150.67 57.3538 150.485 56.5655 150.301 55.8186C150.003 54.5462 149.718 53.343 149.96 51.2684Z" fill="#EF4123"/>
<path d="M132.673 50.2864C131.977 50.2588 129.648 50.4247 129.265 53.5643C128.824 57.2294 129.208 59.1933 129.847 61.7796C129.946 62.1807 130.017 62.6094 130.103 63.0105C130.401 64.6425 130.884 67.2703 133.54 67.2703C133.781 67.2703 134.023 67.2565 134.293 67.2012C136.494 66.8416 138.568 64.4627 138.199 59.954C138.028 57.7688 137.304 55.2931 136.04 52.5823C135.429 51.2407 134.108 50.3418 132.673 50.2864ZM131.835 53.8547C131.949 52.8866 132.247 52.8036 132.489 52.8036C132.517 52.8036 132.546 52.8036 132.56 52.8036C133.029 52.8174 133.469 53.1494 133.696 53.6334C134.477 55.3208 135.017 56.8698 135.33 58.2943C134.35 58.073 133.242 58.6677 133.043 59.4699C132.844 60.2859 132.617 61.3924 132.602 62.3882C132.531 61.9871 132.46 61.586 132.361 61.1987C131.779 58.806 131.452 57.1187 131.835 53.8547ZM133.128 64.3936C133.213 64.5042 133.313 64.6149 133.44 64.6979C133.483 64.7255 133.526 64.7255 133.568 64.7393C133.384 64.7393 133.242 64.6564 133.128 64.3936Z" fill="#EF4123"/>
<path d="M132.972 124.985C133.341 124.985 133.696 124.847 133.966 124.57C142.531 115.995 156.11 122.413 156.238 122.482C156.92 122.814 157.758 122.537 158.113 121.873C158.454 121.209 158.17 120.393 157.488 120.061C156.863 119.757 141.963 112.69 131.963 122.689C131.424 123.229 131.438 124.086 131.992 124.612C132.276 124.861 132.631 124.985 132.972 124.985Z" fill="#EF4123"/>
<path d="M228.622 88.7215L205.782 86.4809C205.725 86.4809 205.668 86.4948 205.626 86.4948C205.654 84.1297 204.958 82.7605 202.757 81.7647C201.649 81.2668 200.626 81.3636 199.774 81.7094C199.532 80.3678 199.049 79.7731 197.97 78.9848L197.828 78.888C197.26 78.473 196.564 78.3071 195.853 78.4454C195.186 78.5699 194.589 78.9433 194.064 79.3859C193.623 78.5975 193.084 77.9337 192.402 77.5187C191.549 77.007 190.612 76.8687 189.689 77.1315C188.538 77.4634 187.643 78.3762 187.033 79.1922C186.862 79.0816 186.677 78.9848 186.521 78.9018C185.371 78.3347 184.078 78.1826 183.212 78.5007C181.081 79.3167 180.442 80.6306 180.385 81.9583C179.661 82.069 179.064 82.3456 178.766 82.4839C178.013 82.8435 177.473 83.3414 177.09 83.9223L171.806 83.0924C173.397 79.1646 173.766 76.0804 173.766 75.9836C174.547 65.0021 168.07 59.954 165.57 58.4326C167.076 49.1385 164.59 41.5317 162.545 37.1613C163.837 36.7187 164.832 36.0963 165.414 35.225C169.235 29.4438 165.556 27.6044 163.61 27.0512C166.351 24.9351 174.604 18.172 175.968 12.2663C176.763 8.86402 175.868 5.69683 173.553 3.56693C170.116 0.41357 163.994 -0.125821 156.295 2.0594C151.892 3.30415 146.437 6.45751 141.153 10.4269C138.611 8.36612 128.881 2.12855 111.154 8.79487C94.7628 14.9633 88.2005 26.7469 91.5669 43.7861C84.5359 49.3875 85.0756 60.9083 88.9959 68.4874C89.7203 69.8705 90.743 71.3088 91.9788 72.6504L87.3767 72.028C81.624 71.2535 76.5247 67.865 73.3572 62.7201C69.9482 57.174 64.1956 53.4675 57.5765 52.5823L49.5938 51.5174L7.98999 49.0279C6.20027 48.9172 4.60941 50.1481 4.31113 51.8908C4.15488 52.8036 4.38215 53.7164 4.93611 54.4494C5.50427 55.1963 6.32811 55.6665 7.26558 55.791L46.6109 61.0604C46.7814 61.0881 46.9092 61.1987 46.9234 61.2817C46.9376 61.3923 46.9092 61.4753 46.8524 61.5445C46.8098 61.586 46.7245 61.6413 46.6109 61.6275L6.75423 58.2667C4.9219 58.1145 3.28843 59.3731 3.03276 61.0051L3.00435 61.1434C2.70606 62.9829 3.99864 64.7117 5.88778 65.0159L45.2473 71.2673C45.4036 71.295 45.503 71.4333 45.4888 71.5716L45.4604 71.7929C45.4462 71.945 45.2899 72.0419 45.1479 72.028L5.51847 67.6991C3.65774 67.4916 1.98166 68.7502 1.68337 70.562C1.38508 72.3876 2.62084 74.0888 4.48158 74.4345L43.7843 81.6679C43.9405 81.6956 44.04 81.8339 44.0258 81.986L43.9974 82.152C43.969 82.3041 43.8269 82.4147 43.6707 82.4009L4.36794 77.1591C2.66345 76.924 1.02998 77.8645 0.490225 79.3859C0.163531 80.3125 0.248756 81.336 0.745899 82.1935C1.24304 83.0509 2.09529 83.6457 3.08957 83.8531L52.2926 93.5345C53.2726 93.659 54.2527 93.7281 55.2186 93.7281C60.7156 93.7281 65.9711 91.6535 69.9767 87.8501C74.2379 83.784 80.5445 81.8754 86.7375 82.6914L102.277 85.6649C97.1349 87.6427 84.9478 92.511 78.002 97.0889C68.7977 103.147 65.6728 112.496 65.8148 119.218C65.9569 125.829 69.792 140.226 71.809 146.92C72.7038 149.88 70.7437 154.375 69.0108 158.344C67.2637 162.341 65.7722 165.785 66.7239 168.219C67.3489 169.824 68.2864 170.681 69.5079 170.764C70.0051 170.792 70.4738 170.681 70.8999 170.488C71.042 171.041 71.2834 171.594 71.6669 172.064C72.2919 172.811 73.1016 173.198 73.9822 173.157C74.5788 173.115 75.1611 172.894 75.7577 172.465C76.0134 173.24 76.4963 173.931 77.3628 174.332C78.5701 174.886 79.7633 174.429 80.7718 173.682C80.8002 173.752 80.8286 173.821 80.8712 173.876C81.2973 174.678 82.0075 175.245 82.9166 175.522C83.2149 175.619 83.5132 175.66 83.7972 175.66C85.6438 175.66 87.192 173.848 88.4278 171.691C88.9959 172.092 89.7061 172.424 90.5158 172.479C90.601 172.479 90.6862 172.493 90.7856 172.493C91.5811 172.493 92.6606 172.23 93.7117 171.11C93.9532 170.861 94.1946 170.557 94.4361 170.239C97.6888 179.464 104.166 185.909 112.901 188.523C113.342 188.647 113.768 188.771 114.208 188.896L115.572 195.327C105.174 191.731 91.9504 192.547 91.2402 192.589C90.6436 192.63 90.1465 193.031 89.9902 193.598L89.976 193.667C86.7091 192.506 81.9507 191.717 81.5956 191.662C81.1269 191.579 70.5022 189.781 65.0762 191.192C61.8377 191.759 57.4486 192.99 57.0509 195.493C56.4828 199.117 55.4317 207.899 58.0878 211.052C58.6986 211.785 58.2583 215.354 57.9032 218.217C57.1219 224.496 56.0424 233.112 60.3747 238.769C62.1786 241.12 65.0904 241.687 67.4767 241.687C67.8034 241.687 68.1159 241.673 68.4142 241.659C68.5562 241.673 68.6841 241.687 68.8261 241.687C69.9056 241.687 71.113 241.397 72.4198 240.83C79.6638 237.649 78.2434 224.897 77.7747 220.692C77.306 216.529 78.7974 212.837 79.6496 211.135L84.6921 213.127L84.6211 213.376C84.4932 213.86 84.6353 214.372 85.0188 214.718C93.8537 222.753 116.381 227.926 118.626 228.424C121.239 229.585 124.393 230.18 127.73 230.18C131.381 230.18 135.244 229.475 138.795 228.092C144.406 225.893 148.426 222.338 150.102 218.065C153.681 208.964 155.116 186.088 155.357 181.995C158.312 179.45 161.053 176.379 163.596 172.783C163.681 174.83 163.667 177.057 163.482 179.477C162.63 190.915 163.823 195.562 163.866 195.756L164.107 196.669C163.852 198.591 163.468 201.938 163.283 205.354C163.283 205.368 163.283 205.368 163.283 205.382C163.283 205.396 163.283 205.41 163.283 205.423C163.283 207.042 163.269 220.678 164.022 225.007C164.079 227.621 165.655 228.866 166.792 229.406C167.914 229.945 169.306 230.18 170.854 230.18C176.706 230.18 184.547 226.805 186.45 224.302L188.268 221.536C188.552 221.411 188.865 221.273 189.22 221.121C193.751 219.129 203.183 215.008 209.901 208.245C213.353 204.787 214.873 201.938 214.546 199.587C214.674 199.297 214.702 198.965 214.589 198.646C214.574 198.605 214.532 198.494 214.461 198.356C211.819 192.824 207.827 190.971 204.944 190.403C200.257 189.477 194.831 191.164 190.797 194.788C187.516 197.747 185.371 198.107 184.362 198.038L184.618 193.432C185.527 193.183 186.251 192.948 186.649 192.727L186.976 192.547L187.16 192.229C187.885 190.971 204.845 161.304 197.132 142.301C195.768 138.94 193.993 136.215 191.834 134.127C196.933 129.079 197.515 111.265 197.586 106.383C200.953 104.931 201.904 99.8689 202.146 98.0709C202.274 98.1124 202.387 98.1677 202.515 98.1815L227.457 100.27C227.656 100.284 227.855 100.298 228.054 100.298C229.432 100.298 230.753 99.8412 231.832 98.9837C233.068 98.0017 233.821 96.6049 233.977 95.0697C234.261 91.9025 231.875 89.0534 228.622 88.7215ZM201.563 84.2265C202.7 84.7383 203.168 84.9457 202.572 89.0396C202.089 92.428 200.995 94.5579 200.143 95.1665C199.901 95.3463 199.759 95.3186 199.717 95.3186C199.234 95.2356 198.85 95.125 198.552 95.0005C199.845 92.5525 200.157 88.8874 200.072 86.5224C200.044 85.8585 200.029 85.2777 200.001 84.7383C200.271 84.4755 200.896 83.9223 201.563 84.2265ZM196.279 81.1423L196.294 81.1562C197.117 81.7509 197.132 81.7647 197.302 86.633C197.458 91.0726 196.208 94.3643 195.243 94.7654C195.072 94.8346 194.816 94.7654 194.518 94.5856C195.299 93.0366 195.754 91.128 195.797 89.5651C195.825 88.2236 195.797 85.084 195.129 82.2903C195.512 81.7647 195.995 81.2806 196.279 81.1423ZM190.484 79.7178C190.598 79.6901 190.711 79.6625 190.939 79.8008C191.45 80.105 191.905 80.9902 192.245 82.2349C192.26 82.3318 192.288 82.4147 192.317 82.5116C192.785 84.3372 193.055 86.8405 192.998 89.4821C192.956 91.2663 192.288 93.0228 191.677 94.0047C191.578 94.1154 191.493 94.226 191.436 94.3505C191.251 94.5856 191.095 94.7516 190.967 94.7792C190.484 94.6548 190.101 93.5621 189.973 92.6632C190.953 90.1045 190.825 86.3703 190.072 83.5903C189.802 82.5945 189.433 81.8062 189.007 81.1562C189.405 80.5615 189.987 79.8699 190.484 79.7178ZM184.163 81.0455C184.348 81.0455 186.507 81.087 187.359 84.2957C188.055 86.882 188.027 89.9386 187.373 91.695C187.288 91.8195 187.231 91.944 187.189 92.0961C187.132 92.2206 187.075 92.3589 187.004 92.4557C186.706 92.8983 186.464 92.9398 186.379 92.9536C186.138 92.9951 185.797 92.9951 185.385 92.594C185.3 92.511 185.214 92.4004 185.129 92.2897C185.058 92.1653 185.016 92.0408 184.945 91.9025C184.391 90.8099 184.263 89.1364 184.163 87.6289C184.22 86.8958 184.135 86.1767 183.964 85.4851C183.865 84.7106 183.68 84.0053 183.382 83.4244C182.928 81.7924 183.084 81.4743 184.163 81.0455ZM178.141 96.3974C178.624 98.6933 178.908 100.975 178.439 102.829C178.325 103.285 178.183 103.755 178.027 104.239C175.854 101.542 171.508 97.0751 165.016 94.5026L178.141 96.3974ZM176.308 86.5501C176.209 88.5555 176.806 90.9482 177.402 93.3132C177.416 93.3962 177.445 93.4792 177.459 93.5483L166.238 91.9301C168.127 89.9247 169.547 87.7395 170.627 85.6649L176.308 86.5501ZM162.658 58.9029L162.474 59.9263L163.44 60.3689C163.78 60.5349 171.806 64.4212 170.996 75.7484C170.911 76.5091 168.78 94.5026 150.301 96.9645L149.633 97.0474L148.937 98.1677L148.895 98.389C148.468 100.311 147.318 101.542 145.628 101.847C143.767 102.192 141.665 101.321 140.557 99.6752L140.017 98.8177L139.009 99.0667C138.838 99.1082 121.126 103.382 109.152 88.6385C106.708 85.6373 105.231 82.4424 104.706 79.0816C104.947 78.7082 105.231 78.2241 105.572 77.6017C106.609 75.7069 107.106 73.5217 107.319 71.6684C107.575 69.4694 106.14 67.4639 103.981 66.8001C101.197 65.9288 97.8877 64.1446 98.6973 60.6178C100.047 54.7537 106.098 58.7507 106.566 59.2625C108.91 61.7519 107.106 64.5734 111.623 67.7682C113.015 68.7502 114.208 68.3214 115.146 67.4363C117.29 65.417 117.219 62.07 115.273 59.8848C113.114 57.4783 110.089 54.9335 110.33 52.2365C111.339 40.8264 115.146 38.0603 115.742 36.3729C119.634 35.1558 123.569 34.1047 127.404 33.1919C133.952 34.9069 150.585 38.9177 159.718 37.756C161.707 41.8636 164.434 49.5811 162.658 58.9029ZM157.076 4.67337C159.96 3.85737 162.573 3.44245 164.817 3.44245C167.772 3.44245 170.116 4.14781 171.635 5.55852C173.255 7.03839 173.823 9.20978 173.24 11.6854C171.99 17.0655 163.17 23.9531 161.366 25.3223C158.44 25.5021 142.801 26.6224 125.472 30.8269C130.912 21.0902 147.162 7.48097 157.076 4.67337ZM112.163 11.3397C127.631 5.51703 136.239 10.2056 138.909 12.1695C131.466 18.1581 124.691 25.5575 122.091 31.3939C122.049 31.4908 122.02 31.6014 121.992 31.712C112.958 34.1047 103.683 37.3549 95.6719 41.7668C95.1179 41.9743 94.5923 42.1818 94.1236 42.3892C91.3964 27.1065 97.3053 16.9272 112.163 11.3397ZM68.0165 85.9C63.9257 89.8002 58.3293 91.5982 52.7471 90.8514L3.64353 81.1838C3.44468 81.1423 3.27423 81.0179 3.1748 80.8519C3.10378 80.7274 3.03276 80.5338 3.13219 80.271C3.23162 79.9806 3.61513 79.8008 3.99864 79.8423L43.273 85.1117C44.949 85.333 46.4973 84.1851 46.7388 82.5531L46.7672 82.3871C46.9944 80.8104 45.9007 79.3305 44.2957 79.0401L4.97872 71.7929C4.59521 71.7237 4.35374 71.378 4.41055 70.9907C4.46737 70.6311 4.80827 70.3822 5.19178 70.4099L44.8212 74.7388C46.4689 74.9324 47.9887 73.7707 48.2018 72.1802L48.2302 71.9589C48.4574 70.3407 47.3353 68.8608 45.6734 68.5981L6.32811 62.3467C5.9446 62.2913 5.68892 61.9317 5.71733 61.6828L5.74574 61.5445C5.80256 61.1849 6.14345 60.9359 6.49856 60.9636L46.3552 64.3382C47.2927 64.4212 48.1876 64.0893 48.841 63.4254C49.4943 62.7616 49.7926 61.8626 49.6648 60.9498C49.4943 59.6359 48.3864 58.5709 46.9802 58.3911L7.63488 53.1217C7.39341 53.0664 7.25137 52.9281 7.18035 52.8313C7.10933 52.7344 7.0099 52.5685 7.05252 52.3057C7.10933 51.9461 7.45023 51.711 7.80533 51.7248L49.3381 54.2143L57.2072 55.2654C62.903 56.0261 68.0449 59.3316 70.9709 64.1031C74.5646 69.9673 80.4025 73.826 86.9932 74.7111L95.6434 75.8729C97.5894 77.2283 99.72 78.2241 101.836 78.5699C101.993 80.0774 102.334 81.5434 102.831 82.9956L87.1636 79.9944C80.0616 79.0539 72.8885 81.253 68.0165 85.9ZM105.004 87.532C105.586 88.4863 106.225 89.4268 106.978 90.3396C118.413 104.405 134.705 102.621 138.767 101.902C140.23 103.617 142.517 104.654 144.804 104.654C145.258 104.654 145.699 104.613 146.153 104.53C148.781 104.046 150.699 102.248 151.48 99.5369C155.443 98.9007 158.695 97.6007 161.394 95.9133C161.55 96.0793 161.749 96.2314 161.991 96.3006C170.499 98.8869 175.598 105.456 176.919 107.351C176.38 108.72 175.797 110.076 175.215 111.376C170.059 113.506 166.792 117.586 165.215 119.992C164.576 119.218 163.894 118.457 163.127 117.683C160.925 115.484 161.053 110.56 161.295 108.859C161.394 108.112 160.869 107.434 160.102 107.337C159.335 107.241 158.639 107.752 158.539 108.499C158.497 108.803 157.545 115.968 161.139 119.577C165.243 123.699 167.289 127.682 167.26 131.458C162.602 133.283 158.241 135.953 154.747 138.746C152.787 140.309 150.741 142.08 148.795 143.891C147.233 144.735 129.676 153.849 108.143 152.48C100.871 152.024 97.1065 151.968 95.2173 152.01C96.0696 142.813 97.0355 140.531 98.882 136.229L99.4786 134.832C101.297 130.503 101.709 127.295 101.794 125.898C104.152 124.141 106.907 121.652 110.032 118.111C110.529 117.544 110.473 116.687 109.89 116.203C109.308 115.719 108.427 115.774 107.93 116.341C104.294 120.449 101.254 123.007 98.8394 124.626C98.8962 115.525 96.5241 108.734 91.6947 104.474C87.4051 100.699 82.2774 99.8412 79.0389 99.7167C79.2093 99.5923 79.3798 99.4678 79.5644 99.3433C87.1494 94.3367 101.836 88.7215 105.004 87.532ZM90.5726 144.555C91.3254 140.918 92.4759 135.386 92.7884 130.006C93.9532 129.923 95.9417 129.48 98.6973 127.917C98.4132 129.397 97.8877 131.402 96.8792 133.795L96.2968 135.178C94.4219 139.562 93.3566 142.093 92.4617 151.54C90.7572 149.7 89.8766 148.635 90.0186 147.418C90.0754 146.906 90.3027 145.869 90.5726 144.555ZM90.7146 169.768C90.3595 169.741 89.976 169.464 89.6635 169.174C89.7487 168.994 89.834 168.814 89.905 168.634C90.047 168.33 90.2885 167.694 90.601 166.919C91.155 165.55 92.4191 162.397 92.8594 161.677C93.2714 161.318 93.4276 160.737 93.2145 160.198C92.9447 159.492 92.135 159.146 91.4248 159.409C90.6578 159.686 90.3879 159.976 88.0016 165.923C87.7034 166.656 87.4619 167.251 87.3341 167.542L87.2772 167.666C85.0046 172.825 83.712 172.977 83.712 172.908C83.4705 172.839 83.3711 172.714 83.3143 172.617C83.0302 172.078 83.2291 170.999 83.3711 170.584C83.5984 169.934 83.2859 169.215 82.6467 168.925C82.0075 168.634 81.2405 168.856 80.8712 169.436C80.1042 170.626 78.911 171.815 78.5133 171.843C78.2576 171.718 78.144 170.363 78.4991 169.021C78.6696 168.371 78.3429 167.694 77.7037 167.431C77.0645 167.168 76.3259 167.389 75.9708 167.97C74.6356 170.073 73.9112 170.391 73.897 170.446C73.8828 170.432 73.8544 170.405 73.8118 170.363C73.2578 169.685 73.4993 168.053 73.6981 167.376C73.897 166.712 73.5561 166.006 72.8885 165.744C72.2351 165.481 71.4681 165.744 71.1272 166.338C70.7153 167.058 70.0619 167.832 69.6926 168.012C69.6073 167.915 69.4511 167.694 69.2806 167.251C68.7267 165.84 70.2181 162.41 71.5391 159.395C73.4566 155.011 75.6157 150.032 74.4509 146.16C72.1499 138.511 68.6841 125.027 68.5704 119.162C68.471 114.211 70.3602 107.669 75.6583 102.469C75.8429 102.524 76.0418 102.538 76.2407 102.51C76.3259 102.497 84.1381 101.446 89.834 106.494C94.3083 110.463 96.3679 117.116 96.0127 126.23C94.5639 126.921 93.4986 127.17 92.8594 127.253C92.8452 124.75 92.618 122.357 91.993 120.297C91.7799 119.577 90.9987 119.162 90.2601 119.37C89.5215 119.577 89.0954 120.338 89.3084 121.057C91.2544 127.53 88.9391 138.663 87.8312 144.002C87.5329 145.427 87.3198 146.45 87.2346 147.086C86.9221 149.645 88.6266 151.471 90.601 153.587C91.5811 154.638 92.6748 155.813 93.7401 157.279C96.3821 160.903 93.7685 167.002 91.6379 169.257C91.1407 169.796 90.8283 169.782 90.7146 169.768ZM62.5905 237.151C58.9259 232.365 59.8775 224.703 60.6446 218.535C61.1985 214.137 61.5962 210.956 60.2184 209.324C58.7412 207.567 58.9543 201.136 59.7781 195.936C59.977 195.521 61.1701 194.995 62.7752 194.525C62.761 195.479 62.8604 196.613 62.9882 197.955C63.3007 201.274 63.7837 206.281 63.2865 213.542L63.0735 216.64C62.4343 225.727 61.8661 233.804 63.8689 238.216C63.3859 237.953 62.9456 237.607 62.5905 237.151ZM80.1752 208.438C78.1298 200.514 80.786 195.936 81.8939 194.47C83.4421 194.746 86.9505 195.424 89.2374 196.295L85.3881 210.485L80.1752 208.438ZM147.474 217.083C146.068 220.637 142.616 223.652 137.73 225.561C131.551 227.981 124.449 228.105 119.648 225.906C119.563 225.865 119.464 225.837 119.364 225.81C119.137 225.754 96.5383 220.748 87.5187 213.265L92.4049 195.244C96.6661 195.092 113.555 194.94 121.353 201.44C121.935 201.924 122.816 201.869 123.313 201.302C123.81 200.735 123.753 199.877 123.171 199.393C121.85 198.301 120.33 197.374 118.682 196.586L117.219 189.67C121.736 190.735 126.012 191.275 130.06 191.275C138.483 191.275 145.898 188.965 152.403 184.332C151.906 191.565 150.414 209.614 147.474 217.083ZM207.884 206.364C201.535 212.74 192.43 216.737 188.055 218.645C187.53 218.867 187.075 219.074 186.706 219.24C186.464 219.351 186.266 219.517 186.124 219.738L184.135 222.767C182.388 225.063 171.99 228.921 168.013 226.985C167.701 226.833 167.076 226.515 166.863 225.574C167.403 223.846 173.198 219.932 180.57 215.769C180.967 215.63 181.337 215.506 181.663 215.395C184.845 214.33 184.93 214.275 189.248 211.73L189.717 211.454C191.947 210.14 194.703 207.941 197.615 205.617C198.723 204.732 199.93 203.778 201.166 202.837C207.018 198.882 209.816 198.716 210.895 198.937C211.08 198.978 211.222 199.034 211.35 199.089C211.492 199.241 211.62 199.421 211.691 199.628C211.918 200.251 212.003 202.215 207.884 206.364ZM181.521 198.315C173.496 204.054 168.212 204.455 166.124 204.303C166.337 201.136 166.707 198.121 166.92 196.558C170.272 196.088 177.004 195.092 181.749 194.11L181.521 198.315ZM184.888 190.528C182.686 191.372 173.34 192.921 166.337 193.903C166.053 191.952 165.67 187.485 166.238 179.685C167.133 167.638 164.278 159.755 164.15 159.437C163.894 158.732 163.084 158.372 162.36 158.621C161.636 158.87 161.266 159.658 161.522 160.364C161.536 160.405 162.616 163.365 163.212 168.344C151.693 186.683 135.5 192.464 113.697 185.936C102.731 182.658 98.186 173.862 96.311 167.058C96.311 167.044 96.2968 167.03 96.2826 167.016C97.7883 163.6 98.4843 159.133 96.0127 155.744C95.7571 155.385 95.4872 155.053 95.2315 154.735C96.9502 154.707 100.601 154.748 107.944 155.205C109.535 155.302 111.097 155.357 112.632 155.357C125.699 155.357 136.793 151.968 143.497 149.313C141.381 151.733 139.818 153.946 139.349 155.509C139.136 156.228 139.562 156.975 140.301 157.183C141.04 157.39 141.807 156.975 142.02 156.256C142.744 153.808 148.738 147.031 156.494 140.863C163.212 135.51 174.206 130.075 183.112 132.329C188.226 133.629 192.061 137.322 194.49 143.324C201.279 160.018 186.82 187.056 184.888 190.528ZM195.939 104.032L194.76 104.212V105.373C194.76 114.363 193.353 129.356 189.646 132.343C187.899 131.112 185.967 130.213 183.822 129.66C179.391 128.54 174.618 129.037 170.016 130.462C169.831 127.793 168.823 125.096 167.005 122.371C167.786 121.03 169.846 117.904 173.198 115.567C172.303 117.323 171.664 118.485 171.635 118.526C171.266 119.19 171.522 120.006 172.189 120.366C172.402 120.476 172.63 120.532 172.857 120.532C173.354 120.532 173.823 120.269 174.078 119.826C174.292 119.439 179.348 110.352 181.138 103.492C182.004 100.145 181.01 96.1623 180.115 92.6632C179.05 88.4725 178.468 85.6649 180.016 84.9181C180.499 84.683 180.754 84.6276 180.854 84.6138C180.882 84.6968 180.911 84.7798 180.925 84.8627C181.038 85.2362 181.152 85.6096 181.252 85.983C181.323 86.5639 181.365 87.2001 181.394 87.6842C181.394 87.698 181.394 87.7118 181.394 87.7257C181.152 89.8417 181.663 92.0685 182.7 93.6175C184.405 97.0889 185.072 99.855 185.186 100.643C185.3 101.39 185.996 101.902 186.763 101.805C187.53 101.694 188.055 101.017 187.956 100.27C187.842 99.4954 187.43 97.8081 186.621 95.6506C186.692 95.6367 186.777 95.6506 186.848 95.6367C187.146 95.5952 187.501 95.4708 187.871 95.291C188.325 96.2314 189.035 97.1304 190.229 97.4485C190.456 97.5038 190.683 97.5315 190.91 97.5315C191.521 97.5315 192.146 97.3241 192.714 96.9091C192.757 96.8676 192.799 96.8262 192.856 96.7847C193.68 97.3379 194.433 97.5315 195.072 97.5315C195.555 97.5315 195.981 97.4209 196.322 97.2826C196.436 97.2411 196.521 97.1719 196.635 97.1166C197.217 97.4624 198.069 97.822 199.262 98.0156C199.277 98.0156 199.291 98.0156 199.305 98.0156C198.964 100.215 197.885 103.741 195.939 104.032ZM230.014 96.8815C229.361 97.407 228.537 97.656 227.671 97.573L203.381 95.5399C204.291 94.0462 204.972 91.944 205.342 89.4268C205.356 89.33 205.356 89.247 205.37 89.164C205.413 89.1779 205.441 89.1917 205.484 89.2055L228.324 91.4461C230.057 91.6259 231.321 93.1334 231.15 94.8207C231.079 95.6229 230.668 96.3559 230.014 96.8815Z" fill="#EF4123"/>
<path d="M149.576 42.8318C149.591 43.5095 150.173 44.0627 150.869 44.0627C150.883 44.0627 150.897 44.0627 150.912 44.0627C150.926 44.0627 152.176 44.0489 153.752 44.6989L156.536 46.5245C157.261 47.216 157.943 48.0735 158.553 49.1938C158.781 49.6226 159.235 49.8715 159.704 49.8715C159.903 49.8715 160.116 49.83 160.301 49.7332C160.94 49.4151 161.181 48.6544 160.84 48.032C157.289 41.4349 151.082 41.5455 150.826 41.5455C150.116 41.5594 149.548 42.1264 149.576 42.8318Z" fill="#EF4123"/>
<path d="M123.654 54.2281C123.782 54.2696 123.924 54.2835 124.052 54.2835C124.591 54.2835 125.103 53.9377 125.287 53.4121C127.56 46.566 133.81 46.0543 134.094 46.0405C134.804 45.999 135.344 45.4043 135.301 44.7128C135.259 44.0212 134.662 43.468 133.938 43.5372C133.597 43.551 125.657 44.118 122.83 52.6515C122.603 53.3015 122.972 54.0069 123.654 54.2281Z" fill="#EF4123"/>
<path d="M158.752 77.4496C158.099 77.173 157.332 77.4773 157.048 78.1135C156.849 78.5699 152.346 88.2927 139.818 86.9097C134.278 85.2777 133.1 80.0774 132.162 75.9006C131.835 74.4622 131.551 73.2175 131.111 72.2631C130.117 70.1471 128.583 68.8747 126.793 68.6672C124.975 68.4598 123.1 69.4002 121.523 71.3365C120.33 72.8164 119.577 75.6101 120.572 78.5422C121.651 81.6956 125.117 86.0107 135.472 88.6661C137.915 89.2885 140.131 89.5513 142.148 89.5513C154.661 89.5513 159.363 79.2199 159.42 79.0954C159.704 78.4592 159.406 77.7262 158.752 77.4496ZM123.043 77.74C122.248 75.4165 123.029 73.5632 123.569 72.8993C124.492 71.7652 125.444 71.1567 126.296 71.1567C126.367 71.1567 126.424 71.1567 126.495 71.1705C127.347 71.2673 128.171 72.0557 128.767 73.3143C129.094 74.0196 129.35 75.1399 129.648 76.44C130.102 78.4592 130.671 80.9764 131.878 83.2722L129.421 80.6859C128.341 78.9295 127.901 77.4773 127.887 77.4219C127.702 76.7442 126.992 76.357 126.296 76.5368C125.6 76.7166 125.202 77.4081 125.387 78.0858C125.429 78.2656 126.097 80.52 127.83 82.968C124.875 81.1838 123.583 79.289 123.043 77.74Z" fill="#EF4123"/>
<path d="M143.213 72.6227C143.312 72.678 144.875 73.6462 147.133 73.6462C148.341 73.6462 149.747 73.3696 151.238 72.5536C154.292 70.8801 153.781 68.7363 153.553 68.114C152.957 66.5235 151.096 65.4723 149.392 65.7766L145.486 66.482C144.775 66.6064 144.321 67.2703 144.449 67.948C144.577 68.6395 145.258 69.0821 145.954 68.9576L149.86 68.2523C150.315 68.1693 150.968 68.5427 151.125 68.9576C151.338 69.5385 150.301 70.1609 149.974 70.3407C147.062 71.9312 144.704 70.5481 144.605 70.4928C144.008 70.1194 143.199 70.2854 142.815 70.8662C142.432 71.4748 142.602 72.2493 143.213 72.6227Z" fill="#EF4123"/>
</svg>
