<svg width="232" height="250" viewBox="0 0 232 250" fill="none" xmlns="http://www.w3.org/2000/svg">
<g clip-path="url(#clip0)">
<path d="M146.54 63.3498L146.57 63.7698C146.7 65.7198 146.84 67.9398 148.26 69.0598C148.64 69.3598 149.25 69.6798 150.12 69.6798C150.32 69.6798 150.53 69.6598 150.76 69.6298C152.95 69.2698 155 66.8398 154.64 62.2498C154.47 60.0298 153.75 57.5098 152.5 54.7498C151.88 53.3798 150.57 52.4598 149.15 52.3998C148.44 52.3798 146.15 52.5298 145.78 55.7398C145.49 58.2998 145.85 59.8598 146.18 61.2398C146.34 61.9498 146.49 62.6098 146.54 63.3498ZM148.32 56.0498C148.43 55.0598 148.73 54.9798 148.97 54.9798C149 54.9798 149.02 54.9798 149.05 54.9798C149.5 54.9998 149.95 55.3298 150.17 55.8198C150.95 57.5398 151.48 59.1298 151.79 60.5898C150.72 60.2998 149.51 61.0698 149.41 61.9698C149.32 62.9698 149.22 64.3798 149.33 65.6198C149.22 64.9498 149.17 64.1798 149.14 63.6098L149.11 63.1698C149.04 62.2198 148.86 61.4298 148.68 60.6598C148.37 59.3798 148.08 58.1598 148.32 56.0498Z" fill="#928D54"/>
<path d="M131.19 55.0399C130.5 55.0099 128.19 55.1699 127.82 58.3799C127.39 62.1199 127.77 64.1099 128.4 66.7399C128.5 67.1499 128.58 67.5799 128.65 67.9999C128.95 69.6499 129.43 72.3299 132.06 72.3299C132.29 72.3299 132.54 72.3099 132.81 72.2599C135 71.8899 137.05 69.4699 136.69 64.8799C136.52 62.6599 135.8 60.1399 134.56 57.3799C133.93 56.0199 132.61 55.0999 131.19 55.0399ZM130.37 58.6799C130.48 57.6899 130.78 57.6099 131.02 57.6099C131.05 57.6099 131.07 57.6099 131.1 57.6099C131.56 57.6299 132 57.9599 132.22 58.4499C132.99 60.1599 133.53 61.7399 133.84 63.1999C132.86 62.9799 131.77 63.5799 131.58 64.3899C131.38 65.2199 131.16 66.3399 131.15 67.3499C131.08 66.9499 131 66.5399 130.91 66.1399C130.31 63.7099 129.98 61.9999 130.37 58.6799ZM131.64 69.4099C131.73 69.5199 131.82 69.6399 131.95 69.7099C131.99 69.7299 132.03 69.7399 132.07 69.7599C131.89 69.7499 131.76 69.6699 131.64 69.4099Z" fill="#928D54"/>
<path d="M226.28 94.17L203.64 91.89C203.58 91.88 203.53 91.9 203.48 91.91C203.51 89.5 202.82 88.11 200.63 87.1C199.54 86.6 198.52 86.7 197.67 87.04C197.43 85.68 196.95 85.06 195.89 84.27L195.75 84.16C195.19 83.74 194.5 83.57 193.8 83.71C193.14 83.84 192.54 84.22 192.03 84.67C191.6 83.86 191.06 83.19 190.39 82.77C189.54 82.24 188.61 82.11 187.7 82.38C186.57 82.72 185.68 83.64 185.06 84.48C184.89 84.37 184.71 84.27 184.55 84.19C183.41 83.61 182.13 83.45 181.27 83.79C179.16 84.62 178.52 85.96 178.47 87.31C177.76 87.42 177.16 87.71 176.87 87.85C176.12 88.22 175.59 88.72 175.21 89.31L169.97 88.47C171.55 84.47 171.91 81.33 171.92 81.23C172.7 70.05 166.28 64.92 163.79 63.37C165.28 53.92 162.82 46.17 160.79 41.71C162.07 41.26 163.06 40.63 163.63 39.75C167.08 34.38 164.35 32.35 162.38 31.62C169.33 27.67 173.41 23.73 172.5 20.41C171.43 16.51 164.42 15.13 151.66 16.29L150.54 12.69C150.54 12.69 150.54 12.69 150.54 12.68L147.67 3.41003V3.05003L147.48 2.86003C144.97 -2.75997 124.14 1.25003 113.23 4.23003C104.88 6.51003 97.21 9.35003 91.62 12.22C85.21 15.51 82.43 18.35 83.12 20.89C83.14 20.95 83.16 21.02 83.18 21.08L87.27 34.1C76.37 39.4 71.35 44 72.38 47.79C73.25 50.96 78.31 52.31 85.73 52.31C86.24 52.31 86.78 52.3 87.31 52.29C83.82 58.47 84.76 67.38 87.92 73.64C88.63 75.05 89.65 76.51 90.87 77.87L86.31 77.24C80.61 76.46 75.55 73 72.42 67.76C69.04 62.11 63.34 58.35 56.79 57.45L48.88 56.37L7.61997 53.76C5.84997 53.64 4.26997 54.9 3.97997 56.67C3.82997 57.6 4.04997 58.52 4.60997 59.28C5.16997 60.04 5.98997 60.52 6.91997 60.65L45.91 66.02C46.08 66.04 46.21 66.16 46.22 66.25C46.23 66.36 46.21 66.45 46.14 66.51C46.1 66.55 46.02 66.61 45.91 66.6L6.39997 63.17C4.57997 63 2.95997 64.29 2.70997 65.95L2.67997 66.09C2.38997 67.96 3.66997 69.73 5.53997 70.04L44.54 76.41C44.69 76.43 44.8 76.58 44.78 76.73L44.75 76.96C44.73 77.11 44.58 77.21 44.44 77.21L5.15997 72.79C3.31997 72.58 1.64997 73.86 1.35997 75.7C1.05997 77.56 2.27997 79.29 4.13997 79.64L43.1 87C43.25 87.03 43.35 87.17 43.33 87.33L43.31 87.5C43.29 87.66 43.14 87.77 42.99 87.75L4.03997 82.4C2.34997 82.17 0.729967 83.12 0.199967 84.67C-0.130033 85.62 -0.0400333 86.66 0.449967 87.52C0.939967 88.38 1.77997 89 2.75997 89.2L51.52 99.05C52.49 99.18 53.46 99.25 54.42 99.25C59.86 99.25 65.07 97.14 69.04 93.26C73.27 89.13 79.51 87.17 85.65 88.01L101.05 91.04C95.95 93.05 83.88 98.01 76.99 102.67C67.87 108.83 64.77 118.35 64.91 125.2C65.05 131.92 68.86 146.59 70.85 153.4C71.73 156.41 69.79 160.98 68.08 165.02C66.36 169.09 64.87 172.6 65.81 175.07C66.43 176.71 67.36 177.58 68.57 177.66C69.06 177.69 69.53 177.58 69.95 177.37C70.09 177.94 70.33 178.49 70.72 178.97C71.33 179.74 72.15 180.13 73.02 180.08C73.61 180.04 74.19 179.81 74.78 179.37C75.03 180.16 75.51 180.87 76.36 181.27C77.56 181.83 78.74 181.37 79.73 180.61C79.76 180.68 79.79 180.75 79.82 180.81C80.24 181.63 80.94 182.21 81.85 182.49C82.15 182.58 82.44 182.63 82.72 182.63C84.56 182.63 86.08 180.78 87.31 178.59C87.87 178.99 88.57 179.33 89.38 179.4C89.47 179.41 89.56 179.41 89.65 179.41C90.44 179.41 91.5 179.14 92.55 178.01C92.79 177.76 93.03 177.45 93.27 177.12C96.5 186.5 102.91 193.07 111.57 195.73C112 195.86 112.43 195.98 112.86 196.11L114.2 202.66C103.9 199 90.79 199.83 90.09 199.88C89.5 199.92 89 200.33 88.85 200.9L88.83 200.97C85.6 199.78 80.87 198.99 80.53 198.93C80.07 198.85 69.53 197.01 64.16 198.46C60.95 199.04 56.6 200.3 56.21 202.84C55.64 206.53 54.61 215.47 57.24 218.68C57.85 219.42 57.41 223.05 57.05 225.97C56.27 232.37 55.21 241.13 59.5 246.89C61.29 249.29 64.17 249.86 66.54 249.86C66.86 249.86 67.17 249.85 67.47 249.83C67.61 249.84 67.74 249.86 67.88 249.86C68.95 249.86 70.14 249.57 71.44 248.98C78.63 245.74 77.21 232.76 76.74 228.49C76.28 224.25 77.76 220.5 78.6 218.77L83.59 220.8L83.52 221.05C83.39 221.54 83.54 222.06 83.91 222.41C92.67 230.59 114.99 235.86 117.21 236.36C119.8 237.55 122.93 238.14 126.23 238.14C129.85 238.14 133.68 237.43 137.2 236.01C142.76 233.78 146.74 230.15 148.41 225.8C151.96 216.54 153.39 193.25 153.62 189.09C156.54 186.5 159.27 183.38 161.79 179.72C161.87 181.8 161.86 184.07 161.68 186.54C160.84 198.17 162.01 202.91 162.06 203.11L162.3 204.04C162.05 205.99 161.66 209.41 161.48 212.88C161.48 212.89 161.48 212.89 161.48 212.9C161.48 212.92 161.47 212.93 161.47 212.95C161.47 214.6 161.45 228.47 162.2 232.88C162.25 235.54 163.82 236.8 164.94 237.36C166.05 237.92 167.44 238.15 168.97 238.15C174.77 238.15 182.54 234.71 184.43 232.17L186.24 229.35C186.52 229.22 186.84 229.08 187.18 228.93C191.67 226.91 201.02 222.7 207.68 215.83C211.1 212.31 212.6 209.41 212.28 207.01C212.4 206.71 212.43 206.37 212.32 206.05C212.31 206.01 212.27 205.9 212.19 205.75C209.57 200.12 205.62 198.24 202.75 197.66C198.1 196.72 192.72 198.43 188.72 202.12C185.46 205.13 183.34 205.49 182.34 205.43L182.59 200.75C183.5 200.5 184.21 200.25 184.6 200.03L184.92 199.84L185.1 199.51C185.82 198.23 202.63 168.04 194.99 148.7C193.64 145.28 191.88 142.51 189.74 140.38C194.8 135.24 195.38 117.11 195.44 112.15C198.77 110.67 199.72 105.52 199.96 103.69C200.08 103.74 200.2 103.79 200.33 103.8L225.05 105.93C225.25 105.95 225.44 105.96 225.64 105.96C227 105.96 228.31 105.49 229.38 104.62C230.6 103.62 231.36 102.2 231.51 100.63C231.87 97.4 229.5 94.51 226.28 94.17ZM199.47 89.6C200.59 90.12 201.06 90.33 200.47 94.49C199.98 97.94 198.91 100.11 198.06 100.73C197.82 100.91 197.68 100.89 197.64 100.88C197.16 100.8 196.78 100.68 196.49 100.56C197.78 98.07 198.08 94.33 198 91.93C197.98 91.26 197.96 90.66 197.93 90.12C198.19 89.84 198.81 89.29 199.47 89.6ZM194.22 86.45L194.24 86.46C195.05 87.07 195.07 87.08 195.24 92.03C195.4 96.55 194.16 99.9 193.2 100.31C193.03 100.38 192.78 100.31 192.49 100.13C193.27 98.55 193.72 96.61 193.75 95.02C193.78 93.66 193.75 90.46 193.09 87.61C193.48 87.08 193.94 86.6 194.22 86.45ZM188.49 85.01C188.6 84.98 188.71 84.96 188.93 85.1C189.43 85.41 189.88 86.32 190.23 87.58C190.24 87.68 190.27 87.77 190.31 87.86C190.78 89.71 191.04 92.27 190.99 94.96C190.95 96.78 190.28 98.57 189.67 99.56C189.58 99.67 189.49 99.79 189.43 99.92C189.25 100.16 189.09 100.32 188.96 100.36C188.48 100.23 188.1 99.12 187.97 98.2C188.94 95.6 188.81 91.8 188.07 88.96C187.81 87.95 187.44 87.14 187.02 86.48C187.42 85.86 187.99 85.16 188.49 85.01ZM182.22 86.36C182.4 86.36 184.54 86.4 185.39 89.66C186.08 92.29 186.06 95.4 185.41 97.19C185.33 97.32 185.27 97.45 185.23 97.6C185.17 97.72 185.12 97.86 185.05 97.97C184.75 98.43 184.52 98.46 184.44 98.48C184.19 98.52 183.86 98.52 183.45 98.12C183.36 98.03 183.28 97.93 183.2 97.82C183.14 97.69 183.08 97.56 183.01 97.43C182.46 96.32 182.34 94.62 182.24 93.09C182.3 92.34 182.21 91.61 182.05 90.91C181.95 90.12 181.77 89.4 181.47 88.81C181 87.12 181.15 86.79 182.22 86.36ZM147.16 150.31C145.61 151.16 128.22 160.44 106.88 159.05C99.68 158.58 95.95 158.53 94.07 158.57C94.38 155.13 94.71 152.64 95.09 150.65C97.03 151.17 103.94 152.8 113.79 152.8C127.28 152.8 146.25 149.7 165.42 136.47C165.46 136.87 165.46 137.26 165.46 137.65C160.85 139.51 156.53 142.23 153.06 145.06C151.12 146.66 149.09 148.46 147.16 150.31ZM89.47 151C90.23 147.28 91.37 141.59 91.67 136.08C92.55 135.93 94.08 135.54 96.11 134.59C96.12 134.59 96.13 134.6 96.14 134.6C96.16 134.6 96.19 134.6 96.21 134.6C96.69 134.6 97.1 134.34 97.35 133.96C97.42 133.92 97.49 133.89 97.56 133.85C97.29 135.37 96.77 137.49 95.72 140.04L95.14 141.45C93.29 145.91 92.22 148.49 91.33 158.1C89.64 156.23 88.76 155.15 88.91 153.91C88.98 153.38 89.2 152.33 89.47 151ZM95.7 96.24C97.69 97.47 109.69 105.58 108.15 121.27C106.86 122.75 105.62 124.05 104.43 125.19C103.69 108.17 91.6 102.08 86.78 100.32C89.79 98.84 92.92 97.43 95.7 96.24ZM105.73 95.82C117.06 110.13 133.2 108.31 137.24 107.58C138.69 109.33 140.96 110.38 143.23 110.38C143.68 110.38 144.12 110.34 144.56 110.26C147.17 109.77 149.06 107.93 149.84 105.18C153.77 104.54 156.99 103.21 159.66 101.5C159.82 101.67 160.01 101.82 160.25 101.9C160.43 101.96 160.6 102.03 160.79 102.09C155.59 109.96 144.26 112.9 144.12 112.93C123.27 118.39 110.11 109.03 109.98 108.93C109.77 108.78 109.53 108.72 109.29 108.69C106.6 101.58 101.53 97.05 98.73 94.98C101.06 94.02 102.89 93.31 103.78 92.96C104.36 93.93 104.99 94.88 105.73 95.82ZM176.54 108.52C176.42 108.98 176.29 109.46 176.14 109.95C174.04 107.28 169.92 102.93 163.78 100.28C163.71 100.21 163.63 100.14 163.54 100.09L176.25 101.98C176.73 104.31 177.02 106.64 176.54 108.52ZM100.5 132.89C102.4 133.28 110.31 134.76 120.31 134.76C132.24 134.76 147.12 132.63 158.24 124.01C158.56 124.57 158.94 125.1 159.39 125.57C160.33 126.54 161.14 127.49 161.86 128.44C132.26 144.88 102.76 140.14 98.91 139.42C99.93 136.57 100.34 134.31 100.5 132.89ZM110.39 112.42C113.7 114.26 120.86 117.42 131.07 117.42C135.17 117.42 139.77 116.91 144.79 115.59C145.34 115.45 157.71 112.24 163.37 103.12C165.08 103.93 166.63 104.88 167.98 105.88C163.13 107.71 158.03 112.67 157.28 113.42C137.47 127.62 115.82 122.33 110.96 120.88C111.21 117.79 110.96 114.98 110.39 112.42ZM160.36 122.04C160.33 121.98 160.31 121.93 160.28 121.87C160.33 121.49 160.24 121.1 159.97 120.79C159.95 120.77 159.92 120.76 159.9 120.74C159.36 118.7 159.38 116.42 159.5 115.12C161.54 113.13 166.58 108.81 170.29 108.07C170.37 108.05 170.44 108.01 170.51 107.98C171.37 108.77 172.11 109.54 172.74 110.25C169.81 111.71 162.81 115.76 160.36 122.04ZM109.92 123.45C112.17 124.14 118.46 125.81 126.7 125.81C135.37 125.81 146.18 123.96 156.68 117.18C156.7 118.4 156.82 119.87 157.19 121.32C139.63 135.55 110.37 131.79 102.62 130.47C104.83 128.72 107.28 126.42 109.92 123.45ZM164.76 133.59C131.86 156.86 99.42 148.97 95.71 147.95C96.25 146.01 96.88 144.46 97.7 142.51L97.9 142.03C97.9 142.03 97.9 142.03 97.91 142.03C98.05 142.06 104.2 143.36 113.76 143.36C126.36 143.36 144.89 141.09 163.42 130.73C163.97 131.7 164.43 132.65 164.76 133.59ZM163.45 125.99C163.13 125.59 162.78 125.19 162.43 124.8C163.69 118.04 172.25 113.55 174.56 112.45C174.76 112.72 174.92 112.95 175.05 113.14C174.52 114.53 173.94 115.92 173.36 117.23C168.25 119.39 165 123.55 163.45 125.99ZM174.44 91.96C174.34 94 174.93 96.44 175.52 98.84C175.54 98.92 175.56 99 175.58 99.09L164.46 97.44C166.33 95.39 167.75 93.18 168.81 91.06L174.44 91.96ZM86.89 23.62C86.9 23.62 86.91 23.62 86.92 23.63C87.38 23.74 87.88 23.82 88.43 23.89C88.56 23.91 88.72 23.91 88.86 23.93C89.29 23.98 89.73 24.02 90.2 24.04C90.42 24.05 90.66 24.05 90.89 24.06C91.23 24.07 91.55 24.09 91.91 24.09C92.03 24.09 92.17 24.08 92.3 24.08C92.43 24.08 92.56 24.08 92.69 24.07C93.38 24.06 94.09 24.03 94.86 23.99C101.13 23.62 109.18 22.16 117.53 19.87C118.02 19.74 118.53 19.59 119.06 19.44C119.17 19.41 119.29 19.38 119.4 19.34C119.92 19.19 120.45 19.03 121 18.87C121.09 18.84 121.18 18.81 121.27 18.79C121.76 18.64 122.26 18.49 122.77 18.33C122.89 18.29 123 18.26 123.12 18.22C123.69 18.04 124.26 17.85 124.84 17.66C124.96 17.62 125.09 17.58 125.22 17.53C125.76 17.35 126.31 17.16 126.86 16.97C126.93 16.94 127.01 16.92 127.08 16.89C127.68 16.68 128.28 16.46 128.88 16.24C129.02 16.19 129.16 16.14 129.3 16.09C129.91 15.86 130.52 15.63 131.13 15.4C131.16 15.39 131.19 15.38 131.21 15.37C131.79 15.14 132.37 14.91 132.95 14.68C133.08 14.63 133.21 14.57 133.34 14.52C133.93 14.28 134.51 14.03 135.08 13.78C135.17 13.74 135.27 13.7 135.36 13.66C135.88 13.43 136.39 13.2 136.89 12.97C136.99 12.92 137.1 12.88 137.2 12.83C137.75 12.57 138.28 12.31 138.8 12.05C138.91 11.99 139.02 11.94 139.13 11.88C139.62 11.63 140.1 11.38 140.56 11.12C140.6 11.1 140.65 11.07 140.69 11.05C141.18 10.78 141.64 10.5 142.09 10.23C142.19 10.17 142.29 10.11 142.39 10.05C142.84 9.77003 143.26 9.49003 143.66 9.21003C143.69 9.19003 143.71 9.17003 143.74 9.15003C144.12 8.88003 144.47 8.62003 144.8 8.35003C144.87 8.29003 144.94 8.23003 145.01 8.18003C145.34 7.90003 145.65 7.62003 145.93 7.34003C145.95 7.32003 145.97 7.31003 145.98 7.29003L147.75 13.01C147.4 13.66 146.13 15.21 141.61 17.63C136.22 20.51 128.25 23.5 119.73 25.83C111.37 28.11 103.09 29.59 97.01 29.88C90.48 30.19 88.82 29.06 88.73 28.73L88.5 28.79L86.89 23.62ZM92.88 14.63C98.3 11.85 105.78 9.08003 113.95 6.85003C133.47 1.52003 144.52 2.40003 144.95 3.94003C144.97 4.00003 144.94 4.09003 144.93 4.17003C144.92 4.21003 144.93 4.25003 144.91 4.30003C144.88 4.39003 144.81 4.49003 144.74 4.60003C144.71 4.65003 144.69 4.70003 144.65 4.75003C144.57 4.86003 144.44 4.99003 144.33 5.12003C144.27 5.18003 144.23 5.24003 144.17 5.30003C144.04 5.43003 143.87 5.58003 143.7 5.72003C143.62 5.79003 143.55 5.86003 143.46 5.94003C143.28 6.08003 143.07 6.24003 142.86 6.40003C142.74 6.49003 142.65 6.57003 142.52 6.65003C142.3 6.80003 142.05 6.97003 141.8 7.13003C141.65 7.23003 141.51 7.33003 141.35 7.43003C141.1 7.59003 140.8 7.76003 140.52 7.93003C140.33 8.04003 140.16 8.15003 139.95 8.27003C139.66 8.44003 139.33 8.61003 139.02 8.78003C138.79 8.91003 138.57 9.03003 138.32 9.16003C138.02 9.32003 137.67 9.49003 137.35 9.65003C137.05 9.80003 136.77 9.95003 136.46 10.1C136.14 10.26 135.77 10.42 135.43 10.58C135.08 10.75 134.74 10.91 134.36 11.08C134.02 11.23 133.64 11.39 133.27 11.55C132.86 11.73 132.46 11.91 132.02 12.09C131.65 12.24 131.25 12.39 130.87 12.55C130.4 12.74 129.95 12.92 129.45 13.11C129.02 13.27 128.56 13.44 128.11 13.6C127.62 13.78 127.15 13.96 126.64 14.14C126.16 14.31 125.65 14.48 125.16 14.64C124.64 14.82 124.14 14.99 123.6 15.17C122.96 15.38 122.28 15.58 121.62 15.79C121.18 15.93 120.77 16.06 120.32 16.2C119.18 16.54 118.01 16.88 116.79 17.21C108.62 19.44 100.77 20.87 94.69 21.23C94.26 21.26 93.85 21.28 93.46 21.29C93.13 21.3 92.82 21.31 92.51 21.31C92.46 21.31 92.4 21.31 92.34 21.31C92.03 21.31 91.75 21.31 91.47 21.31C91.42 21.31 91.37 21.31 91.33 21.31C91.06 21.31 90.81 21.3 90.56 21.29C90.52 21.29 90.46 21.29 90.42 21.29C90.18 21.28 89.96 21.26 89.74 21.25C89.7 21.25 89.65 21.24 89.61 21.24C89.41 21.22 89.22 21.2 89.04 21.18C88.99 21.17 88.94 21.17 88.89 21.16C88.72 21.14 88.57 21.12 88.42 21.09C88.37 21.08 88.31 21.08 88.26 21.07C88.12 21.05 87.99 21.02 87.86 21C87.81 20.99 87.76 20.98 87.71 20.97C87.59 20.95 87.49 20.92 87.38 20.89C87.33 20.88 87.29 20.87 87.24 20.86C87.14 20.83 87.06 20.81 86.97 20.78C86.93 20.77 86.88 20.75 86.84 20.74C86.76 20.71 86.7 20.69 86.63 20.66C86.59 20.65 86.55 20.63 86.52 20.62C86.46 20.6 86.41 20.57 86.36 20.55C86.33 20.53 86.29 20.52 86.26 20.5C86.22 20.48 86.18 20.46 86.14 20.43C86.11 20.41 86.09 20.4 86.06 20.38C86.03 20.36 86 20.34 85.98 20.32C85.96 20.3 85.94 20.29 85.92 20.27C85.9 20.25 85.89 20.24 85.87 20.22C85.86 20.21 85.84 20.19 85.83 20.18C85.82 20.17 85.81 20.15 85.8 20.14C85.79 20.13 85.78 20.11 85.78 20.1V20.09C85.7 19.76 86.65 17.83 92.88 14.63ZM75.05 47.01C74.7 45.71 77.12 42.12 88.07 36.73L88.41 37.9C88.53 38.34 88.76 38.75 89.09 39.11C90.46 40.63 93.63 41.13 97.28 41.13C101.44 41.13 106.22 40.47 109.64 39.88C113.85 39.16 118.27 38.16 122.77 36.93C130.5 35.12 137.09 32.77 142.28 29.98C154.05 24.46 153.19 21.31 152.9 20.27L152.49 18.94C165.37 17.85 169.49 19.83 169.83 21.09C170.85 24.82 154.24 34.95 124.87 42.97C95.53 51.01 76.07 50.74 75.05 47.01ZM125.62 45.65C130.72 44.26 135.79 42.69 140.61 41.01C146.81 42.15 153.38 42.91 158.02 42.31C159.98 46.46 162.67 54.32 160.92 63.82L160.73 64.86L161.68 65.32C162.02 65.48 169.97 69.44 169.17 80.97C169.09 81.75 166.97 100.06 148.67 102.56L148.01 102.65L147.33 103.79L147.28 104.01C146.86 105.97 145.71 107.22 144.05 107.53C142.2 107.88 140.13 107 139.02 105.32L138.49 104.44L137.5 104.7C137.33 104.75 119.78 109.09 107.91 94.09C105.49 91.03 104.03 87.78 103.51 84.37C103.75 83.99 104.04 83.5 104.37 82.87C105.4 80.94 105.88 78.71 106.1 76.83C106.36 74.6 104.92 72.56 102.79 71.87C100.03 70.99 96.75 69.17 97.56 65.58C98.9 59.61 104.89 63.68 105.36 64.19C107.68 66.73 105.9 69.59 110.37 72.84C111.75 73.85 112.94 73.4 113.86 72.51C115.98 70.46 115.92 67.05 113.98 64.82C111.84 62.37 108.84 59.78 109.08 57.03C109.36 53.8 109.85 51.27 110.43 49.24C115.4 48.26 120.54 47.04 125.62 45.65ZM67.12 91.29C63.06 95.26 57.51 97.09 51.99 96.33L3.31997 86.5C3.11997 86.46 2.94997 86.33 2.84997 86.16C2.77997 86.03 2.70997 85.83 2.79997 85.57C2.89997 85.27 3.27997 85.09 3.65997 85.14L42.6 90.5C44.27 90.73 45.8 89.56 46.03 87.89L46.05 87.72C46.27 86.11 45.2 84.61 43.6 84.31L4.64997 76.94C4.26997 76.87 4.02997 76.52 4.08997 76.12C4.14997 75.75 4.48997 75.5 4.85997 75.53L44.14 79.94C45.77 80.13 47.27 78.95 47.49 77.34L47.52 77.11C47.75 75.46 46.64 73.95 44.99 73.69L5.98997 67.32C5.60997 67.26 5.34997 66.9 5.38997 66.64L5.41997 66.5C5.47997 66.14 5.80997 65.88 6.16997 65.91L45.67 69.34C46.59 69.43 47.49 69.08 48.13 68.41C48.77 67.74 49.07 66.82 48.95 65.88C48.78 64.54 47.68 63.46 46.28 63.27L7.28997 57.92C7.03997 57.89 6.88997 57.73 6.82997 57.65C6.76997 57.57 6.65997 57.38 6.70997 57.12C6.76997 56.76 7.09997 56.51 7.45997 56.52L48.62 59.06L56.42 60.13C62.06 60.91 67.16 64.27 70.06 69.13C73.62 75.09 79.41 79.03 85.94 79.93L94.51 81.11C96.43 82.49 98.55 83.51 100.65 83.85C100.81 85.38 101.14 86.88 101.63 88.35L86.11 85.3C79.05 84.33 71.95 86.57 67.12 91.29ZM83.55 102C83.73 102.2 83.96 102.36 84.24 102.42C84.42 102.46 102.03 106.52 101.71 127.43C101.71 127.49 101.74 127.55 101.74 127.61C100.25 128.85 98.88 129.82 97.65 130.59C97.69 121.38 95.34 114.5 90.57 110.19C86.32 106.34 81.24 105.47 78.03 105.35C78.21 105.23 78.37 105.09 78.55 104.97C80 103.99 81.71 102.99 83.55 102ZM89.62 176.66C89.27 176.63 88.89 176.35 88.58 176.06C88.66 175.88 88.74 175.69 88.82 175.51C88.95 175.2 89.21 174.56 89.51 173.77C90.06 172.37 91.31 169.17 91.75 168.44C92.15 168.07 92.31 167.48 92.1 166.94C91.83 166.23 91.03 165.87 90.32 166.14C89.56 166.43 89.29 166.72 86.93 172.77C86.64 173.52 86.4 174.13 86.27 174.42C86.27 174.42 86.22 174.55 86.21 174.55C83.96 179.8 82.68 179.95 82.68 179.88C82.43 179.8 82.35 179.69 82.29 179.58C82 179.03 82.2 177.94 82.34 177.51C82.56 176.85 82.25 176.12 81.62 175.83C80.99 175.53 80.23 175.76 79.86 176.35C79.11 177.56 77.92 178.76 77.53 178.8C77.27 178.68 77.16 177.29 77.51 175.94C77.69 175.28 77.35 174.59 76.72 174.32C76.09 174.05 75.36 174.28 75 174.86C73.67 177.01 72.96 177.32 72.95 177.38C72.93 177.37 72.91 177.34 72.87 177.29C72.32 176.6 72.56 174.94 72.76 174.25C72.96 173.57 72.61 172.86 71.96 172.59C71.31 172.32 70.56 172.58 70.22 173.2C69.82 173.93 69.16 174.71 68.8 174.91C68.72 174.81 68.57 174.59 68.39 174.13C67.84 172.69 69.32 169.21 70.62 166.13C72.51 161.67 74.66 156.61 73.5 152.65C71.22 144.87 67.79 131.13 67.67 125.17C67.57 120.13 69.45 113.47 74.69 108.18C74.87 108.23 75.06 108.25 75.26 108.22C75.34 108.21 83.08 107.13 88.73 112.27C93.12 116.27 95.17 122.97 94.85 132.13C93.48 132.76 92.43 133.09 91.72 133.26C91.7 130.77 91.46 128.39 90.86 126.34C90.65 125.61 89.87 125.19 89.15 125.4C88.42 125.61 88 126.38 88.21 127.11C90.14 133.7 87.85 145.02 86.74 150.46C86.45 151.91 86.23 152.95 86.16 153.6C85.85 156.2 87.54 158.07 89.49 160.22C90.46 161.28 91.55 162.49 92.61 163.97C95.23 167.66 92.65 173.86 90.52 176.15C90.03 176.69 89.72 176.67 89.62 176.66ZM61.74 245.24C58.11 240.36 59.06 232.57 59.81 226.3C60.35 221.82 60.75 218.58 59.39 216.93C57.93 215.14 58.14 208.59 58.95 203.3C59.14 202.87 60.33 202.34 61.93 201.86C61.92 202.83 62.02 203.99 62.14 205.36C62.45 208.74 62.92 213.84 62.44 221.22L62.23 224.37C61.59 233.61 61.03 241.84 63.02 246.33C62.53 246.06 62.09 245.71 61.74 245.24ZM79.16 216.01C77.13 207.94 79.76 203.29 80.86 201.8C82.39 202.08 85.87 202.78 88.14 203.66L84.32 218.11L79.16 216.01ZM145.87 224.81C144.48 228.43 141.05 231.5 136.21 233.45C130.09 235.91 123.05 236.05 118.28 233.8C118.19 233.76 118.09 233.72 117.99 233.7C117.76 233.65 95.37 228.55 86.43 220.93L91.28 202.59C95.51 202.44 112.25 202.28 119.96 208.9C120.54 209.4 121.41 209.33 121.91 208.75C122.41 208.17 122.34 207.3 121.76 206.8C120.46 205.68 118.94 204.74 117.31 203.95L115.86 196.91C120.34 197.99 124.58 198.54 128.59 198.54C136.93 198.54 144.29 196.19 150.73 191.48C150.25 198.84 148.78 217.22 145.87 224.81ZM205.73 213.9C199.44 220.39 190.41 224.45 186.08 226.4C185.56 226.63 185.11 226.83 184.74 227.01C184.5 227.12 184.3 227.3 184.16 227.52L182.19 230.6C180.46 232.94 170.16 236.86 166.22 234.89C165.91 234.73 165.29 234.41 165.07 233.45C165.61 231.69 171.35 227.71 178.66 223.46C179.06 223.32 179.42 223.2 179.75 223.09C182.91 222.01 182.99 221.96 187.27 219.35L187.74 219.06C189.95 217.72 192.68 215.49 195.56 213.12C196.65 212.22 197.86 211.24 199.07 210.28C204.88 206.26 207.64 206.09 208.71 206.31C208.89 206.35 209.04 206.4 209.17 206.46C209.31 206.62 209.43 206.8 209.5 207C209.74 207.69 209.82 209.69 205.73 213.9ZM179.6 205.71C171.64 211.56 166.4 211.96 164.35 211.8C164.57 208.58 164.93 205.51 165.14 203.92C168.46 203.44 175.13 202.43 179.83 201.42L179.6 205.71ZM182.94 197.78C180.76 198.64 171.49 200.21 164.55 201.21C164.27 199.22 163.88 194.68 164.46 186.74C165.35 174.48 162.51 166.46 162.39 166.13C162.13 165.41 161.33 165.04 160.62 165.3C159.9 165.56 159.53 166.35 159.79 167.07C159.81 167.12 160.87 170.12 161.47 175.19C150.06 193.86 134.01 199.73 112.4 193.1C101.53 189.77 97.03 180.81 95.17 173.88C95.17 173.86 95.15 173.85 95.15 173.83C96.64 170.35 97.34 165.81 94.88 162.36C94.62 162 94.36 161.66 94.11 161.33C95.81 161.3 99.42 161.34 106.7 161.81C108.27 161.91 109.82 161.96 111.34 161.96C124.29 161.96 135.29 158.52 141.92 155.81C139.82 158.27 138.27 160.52 137.81 162.11C137.6 162.84 138.02 163.61 138.75 163.82C139.49 164.03 140.25 163.61 140.46 162.88C141.18 160.38 147.11 153.49 154.8 147.21C161.46 141.77 172.35 136.22 181.17 138.52C186.24 139.84 190.04 143.61 192.45 149.71C199.18 166.73 184.85 194.25 182.94 197.78ZM193.89 109.76L192.73 109.95V111.13C192.73 120.28 191.34 135.54 187.66 138.58C185.93 137.33 184.01 136.41 181.88 135.86C177.49 134.72 172.76 135.23 168.2 136.68C168.03 134.12 167.14 131.53 165.54 128.92C165.57 128.65 165.54 128.37 165.41 128.12C166.29 126.63 168.27 123.73 171.35 121.52C170.46 123.31 169.82 124.5 169.81 124.53C169.44 125.2 169.69 126.04 170.36 126.4C170.57 126.51 170.8 126.57 171.02 126.57C171.51 126.57 171.98 126.31 172.23 125.85C172.44 125.46 177.46 116.21 179.22 109.22C180.08 105.81 179.09 101.77 178.21 98.2C177.16 93.93 176.58 91.08 178.11 90.32C178.59 90.08 178.85 90.03 178.94 90.01C178.97 90.09 178.99 90.18 179.01 90.26C179.13 90.64 179.24 91.02 179.33 91.4C179.4 91.98 179.44 92.63 179.47 93.13C179.47 93.15 179.47 93.16 179.47 93.18C179.23 95.33 179.74 97.6 180.77 99.17C182.45 102.7 183.13 105.51 183.24 106.33C183.35 107.08 184.05 107.61 184.8 107.51C185.56 107.4 186.08 106.71 185.98 105.95C185.87 105.16 185.46 103.44 184.65 101.25C184.73 101.24 184.8 101.24 184.88 101.23C185.18 101.18 185.53 101.06 185.9 100.87C186.35 101.83 187.06 102.74 188.24 103.06C188.46 103.12 188.69 103.15 188.91 103.15C189.52 103.15 190.13 102.93 190.69 102.52C190.74 102.48 190.78 102.43 190.83 102.39C191.65 102.95 192.39 103.15 193.03 103.15C193.51 103.15 193.93 103.04 194.28 102.89C194.39 102.84 194.48 102.78 194.58 102.73C195.16 103.08 196 103.44 197.18 103.64C197.19 103.64 197.21 103.64 197.22 103.64C196.89 105.86 195.82 109.45 193.89 109.76ZM227.67 102.47C227.02 103 226.21 103.26 225.35 103.17L201.27 101.1C202.17 99.58 202.85 97.44 203.21 94.88C203.22 94.78 203.23 94.7 203.24 94.61C203.28 94.62 203.32 94.64 203.36 94.65L226 96.92C227.71 97.1 228.97 98.64 228.8 100.35C228.72 101.19 228.32 101.94 227.67 102.47Z" fill="#928D54"/>
<path d="M149.22 48.6999C149.23 48.6999 149.24 48.6999 149.26 48.6999C149.28 48.6999 150.51 48.6799 152.08 49.3499L154.84 51.2199C155.55 51.9199 156.24 52.7999 156.84 53.9299C157.07 54.3699 157.51 54.6199 157.98 54.6199C158.18 54.6199 158.38 54.5699 158.57 54.4699C159.2 54.1399 159.44 53.3699 159.11 52.7399C155.59 46.0299 149.44 46.1399 149.19 46.1299C148.48 46.1499 147.92 46.7399 147.94 47.4499C147.96 48.1499 148.53 48.6999 149.22 48.6999Z" fill="#928D54"/>
<path d="M122.26 59.0502C122.39 59.0902 122.52 59.1102 122.65 59.1102C123.19 59.1102 123.69 58.7602 123.87 58.2202C126.12 51.2602 132.32 50.7402 132.6 50.7202C133.31 50.6702 133.84 50.0702 133.8 49.3602C133.76 48.6502 133.17 48.0902 132.44 48.1602C132.11 48.1802 124.23 48.7602 121.43 57.4302C121.22 58.1102 121.59 58.8402 122.26 59.0502Z" fill="#928D54"/>
<path d="M133.98 94.1098C136.4 94.7398 138.59 95.0198 140.59 95.0198C152.99 95.0198 157.65 84.4998 157.7 84.3798C157.98 83.7298 157.68 82.9798 157.03 82.6998C156.38 82.4198 155.63 82.7198 155.35 83.3698C155.15 83.8298 150.69 93.7298 138.28 92.3198C132.78 90.6598 131.62 85.3698 130.69 81.1198C130.37 79.6498 130.09 78.3798 129.65 77.4198C128.67 75.2698 127.15 73.9698 125.37 73.7598C123.57 73.5498 121.71 74.5098 120.15 76.4798C118.97 77.9798 118.22 80.8298 119.21 83.8098C120.3 87.0198 123.73 91.4098 133.98 94.1098ZM122.17 78.0698C123.08 76.9198 124.03 76.2898 124.87 76.2898C124.94 76.2898 125 76.2898 125.07 76.2998C125.91 76.3998 126.73 77.1998 127.32 78.4798C127.65 79.1898 127.9 80.3398 128.19 81.6598C128.64 83.7198 129.21 86.2698 130.39 88.6198L127.96 85.9998C126.89 84.2198 126.46 82.7298 126.44 82.6798C126.26 81.9998 125.55 81.5998 124.87 81.7798C124.19 81.9598 123.78 82.6698 123.96 83.3498C124.01 83.5298 124.66 85.8298 126.38 88.3198C123.45 86.4998 122.17 84.5698 121.64 82.9998C120.86 80.6198 121.65 78.7398 122.17 78.0698Z" fill="#928D54"/>
<path d="M141.64 77.7898C141.74 77.8498 143.28 78.8298 145.53 78.8298C146.73 78.8298 148.12 78.5498 149.6 77.7198C152.62 76.0198 152.12 73.8398 151.89 73.2098C151.3 71.5898 149.46 70.5198 147.76 70.8398L143.89 71.5498C143.19 71.6798 142.73 72.3498 142.86 73.0398C142.99 73.7398 143.66 74.1998 144.35 74.0698L148.22 73.3598C148.67 73.2798 149.31 73.6498 149.47 74.0798C149.68 74.6698 148.65 75.3098 148.33 75.4898C145.45 77.1098 143.1 75.6998 143.01 75.6498C142.42 75.2698 141.62 75.4398 141.24 76.0298C140.87 76.6098 141.04 77.3998 141.64 77.7898Z" fill="#928D54"/>
</g>
<defs>
<clipPath id="clip0">
<rect width="231.58" height="249.86" fill="white"/>
</clipPath>
</defs>
</svg>
