<svg width="519" height="42" viewBox="0 0 519 42" fill="none" xmlns="http://www.w3.org/2000/svg">
<path d="M8.93901 1.26543L3.65191 10.4728L2.51507 10.3098L0 0L1.65076 0.232902L3.4261 8.01183L7.29604 1.03253L8.93901 1.26543Z" fill="#EF4123"/>
<path d="M12.5754 2.15823L18.8436 4.02144L18.4465 5.34122L13.6188 3.90499L12.8012 6.62995L17.2395 7.94972L16.8424 9.2695L12.4041 7.94972L11.5943 10.6592L16.422 12.0954L16.017 13.454L9.74884 11.5908L12.5754 2.15823Z" fill="#EF4123"/>
<path d="M29.6747 8.83475L25.3765 17.7083L24.0139 17.0484L23.2741 8.4854L20.0505 15.1386L18.7501 14.5098L23.0483 5.63623L24.411 6.28836L25.1741 14.8281L28.3821 8.19815L29.6747 8.83475Z" fill="#EF4123"/>
<path d="M33.5992 11.1638L34.884 11.9401L29.7448 20.3556L28.46 19.5793L33.5992 11.1638Z" fill="#EF4123"/>
<path d="M35.0474 17.8558C36.5814 15.5423 39.1121 14.4632 41.7595 16.2022C43.3947 17.2736 44.1033 18.8961 43.7529 20.837L42.2656 20.5264C42.6705 19.1678 42.1177 18.1508 40.9575 17.39C39.1354 16.1867 37.4457 16.9242 36.3245 18.6244C35.172 20.3712 35.0786 22.2266 36.9474 23.461C38.092 24.2141 39.1666 24.2529 40.3968 23.4144L41.2456 24.6566C39.5948 25.7357 37.7883 25.7202 36.1609 24.6488C33.5291 22.9253 33.5213 20.1693 35.0474 17.8558Z" fill="#EF4123"/>
<path d="M47.4281 20.0762L53.1046 23.3135L52.4193 24.5091L48.0511 22.017L46.6339 24.4858L50.6518 26.776L49.9666 27.9715L45.9487 25.6813L44.5393 28.1423L48.9076 30.6344L48.199 31.861L42.5226 28.6237L47.4281 20.0762Z" fill="#EF4123"/>
<path d="M60.1437 25.2932L62.6198 26.1083L62.4174 26.7139L60.6654 26.1394L57.4339 35.9213L59.1859 36.4958L58.9835 37.1013L56.5073 36.2861L60.1437 25.2932Z" fill="#EF4123"/>
<path d="M64.216 27.3893L65.1504 27.6144L62.83 37.1867L61.8956 36.9616L64.216 27.3893Z" fill="#EF4123"/>
<path d="M66.7467 36.0067L67.4242 31.8299L66.2795 31.6436L66.4041 30.875L67.5643 31.0614L67.8836 29.0739L68.888 28.5538L68.4598 31.2089L70.3909 31.5194L70.2663 32.288L68.3352 31.9774L67.6811 36.0144C67.5254 36.9848 67.8446 37.4429 68.5766 37.5671C68.8803 37.6137 69.2073 37.5749 69.4097 37.5283L69.2852 38.3667C69.0594 38.3978 68.6778 38.4133 68.2885 38.3512C67.0738 38.1416 66.5365 37.3187 66.7467 36.0067Z" fill="#EF4123"/>
<path d="M77.2431 34.8111L76.9472 39.0499L76.1763 38.9956L76.2152 37.5826C75.6234 38.553 74.619 38.9956 73.5756 38.9257C72.1584 38.8248 71.224 37.9708 71.3175 36.6355C71.4187 35.2225 72.5789 34.7335 74.3776 34.8577L76.3865 34.9974L76.3943 34.912C76.4955 33.4447 76.005 32.715 74.6112 32.614C73.6846 32.5519 73.0383 32.9246 72.5088 33.6078L71.8392 33.041C72.5789 32.156 73.4276 31.7135 74.6579 31.7989C76.4488 31.9309 77.3676 33.0721 77.2431 34.8111ZM76.2931 36.3871L76.3398 35.6806L74.3776 35.5408C73.0071 35.4477 72.3141 35.8902 72.2519 36.7287C72.1973 37.5205 72.7502 38.0795 73.8014 38.1494C75.0161 38.2347 75.8882 37.505 76.2931 36.3871Z" fill="#EF4123"/>
<path d="M79.7425 37.6137L79.8593 29.2292L80.7859 29.2447L80.6769 37.3963C80.6691 37.932 80.7314 38.3823 81.4322 38.39C81.5802 38.39 81.7904 38.3667 82.0006 38.3279V39.1198C81.6892 39.1819 81.3154 39.2207 81.0118 39.2207C80.0151 39.1896 79.727 38.5996 79.7425 37.6137Z" fill="#EF4123"/>
<path d="M86.1821 38.8636L82.7871 32.1715L83.7994 32.1094L86.6025 37.7534L88.4012 31.8299L89.4057 31.7678L86.1899 41.9379L85.1854 42L86.1821 38.8636Z" fill="#EF4123"/>
<path d="M91.1655 39.407L91.072 38.7704L92.9019 38.5142L91.4458 28.3131L89.6159 28.5693L89.5303 27.9482L92.1154 27.5834L93.7506 39.0499L91.1655 39.407Z" fill="#EF4123"/>
<path d="M99.0299 27.0166L105.205 24.8584L105.664 26.1627L100.906 27.824L101.849 30.5102L106.225 28.9808L106.684 30.285L102.308 31.8144L103.25 34.485L108.008 32.8237L108.475 34.159L102.3 36.3172L99.0299 27.0166Z" fill="#EF4123"/>
<path d="M107.673 23.7094L110.118 22.3508C113.03 20.7283 115.46 21.4347 117.025 24.2296C118.528 26.9157 117.803 29.3534 114.922 30.9604L112.493 32.3113L107.673 23.7094ZM114.12 29.827C116.153 28.6935 116.924 27.1408 115.678 24.9127C114.471 22.7545 112.991 22.3353 110.772 23.5697L109.659 24.1907L113.124 30.3859L114.12 29.827Z" fill="#EF4123"/>
<path d="M116.955 18.2518L118.216 17.4366L123.604 25.6891L122.343 26.5043L116.955 18.2518Z" fill="#EF4123"/>
<path d="M123.885 15.3172L121.183 17.0562L120.451 15.9227L127.124 11.6373L127.856 12.7708L125.154 14.502L129.779 21.6521L128.518 22.4673L123.885 15.3172Z" fill="#EF4123"/>
<path d="M129.842 10.0691L131.15 9.33161L136.001 17.9179L134.693 18.6555L129.842 10.0691Z" fill="#EF4123"/>
<path d="M136.53 11.9013C135.495 9.42477 135.946 6.66876 138.905 5.43438C141.856 4.2 144.153 5.81479 145.189 8.29131C146.225 10.7678 145.773 13.5316 142.822 14.766C139.871 16.0004 137.566 14.3778 136.53 11.9013ZM143.717 8.90462C142.946 7.07246 141.475 5.80702 139.411 6.661C137.348 7.51497 137.215 9.45582 137.986 11.288C138.757 13.1279 140.229 14.3933 142.292 13.5316C144.356 12.6699 144.488 10.7445 143.717 8.90462Z" fill="#EF4123"/>
<path d="M154.774 0.908318L156.908 10.5349L155.428 10.861L149.534 4.58817L151.13 11.8081L149.713 12.1187L147.579 2.49205L149.059 2.16599L154.961 8.40776L153.365 1.21109L154.774 0.908318Z" fill="#EF4123"/>
<path d="M164.406 4.89094L173.119 4.74344L173.135 5.83808L164.422 5.98558L164.406 4.89094Z" fill="#EF4123"/>
<path d="M190.211 1.64584L184.721 10.729L183.592 10.5427L181.311 0.178558L182.954 0.450277L184.558 8.26802L188.584 1.38189L190.211 1.64584Z" fill="#EF4123"/>
<path d="M193.847 2.63956L200.069 4.6658L199.641 5.97782L194.852 4.41738L193.964 7.1268L198.371 8.56303L197.943 9.87505L193.536 8.43882L192.656 11.1327L197.445 12.6932L197.001 14.0362L190.779 12.01L193.847 2.63956Z" fill="#EF4123"/>
<path d="M210.768 9.76636L206.251 18.539L204.904 17.8481L204.375 9.26174L200.988 15.8451L199.695 15.1852L204.211 6.41257L205.558 7.10351L206.111 15.6665L209.483 9.11423L210.768 9.76636Z" fill="#EF4123"/>
<path d="M214.56 12.0954L215.837 12.895L210.581 21.2484L209.304 20.4488L214.56 12.0954Z" fill="#EF4123"/>
<path d="M215.876 18.7952C217.402 16.4739 219.932 15.3871 222.588 17.1261C224.223 18.1974 224.939 19.82 224.589 21.7531L223.101 21.4425C223.506 20.0839 222.946 19.0669 221.786 18.3061C219.956 17.1105 218.274 17.8481 217.153 19.5482C216 21.295 215.914 23.1582 217.783 24.3848C218.928 25.1379 220.01 25.1767 221.233 24.3305L222.089 25.5726C220.438 26.6595 218.632 26.644 216.997 25.5804C214.373 23.8647 214.357 21.1087 215.876 18.7952Z" fill="#EF4123"/>
<path d="M228.21 20.9146L233.956 24.0277L233.294 25.2388L228.871 22.8399L227.509 25.3398L231.573 27.5446L230.911 28.7556L226.847 26.5508L225.492 29.0351L229.915 31.434L229.237 32.6762L223.491 29.563L228.21 20.9146Z" fill="#EF4123"/>
<path d="M241.05 25.7745L243.557 26.512L243.378 27.1176L241.602 26.5974L238.667 36.488L240.442 37.0081L240.263 37.6214L237.756 36.8839L241.05 25.7745Z" fill="#EF4123"/>
<path d="M245.192 27.7542L246.127 27.9483L244.079 37.5904L243.144 37.3963L245.192 27.7542Z" fill="#EF4123"/>
<path d="M247.933 36.2939L248.501 32.1017L247.349 31.9464L247.45 31.1701L248.61 31.3253L248.883 29.3301L249.872 28.7789L249.514 31.4418L251.453 31.7057L251.351 32.4821L249.412 32.2181L248.86 36.2628C248.727 37.2333 249.062 37.6913 249.794 37.7922C250.098 37.8311 250.425 37.7845 250.627 37.7379L250.526 38.5763C250.3 38.6152 249.919 38.6385 249.529 38.5841C248.315 38.4211 247.754 37.6137 247.933 36.2939Z" fill="#EF4123"/>
<path d="M258.414 34.8654L258.204 39.112L257.433 39.0732L257.44 37.6525C256.864 38.6384 255.868 39.0965 254.832 39.0499C253.415 38.98 252.465 38.1416 252.527 36.8063C252.597 35.3933 253.75 34.8732 255.548 34.9664L257.557 35.0673L257.565 34.9819C257.635 33.5146 257.137 32.7926 255.735 32.7227C254.809 32.6762 254.17 33.0643 253.656 33.7553L252.979 33.2041C253.703 32.3035 254.536 31.8455 255.774 31.8998C257.557 31.993 258.499 33.1187 258.414 34.8654ZM257.495 36.4647L257.526 35.7505L255.564 35.6573C254.186 35.5874 253.508 36.0532 253.461 36.8839C253.423 37.6758 253.991 38.2192 255.042 38.2736C256.257 38.3357 257.113 37.5904 257.495 36.4647Z" fill="#EF4123"/>
<path d="M261.03 37.6214L260.898 29.237L261.824 29.2214L261.949 37.373C261.957 37.9087 262.035 38.359 262.735 38.3434C262.883 38.3434 263.093 38.3124 263.304 38.2658L263.327 39.0577C263.023 39.1275 262.642 39.1819 262.346 39.1819C261.349 39.1974 261.046 38.6074 261.03 37.6214Z" fill="#EF4123"/>
<path d="M267.431 38.7394L263.896 32.125L264.908 32.0396L267.836 37.6215L269.502 31.6592L270.506 31.5738L267.516 41.8137L266.512 41.8991L267.431 38.7394Z" fill="#EF4123"/>
<path d="M272.469 39.1586L272.36 38.5298L274.182 38.2192L272.445 28.0725L270.623 28.383L270.514 27.7542L273.084 27.3194L275.038 38.7239L272.469 39.1586Z" fill="#EF4123"/>
<path d="M279.983 26.5664L286.08 24.2218L286.578 25.5105L281.883 27.3194L282.91 29.9745L287.232 28.3131L287.73 29.6019L283.409 31.2632L284.429 33.9028L289.124 32.0939L289.638 33.4137L283.541 35.7582L279.983 26.5664Z" fill="#EF4123"/>
<path d="M288.54 22.9719L290.954 21.5667C293.835 19.8898 296.272 20.5497 297.9 23.3135C299.457 25.9686 298.779 28.4218 295.93 30.0832L293.531 31.4806L288.54 22.9719ZM295.104 28.9575C297.113 27.7852 297.853 26.217 296.56 24.0122C295.307 21.8773 293.827 21.4891 291.631 22.7701L290.533 23.4067L294.123 29.5242L295.104 28.9575Z" fill="#EF4123"/>
<path d="M297.736 17.3434L298.99 16.5205L304.433 24.7575L303.179 25.5804L297.736 17.3434Z" fill="#EF4123"/>
<path d="M304.775 14.3545L302.05 16.0702L301.326 14.929L308.038 10.698L308.762 11.8392L306.044 13.5549L310.607 20.7516L309.338 21.5512L304.775 14.3545Z" fill="#EF4123"/>
<path d="M310.849 9.16858L312.172 8.45435L316.86 17.1416L315.536 17.8558L310.849 9.16858Z" fill="#EF4123"/>
<path d="M317.545 11.125C316.572 8.61737 317.101 5.86913 320.084 4.72015C323.074 3.5634 325.324 5.24029 326.297 7.74011C327.271 10.2477 326.749 12.9959 323.759 14.1527C320.769 15.3094 318.518 13.6325 317.545 11.125ZM324.818 8.3146C324.094 6.45915 322.661 5.1549 320.566 5.96229C318.472 6.76968 318.3 8.70277 319.025 10.5582C319.749 12.4214 321.189 13.7257 323.276 12.9183C325.363 12.1109 325.542 10.1701 324.818 8.3146Z" fill="#EF4123"/>
<path d="M336.046 0.613312L337.938 10.2865L336.451 10.5738L330.705 4.16119L332.129 11.42L330.705 11.6994L328.812 2.01849L330.3 1.73124L336.054 8.12052L334.637 0.892794L336.046 0.613312Z" fill="#EF4123"/>
<path d="M345.46 4.86766L354.173 4.75121L354.189 5.84585L345.476 5.9623L345.46 4.86766Z" fill="#EF4123"/>
<path d="M371.436 2.09612L365.729 11.0396L364.6 10.8222L362.575 0.411461L364.21 0.721997L365.62 8.5708L369.809 1.78558L371.436 2.09612Z" fill="#EF4123"/>
<path d="M375.096 3.19076L381.247 5.3878L380.78 6.68429L376.038 4.99187L375.08 7.67024L379.441 9.22292L378.974 10.5194L374.613 8.96673L373.655 11.6296L378.397 13.322L377.922 14.6573L371.771 12.468L375.096 3.19076Z" fill="#EF4123"/>
<path d="M391.775 10.6902L387.072 19.3619L385.74 18.6399L385.398 10.0458L381.87 16.5516L380.593 15.8684L385.296 7.19667L386.628 7.9109L386.994 16.4817L390.506 9.99926L391.775 10.6902Z" fill="#EF4123"/>
<path d="M395.473 13.0348L396.743 13.8421L391.401 22.1412L390.132 21.3338L395.473 13.0348Z" fill="#EF4123"/>
<path d="M396.688 19.719C398.207 17.39 400.737 16.2876 403.4 18.0189C405.043 19.0824 405.767 20.6972 405.425 22.6458L403.93 22.3431C404.327 20.9767 403.766 19.9597 402.598 19.2067C400.761 18.0189 399.079 18.7641 397.965 20.4721C396.821 22.2266 396.743 24.0898 398.619 25.3087C399.772 26.054 400.846 26.085 402.069 25.2388L402.933 26.481C401.282 27.5756 399.476 27.5678 397.841 26.512C395.201 24.8041 395.178 22.0481 396.688 19.719Z" fill="#EF4123"/>
<path d="M409.038 21.7375L414.862 24.7031L414.231 25.9298L409.746 23.6473L408.446 26.1782L412.565 28.2821L411.934 29.5087L407.815 27.4048L406.523 29.9279L411.008 32.2103L410.361 33.468L404.537 30.5024L409.038 21.7375Z" fill="#EF4123"/>
<path d="M421.963 26.2092L424.486 26.8691L424.323 27.4824L422.532 27.0166L419.915 36.9926L421.706 37.4584L421.543 38.0795L419.02 37.4196L421.963 26.2092Z" fill="#EF4123"/>
<path d="M426.192 28.0802L427.134 28.251L425.351 37.9397L424.408 37.769L426.192 28.0802Z" fill="#EF4123"/>
<path d="M429.158 36.5346L429.625 32.3268L428.473 32.2026L428.559 31.4262L429.727 31.5582L429.952 29.5553L430.934 28.9808L430.638 31.6591L432.584 31.8765L432.499 32.6529L430.552 32.4355L430.1 36.4957C429.991 37.4739 430.334 37.9164 431.074 38.0018C431.377 38.0329 431.704 37.9786 431.907 37.9242L431.829 38.7627C431.603 38.8092 431.222 38.8325 430.832 38.7937C429.594 38.654 429.01 37.8621 429.158 36.5346Z" fill="#EF4123"/>
<path d="M439.584 34.8732L439.46 39.1275L438.689 39.1043L438.666 37.6836C438.113 38.6773 437.124 39.1586 436.08 39.1353C434.663 39.0965 433.69 38.2736 433.729 36.9383C433.768 35.5253 434.912 34.9819 436.719 35.0362L438.736 35.0906V35.0052C438.775 33.5301 438.261 32.8237 436.859 32.7771C435.925 32.7538 435.302 33.1497 434.796 33.8562L434.103 33.3205C434.811 32.4044 435.637 31.9231 436.875 31.9619C438.673 32.024 439.639 33.1264 439.584 34.8732ZM438.697 36.488L438.72 35.7738L436.75 35.7194C435.372 35.6806 434.702 36.1542 434.671 36.9926C434.648 37.7845 435.224 38.3202 436.275 38.3512C437.505 38.39 438.346 37.6214 438.697 36.488Z" fill="#EF4123"/>
<path d="M442.232 37.5904L441.944 29.2214L442.863 29.1904L443.143 37.3264C443.159 37.8621 443.244 38.3046 443.945 38.2813C444.093 38.2736 444.303 38.2425 444.506 38.1959L444.545 38.98C444.241 39.0499 443.867 39.112 443.563 39.1275C442.575 39.1586 442.263 38.5763 442.232 37.5904Z" fill="#EF4123"/>
<path d="M448.687 38.5686L444.996 32.0473L446.001 31.9386L449.053 37.4429L450.571 31.4495L451.576 31.3409L448.835 41.6351L447.83 41.7438L448.687 38.5686Z" fill="#EF4123"/>
<path d="M453.772 38.8714L453.647 38.2425L455.461 37.8854L453.46 27.7697L451.646 28.1268L451.521 27.5057L454.083 27.0011L456.333 38.3667L453.772 38.8714Z" fill="#EF4123"/>
<path d="M460.889 26.054L466.923 23.5154L467.461 24.7885L462.82 26.7449L463.933 29.369L468.2 27.5756L468.738 28.8488L464.463 30.6422L465.568 33.2507L470.209 31.2943L470.762 32.5985L464.727 35.1372L460.889 26.054Z" fill="#EF4123"/>
<path d="M469.399 22.1878L471.79 20.7361C474.64 19.0048 477.1 19.6259 478.767 22.3586C480.371 24.9826 479.74 27.4514 476.913 29.1593L474.539 30.6033L469.399 22.1878ZM476.073 28.0569C478.066 26.8458 478.774 25.2699 477.443 23.0884C476.15 20.9767 474.663 20.6118 472.483 21.9316L471.393 22.5915L475.091 28.6547L476.073 28.0569Z" fill="#EF4123"/>
<path d="M478.572 16.4196L479.826 15.5967L485.269 23.8336L484.015 24.6566L478.572 16.4196Z" fill="#EF4123"/>
<path d="M485.712 13.4152L482.971 15.0998L482.263 13.9508L489.014 9.79741L489.722 10.9464L486.989 12.6233L491.467 19.8665L490.19 20.6506L485.712 13.4152Z" fill="#EF4123"/>
<path d="M491.934 8.29131L493.273 7.60813L497.758 16.3963L496.419 17.0795L491.934 8.29131Z" fill="#EF4123"/>
<path d="M498.584 10.3874C497.68 7.85657 498.28 5.12385 501.301 4.04474C504.322 2.97339 506.526 4.70463 507.429 7.23549C508.332 9.76636 507.733 12.5068 504.712 13.586C501.698 14.6651 499.495 12.9183 498.584 10.3874ZM505.934 7.77117C505.264 5.90019 503.863 4.54936 501.753 5.30241C499.642 6.05546 499.409 7.98078 500.079 9.85176C500.748 11.7305 502.158 13.0813 504.268 12.3283C506.378 11.5752 506.611 9.65768 505.934 7.77117Z" fill="#EF4123"/>
<path d="M517.334 0.372643L518.992 10.0847L517.497 10.3408L511.914 3.7963L513.16 11.0784L511.735 11.319L510.077 1.60702L511.564 1.35083L517.155 7.86432L515.909 0.605545L517.334 0.372643Z" fill="#EF4123"/>
</svg>
